<svg width="123" height="61" viewBox="0 0 123 61" fill="none" xmlns="http://www.w3.org/2000/svg">
<mask id="mask0" style="mask-type:alpha" maskUnits="userSpaceOnUse" x="0" y="0" width="123" height="61">
<path d="M48.691 60.6143L0.0952148 0.614258H122.542L48.691 60.6143Z" fill="#C4C4C4"/>
</mask>
<g mask="url(#mask0)">
<path d="M5.14389 0.453726C5.65959 1.09523 5.5576 2.03333 4.91609 2.54902C4.27459 3.06471 3.33649 2.96272 2.8208 2.32122C2.30511 1.67971 2.4071 0.741616 3.0486 0.225923C3.69011 -0.289769 4.6282 -0.187779 5.14389 0.453726Z" fill="#848D95"/>
<path d="M12.1132 -5.14874C12.6289 -4.50724 12.5269 -3.56914 11.8854 -3.05345C11.2439 -2.53776 10.3058 -2.63975 9.79008 -3.28125C9.27439 -3.92276 9.37638 -4.86085 10.0179 -5.37654C10.6594 -5.89224 11.5975 -5.79025 12.1132 -5.14874Z" fill="#848D95"/>
<path d="M19.0825 -10.7512C19.5982 -10.1097 19.4962 -9.17161 18.8547 -8.65592C18.2132 -8.14022 17.2751 -8.24221 16.7594 -8.88372C16.2437 -9.52522 16.3457 -10.4633 16.9872 -10.979C17.6287 -11.4947 18.5668 -11.3927 19.0825 -10.7512Z" fill="#848D95"/>
<path d="M26.0517 -16.3537C26.5674 -15.7122 26.4654 -14.7741 25.8239 -14.2584C25.1824 -13.7427 24.2443 -13.8447 23.7287 -14.4862C23.213 -15.1277 23.315 -16.0658 23.9565 -16.5815C24.598 -17.0972 25.5361 -16.9952 26.0517 -16.3537Z" fill="#848D95"/>
<path d="M33.021 -21.9561C33.5367 -21.3146 33.4347 -20.3765 32.7932 -19.8609C32.1517 -19.3452 31.2136 -19.4471 30.6979 -20.0887C30.1822 -20.7302 30.2842 -21.6683 30.9257 -22.1839C31.5672 -22.6996 32.5053 -22.5976 33.021 -21.9561Z" fill="#848D95"/>
<path d="M39.9903 -27.5586C40.506 -26.9171 40.404 -25.979 39.7625 -25.4633C39.121 -24.9476 38.1829 -25.0496 37.6672 -25.6911C37.1515 -26.3326 37.2535 -27.2707 37.895 -27.7864C38.5365 -28.3021 39.4746 -28.2001 39.9903 -27.5586Z" fill="#848D95"/>
<path d="M46.9596 -33.1611C47.4753 -32.5196 47.3733 -31.5815 46.7318 -31.0658C46.0903 -30.5501 45.1522 -30.6521 44.6365 -31.2936C44.1208 -31.9351 44.2228 -32.8732 44.8643 -33.3889C45.5058 -33.9046 46.4439 -33.8026 46.9596 -33.1611Z" fill="#848D95"/>
<path d="M53.9289 -38.7635C54.4446 -38.122 54.3426 -37.1839 53.7011 -36.6683C53.0596 -36.1526 52.1215 -36.2546 51.6058 -36.8961C51.0901 -37.5376 51.1921 -38.4757 51.8336 -38.9913C52.4751 -39.507 53.4132 -39.405 53.9289 -38.7635Z" fill="#848D95"/>
<path d="M60.8982 -44.366C61.4139 -43.7245 61.3119 -42.7864 60.6704 -42.2707C60.0289 -41.755 59.0908 -41.857 58.5751 -42.4985C58.0594 -43.14 58.1614 -44.0781 58.8029 -44.5938C59.4444 -45.1095 60.3825 -45.0075 60.8982 -44.366Z" fill="#848D95"/>
<path d="M67.8675 -49.9685C68.3831 -49.327 68.2812 -48.3889 67.6396 -47.8732C66.9981 -47.3575 66.0601 -47.4595 65.5444 -48.101C65.0287 -48.7425 65.1307 -49.6806 65.7722 -50.1963C66.4137 -50.712 67.3518 -50.61 67.8675 -49.9685Z" fill="#848D95"/>
<path d="M74.8367 -55.5709C75.3524 -54.9294 75.2504 -53.9913 74.6089 -53.4757C73.9674 -52.96 73.0293 -53.062 72.5136 -53.7035C71.9979 -54.345 72.0999 -55.2831 72.7414 -55.7988C73.3829 -56.3144 74.321 -56.2125 74.8367 -55.5709Z" fill="#848D95"/>
<path d="M10.7464 7.42301C11.2621 8.06452 11.1601 9.00261 10.5186 9.5183C9.87705 10.034 8.93896 9.93201 8.42327 9.2905C7.90757 8.649 8.00956 7.7109 8.65107 7.19521C9.29257 6.67951 10.2307 6.78151 10.7464 7.42301Z" fill="#848D95"/>
<path d="M17.7156 1.82054C18.2313 2.46205 18.1293 3.40014 17.4878 3.91584C16.8463 4.43153 15.9082 4.32954 15.3926 3.68803C14.8769 3.04653 14.9788 2.10843 15.6204 1.59274C16.2619 1.07705 17.2 1.17904 17.7156 1.82054Z" fill="#848D95"/>
<path d="M24.6849 -3.78192C25.2006 -3.14042 25.0986 -2.20232 24.4571 -1.68663C23.8156 -1.17094 22.8775 -1.27293 22.3618 -1.91443C21.8461 -2.55594 21.9481 -3.49403 22.5896 -4.00973C23.2311 -4.52542 24.1692 -4.42343 24.6849 -3.78192Z" fill="#848D95"/>
<path d="M31.6542 -9.38439C32.1699 -8.74289 32.0679 -7.80479 31.4264 -7.2891C30.7849 -6.77341 29.8468 -6.8754 29.3311 -7.5169C28.8154 -8.15841 28.9174 -9.0965 29.5589 -9.61219C30.2004 -10.1279 31.1385 -10.0259 31.6542 -9.38439Z" fill="#848D95"/>
<path d="M38.6235 -14.9869C39.1392 -14.3454 39.0372 -13.4073 38.3957 -12.8916C37.7542 -12.3759 36.8161 -12.4779 36.3004 -13.1194C35.7847 -13.7609 35.8867 -14.699 36.5282 -15.2147C37.1697 -15.7304 38.1078 -15.6284 38.6235 -14.9869Z" fill="#848D95"/>
<path d="M45.5928 -20.5893C46.1085 -19.9478 46.0065 -19.0097 45.365 -18.494C44.7235 -17.9783 43.7854 -18.0803 43.2697 -18.7218C42.754 -19.3633 42.856 -20.3014 43.4975 -20.8171C44.139 -21.3328 45.0771 -21.2308 45.5928 -20.5893Z" fill="#848D95"/>
<path d="M52.5621 -26.1918C53.0778 -25.5503 52.9758 -24.6122 52.3343 -24.0965C51.6928 -23.5808 50.7547 -23.6828 50.239 -24.3243C49.7233 -24.9658 49.8253 -25.9039 50.4668 -26.4196C51.1083 -26.9353 52.0464 -26.8333 52.5621 -26.1918Z" fill="#848D95"/>
<path d="M59.5313 -31.7943C60.047 -31.1528 59.9451 -30.2147 59.3035 -29.699C58.662 -29.1833 57.724 -29.2853 57.2083 -29.9268C56.6926 -30.5683 56.7946 -31.5064 57.4361 -32.0221C58.0776 -32.5378 59.0157 -32.4358 59.5313 -31.7943Z" fill="#848D95"/>
<path d="M66.5006 -37.3967C67.0163 -36.7552 66.9143 -35.8171 66.2728 -35.3014C65.6313 -34.7857 64.6932 -34.8877 64.1775 -35.5292C63.6618 -36.1707 63.7638 -37.1088 64.4053 -37.6245C65.0469 -38.1402 65.9849 -38.0382 66.5006 -37.3967Z" fill="#848D95"/>
<path d="M73.4699 -42.9992C73.9856 -42.3577 73.8836 -41.4196 73.2421 -40.9039C72.6006 -40.3882 71.6625 -40.4902 71.1468 -41.1317C70.6311 -41.7732 70.7331 -42.7113 71.3746 -43.227C72.0161 -43.7427 72.9542 -43.6407 73.4699 -42.9992Z" fill="#848D95"/>
<path d="M80.4392 -48.6017C80.9549 -47.9602 80.8529 -47.0221 80.2114 -46.5064C79.5699 -45.9907 78.6318 -46.0927 78.1161 -46.7342C77.6004 -47.3757 77.7024 -48.3138 78.3439 -48.8295C78.9854 -49.3452 79.9235 -49.2432 80.4392 -48.6017Z" fill="#848D95"/>
<path d="M16.3488 14.3923C16.8645 15.0338 16.7625 15.9719 16.121 16.4876C15.4795 17.0033 14.5414 16.9013 14.0257 16.2598C13.51 15.6183 13.612 14.6802 14.2535 14.1645C14.895 13.6488 15.8331 13.7508 16.3488 14.3923Z" fill="#848D95"/>
<path d="M23.3181 8.78983C23.8338 9.43133 23.7318 10.3694 23.0903 10.8851C22.4488 11.4008 21.5107 11.2988 20.995 10.6573C20.4793 10.0158 20.5813 9.07772 21.2228 8.56202C21.8643 8.04633 22.8024 8.14832 23.3181 8.78983Z" fill="#848D95"/>
<path d="M30.2874 3.18736C30.8031 3.82886 30.7011 4.76696 30.0596 5.28265C29.4181 5.79834 28.48 5.69635 27.9643 5.05485C27.4486 4.41334 27.5506 3.47525 28.1921 2.95956C28.8336 2.44386 29.7717 2.54586 30.2874 3.18736Z" fill="#848D95"/>
<path d="M37.2567 -2.41511C37.7724 -1.7736 37.6704 -0.835508 37.0289 -0.319816C36.3874 0.195877 35.4493 0.0938862 34.9336 -0.547618C34.4179 -1.18912 34.5199 -2.12722 35.1614 -2.64291C35.8029 -3.1586 36.741 -3.05661 37.2567 -2.41511Z" fill="#848D95"/>
<path d="M44.226 -8.01757C44.7417 -7.37607 44.6397 -6.43798 43.9982 -5.92228C43.3567 -5.40659 42.4186 -5.50858 41.9029 -6.15009C41.3872 -6.79159 41.4892 -7.72969 42.1307 -8.24538C42.7722 -8.76107 43.7103 -8.65908 44.226 -8.01757Z" fill="#848D95"/>
<path d="M51.1953 -13.62C51.7109 -12.9785 51.609 -12.0404 50.9674 -11.5248C50.3259 -11.0091 49.3878 -11.111 48.8722 -11.7526C48.3565 -12.3941 48.4585 -13.3322 49.1 -13.8478C49.7415 -14.3635 50.6796 -14.2615 51.1953 -13.62Z" fill="#848D95"/>
<path d="M58.1645 -19.2225C58.6802 -18.581 58.5782 -17.6429 57.9367 -17.1272C57.2952 -16.6115 56.3571 -16.7135 55.8414 -17.355C55.3257 -17.9965 55.4277 -18.9346 56.0692 -19.4503C56.7107 -19.966 57.6488 -19.864 58.1645 -19.2225Z" fill="#848D95"/>
<path d="M65.1338 -24.825C65.6495 -24.1835 65.5475 -23.2454 64.906 -22.7297C64.2645 -22.214 63.3264 -22.316 62.8107 -22.9575C62.295 -23.599 62.397 -24.5371 63.0385 -25.0528C63.68 -25.5685 64.6181 -25.4665 65.1338 -24.825Z" fill="#848D95"/>
<path d="M72.1031 -30.4274C72.6188 -29.7859 72.5168 -28.8478 71.8753 -28.3322C71.2338 -27.8165 70.2957 -27.9184 69.78 -28.56C69.2643 -29.2015 69.3663 -30.1396 70.0078 -30.6552C70.6493 -31.1709 71.5874 -31.0689 72.1031 -30.4274Z" fill="#848D95"/>
<path d="M79.0724 -36.0299C79.5881 -35.3884 79.4861 -34.4503 78.8446 -33.9346C78.2031 -33.4189 77.265 -33.5209 76.7493 -34.1624C76.2336 -34.8039 76.3356 -35.742 76.9771 -36.2577C77.6186 -36.7734 78.5567 -36.6714 79.0724 -36.0299Z" fill="#848D95"/>
<path d="M86.0417 -41.6324C86.5574 -40.9909 86.4554 -40.0528 85.8139 -39.5371C85.1724 -39.0214 84.2343 -39.1234 83.7186 -39.7649C83.2029 -40.4064 83.3049 -41.3445 83.9464 -41.8602C84.5879 -42.3759 85.526 -42.2739 86.0417 -41.6324Z" fill="#848D95"/>
<path d="M21.9513 21.3616C22.467 22.0031 22.365 22.9412 21.7235 23.4569C21.082 23.9726 20.1439 23.8706 19.6282 23.2291C19.1125 22.5876 19.2145 21.6495 19.856 21.1338C20.4975 20.6181 21.4356 20.7201 21.9513 21.3616Z" fill="#848D95"/>
<path d="M28.9206 15.7591C29.4363 16.4006 29.3343 17.3387 28.6928 17.8544C28.0513 18.3701 27.1132 18.2681 26.5975 17.6266C26.0818 16.9851 26.1838 16.047 26.8253 15.5313C27.4668 15.0156 28.4049 15.1176 28.9206 15.7591Z" fill="#848D95"/>
<path d="M35.8899 10.1566C36.4056 10.7981 36.3036 11.7362 35.6621 12.2519C35.0206 12.7676 34.0825 12.6656 33.5668 12.0241C33.0511 11.3826 33.1531 10.4445 33.7946 9.92884C34.4361 9.41315 35.3742 9.51514 35.8899 10.1566Z" fill="#848D95"/>
<path d="M42.8591 4.55418C43.3748 5.19568 43.2729 6.13378 42.6313 6.64947C41.9898 7.16516 41.0517 7.06317 40.5361 6.42167C40.0204 5.78016 40.1224 4.84207 40.7639 4.32637C41.4054 3.81068 42.3435 3.91267 42.8591 4.55418Z" fill="#848D95"/>
<path d="M49.8284 -1.04829C50.3441 -0.406785 50.2421 0.531309 49.6006 1.047C48.9591 1.56269 48.021 1.4607 47.5053 0.8192C46.9896 0.177695 47.0916 -0.760401 47.7331 -1.27609C48.3746 -1.79179 49.3127 -1.68979 49.8284 -1.04829Z" fill="#848D95"/>
<path d="M56.7977 -6.65076C57.3134 -6.00925 57.2114 -5.07116 56.5699 -4.55547C55.9284 -4.03977 54.9903 -4.14176 54.4746 -4.78327C53.9589 -5.42477 54.0609 -6.36287 54.7024 -6.87856C55.3439 -7.39425 56.282 -7.29226 56.7977 -6.65076Z" fill="#848D95"/>
<path d="M63.767 -12.2532C64.2827 -11.6117 64.1807 -10.6736 63.5392 -10.1579C62.8977 -9.64224 61.9596 -9.74423 61.4439 -10.3857C60.9282 -11.0272 61.0302 -11.9653 61.6717 -12.481C62.3132 -12.9967 63.2513 -12.8947 63.767 -12.2532Z" fill="#848D95"/>
<path d="M70.7363 -17.8557C71.252 -17.2142 71.15 -16.2761 70.5085 -15.7604C69.867 -15.2447 68.9289 -15.3467 68.4132 -15.9882C67.8975 -16.6297 67.9995 -17.5678 68.641 -18.0835C69.2825 -18.5992 70.2206 -18.4972 70.7363 -17.8557Z" fill="#848D95"/>
<path d="M77.7056 -23.4582C78.2213 -22.8167 78.1193 -21.8786 77.4778 -21.3629C76.8363 -20.8472 75.8982 -20.9492 75.3825 -21.5907C74.8668 -22.2322 74.9688 -23.1703 75.6103 -23.686C76.2518 -24.2017 77.1899 -24.0997 77.7056 -23.4582Z" fill="#848D95"/>
<path d="M84.6749 -29.0606C85.1905 -28.4191 85.0886 -27.481 84.4471 -26.9653C83.8055 -26.4496 82.8675 -26.5516 82.3518 -27.1931C81.8361 -27.8346 81.9381 -28.7727 82.5796 -29.2884C83.2211 -29.8041 84.1592 -29.7021 84.6749 -29.0606Z" fill="#848D95"/>
<path d="M91.6441 -34.6631C92.1598 -34.0216 92.0578 -33.0835 91.4163 -32.5678C90.7748 -32.0521 89.8367 -32.1541 89.321 -32.7956C88.8054 -33.4371 88.9073 -34.3752 89.5488 -34.8909C90.1904 -35.4066 91.1284 -35.3046 91.6441 -34.6631Z" fill="#848D95"/>
<path d="M27.5538 28.3309C28.0695 28.9724 27.9675 29.9105 27.326 30.4262C26.6845 30.9418 25.7464 30.8399 25.2307 30.1984C24.715 29.5568 24.817 28.6188 25.4585 28.1031C26.1 27.5874 27.0381 27.6894 27.5538 28.3309Z" fill="#848D95"/>
<path d="M34.523 22.7284C35.0387 23.3699 34.9367 24.308 34.2952 24.8237C33.6537 25.3394 32.7156 25.2374 32.2 24.5959C31.6843 23.9544 31.7863 23.0163 32.4278 22.5006C33.0693 21.9849 34.0074 22.0869 34.523 22.7284Z" fill="#848D95"/>
<path d="M41.4923 17.1259C42.008 17.7674 41.906 18.7055 41.2645 19.2212C40.623 19.7369 39.6849 19.6349 39.1692 18.9934C38.6535 18.3519 38.7555 17.4138 39.397 16.8981C40.0385 16.3824 40.9766 16.4844 41.4923 17.1259Z" fill="#848D95"/>
<path d="M48.4616 11.5235C48.9773 12.165 48.8753 13.1031 48.2338 13.6188C47.5923 14.1344 46.6542 14.0325 46.1385 13.3909C45.6228 12.7494 45.7248 11.8114 46.3663 11.2957C47.0078 10.78 47.9459 10.882 48.4616 11.5235Z" fill="#848D95"/>
<path d="M55.4309 5.92099C55.9466 6.5625 55.8446 7.50059 55.2031 8.01629C54.5616 8.53198 53.6235 8.42999 53.1078 7.78848C52.5921 7.14698 52.6941 6.20888 53.3356 5.69319C53.9771 5.1775 54.9152 5.27949 55.4309 5.92099Z" fill="#848D95"/>
<path d="M62.4002 0.318526C62.9159 0.960032 62.8139 1.89812 62.1724 2.41382C61.5309 2.92951 60.5928 2.82752 60.0771 2.18602C59.5614 1.54451 59.6634 0.606417 60.3049 0.0907233C60.9464 -0.424971 61.8845 -0.322977 62.4002 0.318526Z" fill="#848D95"/>
<path d="M69.3695 -5.28394C69.8852 -4.64244 69.7832 -3.70434 69.1417 -3.18865C68.5002 -2.67296 67.5621 -2.77495 67.0464 -3.41645C66.5307 -4.05796 66.6327 -4.99605 67.2742 -5.51174C67.9157 -6.02744 68.8538 -5.92544 69.3695 -5.28394Z" fill="#848D95"/>
<path d="M76.3388 -10.8864C76.8544 -10.2449 76.7525 -9.30681 76.1109 -8.79111C75.4694 -8.27542 74.5314 -8.37741 74.0157 -9.01892C73.5 -9.66042 73.602 -10.5985 74.2435 -11.1142C74.885 -11.6299 75.8231 -11.5279 76.3388 -10.8864Z" fill="#848D95"/>
<path d="M83.308 -16.4889C83.8237 -15.8474 83.7217 -14.9093 83.0802 -14.3936C82.4387 -13.8779 81.5006 -13.9799 80.9849 -14.6214C80.4693 -15.2629 80.5712 -16.201 81.2127 -16.7167C81.8543 -17.2324 82.7923 -17.1304 83.308 -16.4889Z" fill="#848D95"/>
<path d="M90.2773 -22.0913C90.793 -21.4498 90.691 -20.5117 90.0495 -19.9961C89.408 -19.4804 88.4699 -19.5823 87.9542 -20.2239C87.4385 -20.8654 87.5405 -21.8035 88.182 -22.3191C88.8235 -22.8348 89.7616 -22.7328 90.2773 -22.0913Z" fill="#848D95"/>
<path d="M97.2466 -27.6938C97.7623 -27.0523 97.6603 -26.1142 97.0188 -25.5985C96.3773 -25.0828 95.4392 -25.1848 94.9235 -25.8263C94.4078 -26.4678 94.5098 -27.4059 95.1513 -27.9216C95.7928 -28.4373 96.7309 -28.3353 97.2466 -27.6938Z" fill="#848D95"/>
<path d="M33.1562 35.3001C33.6719 35.9417 33.5699 36.8797 32.9284 37.3954C32.2869 37.9111 31.3488 37.8091 30.8331 37.1676C30.3174 36.5261 30.4194 35.588 31.0609 35.0723C31.7024 34.5567 32.6405 34.6586 33.1562 35.3001Z" fill="#848D95"/>
<path d="M40.1255 29.6977C40.6412 30.3392 40.5392 31.2773 39.8977 31.793C39.2562 32.3087 38.3181 32.2067 37.8024 31.5652C37.2867 30.9237 37.3887 29.9856 38.0302 29.4699C38.6717 28.9542 39.6098 29.0562 40.1255 29.6977Z" fill="#848D95"/>
<path d="M47.0948 24.0952C47.6105 24.7367 47.5085 25.6748 46.867 26.1905C46.2255 26.7062 45.2874 26.6042 44.7717 25.9627C44.256 25.3212 44.358 24.3831 44.9995 23.8674C45.641 23.3517 46.5791 23.4537 47.0948 24.0952Z" fill="#848D95"/>
<path d="M54.0641 18.4927C54.5798 19.1343 54.4778 20.0723 53.8363 20.588C53.1948 21.1037 52.2567 21.0017 51.741 20.3602C51.2253 19.7187 51.3273 18.7806 51.9688 18.2649C52.6103 17.7493 53.5484 17.8512 54.0641 18.4927Z" fill="#848D95"/>
<path d="M61.0334 12.8903C61.5491 13.5318 61.4471 14.4699 60.8056 14.9856C60.1641 15.5013 59.226 15.3993 58.7103 14.7578C58.1946 14.1163 58.2966 13.1782 58.9381 12.6625C59.5796 12.1468 60.5177 12.2488 61.0334 12.8903Z" fill="#848D95"/>
<path d="M68.0027 7.28781C68.5183 7.92932 68.4164 8.86741 67.7748 9.3831C67.1333 9.8988 66.1953 9.79681 65.6796 9.1553C65.1639 8.51379 65.2659 7.5757 65.9074 7.06001C66.5489 6.54431 67.487 6.6463 68.0027 7.28781Z" fill="#848D95"/>
<path d="M74.9719 1.68534C75.4876 2.32685 75.3856 3.26494 74.7441 3.78064C74.1026 4.29633 73.1645 4.19434 72.6488 3.55283C72.1331 2.91133 72.2351 1.97323 72.8766 1.45754C73.5181 0.941849 74.4562 1.04384 74.9719 1.68534Z" fill="#848D95"/>
<path d="M81.9412 -3.91712C82.4569 -3.27562 82.3549 -2.33753 81.7134 -1.82183C81.0719 -1.30614 80.1338 -1.40813 79.6181 -2.04964C79.1024 -2.69114 79.2044 -3.62923 79.8459 -4.14493C80.4874 -4.66062 81.4255 -4.55863 81.9412 -3.91712Z" fill="#848D95"/>
<path d="M88.9105 -9.51959C89.4262 -8.87808 89.3242 -7.93999 88.6827 -7.4243C88.0412 -6.90861 87.1031 -7.01059 86.5874 -7.6521C86.0717 -8.29361 86.1737 -9.2317 86.8152 -9.74739C87.4567 -10.2631 88.3948 -10.1611 88.9105 -9.51959Z" fill="#848D95"/>
<path d="M95.8798 -15.1221C96.3955 -14.4806 96.2935 -13.5425 95.652 -13.0268C95.0105 -12.5111 94.0724 -12.6131 93.5567 -13.2546C93.041 -13.8961 93.143 -14.8342 93.7845 -15.3499C94.426 -15.8656 95.3641 -15.7636 95.8798 -15.1221Z" fill="#848D95"/>
<path d="M102.849 -20.7245C103.365 -20.083 103.263 -19.1449 102.621 -18.6292C101.98 -18.1135 101.042 -18.2155 100.526 -18.857C100.01 -19.4985 100.112 -20.4366 100.754 -20.9523C101.395 -21.468 102.333 -21.366 102.849 -20.7245Z" fill="#848D95"/>
<path d="M38.7587 42.2694C39.2744 42.9109 39.1724 43.849 38.5309 44.3647C37.8894 44.8804 36.9513 44.7784 36.4356 44.1369C35.9199 43.4954 36.0219 42.5573 36.6634 42.0416C37.3049 41.5259 38.243 41.6279 38.7587 42.2694Z" fill="#848D95"/>
<path d="M45.728 36.667C46.2437 37.3085 46.1417 38.2466 45.5002 38.7623C44.8587 39.278 43.9206 39.176 43.4049 38.5345C42.8892 37.8929 42.9912 36.9549 43.6327 36.4392C44.2742 35.9235 45.2123 36.0255 45.728 36.667Z" fill="#848D95"/>
<path d="M52.6973 31.0645C53.213 31.706 53.111 32.6441 52.4695 33.1598C51.828 33.6755 50.8899 33.5735 50.3742 32.932C49.8585 32.2905 49.9605 31.3524 50.602 30.8367C51.2435 30.321 52.1816 30.423 52.6973 31.0645Z" fill="#848D95"/>
<path d="M59.6666 25.462C60.1822 26.1035 60.0803 27.0416 59.4387 27.5573C58.7972 28.073 57.8591 27.971 57.3435 27.3295C56.8278 26.688 56.9298 25.7499 57.5713 25.2342C58.2128 24.7185 59.1509 24.8205 59.6666 25.462Z" fill="#848D95"/>
<path d="M66.6358 19.8596C67.1515 20.5011 67.0495 21.4392 66.408 21.9549C65.7665 22.4705 64.8284 22.3686 64.3127 21.7271C63.797 21.0855 63.899 20.1475 64.5405 19.6318C65.182 19.1161 66.1201 19.2181 66.6358 19.8596Z" fill="#848D95"/>
<path d="M73.6051 14.2571C74.1208 14.8986 74.0188 15.8367 73.3773 16.3524C72.7358 16.8681 71.7977 16.7661 71.282 16.1246C70.7663 15.4831 70.8683 14.545 71.5098 14.0293C72.1513 13.5136 73.0894 13.6156 73.6051 14.2571Z" fill="#848D95"/>
<path d="M80.5744 8.65463C81.0901 9.29613 80.9881 10.2342 80.3466 10.7499C79.7051 11.2656 78.767 11.1636 78.2513 10.5221C77.7356 9.88061 77.8376 8.94252 78.4791 8.42683C79.1206 7.91113 80.0587 8.01312 80.5744 8.65463Z" fill="#848D95"/>
<path d="M87.5437 3.05216C88.0594 3.69367 87.9574 4.63176 87.3159 5.14745C86.6744 5.66315 85.7363 5.56115 85.2206 4.91965C84.7049 4.27814 84.8069 3.34005 85.4484 2.82436C86.0899 2.30866 87.028 2.41066 87.5437 3.05216Z" fill="#848D95"/>
<path d="M94.513 -2.55031C95.0287 -1.9088 94.9267 -0.970709 94.2852 -0.455013C93.6437 0.0606785 92.7056 -0.0413126 92.1899 -0.682816C91.6742 -1.32432 91.7762 -2.26242 92.4177 -2.77811C93.0592 -3.2938 93.9973 -3.19181 94.513 -2.55031Z" fill="#848D95"/>
<path d="M101.482 -8.15277C101.998 -7.51127 101.896 -6.57317 101.254 -6.05748C100.613 -5.54179 99.6749 -5.64378 99.1592 -6.28528C98.6435 -6.92679 98.7455 -7.86488 99.387 -8.38058C100.028 -8.89627 100.967 -8.79428 101.482 -8.15277Z" fill="#848D95"/>
<path d="M108.452 -13.7552C108.967 -13.1137 108.865 -12.1756 108.224 -11.6599C107.582 -11.1443 106.644 -11.2462 106.128 -11.8878C105.613 -12.5293 105.715 -13.4674 106.356 -13.983C106.998 -14.4987 107.936 -14.3967 108.452 -13.7552Z" fill="#848D95"/>
<path d="M44.3612 49.2387C44.8769 49.8802 44.7749 50.8183 44.1334 51.334C43.4919 51.8497 42.5538 51.7477 42.0381 51.1062C41.5224 50.4647 41.6244 49.5266 42.2659 49.0109C42.9074 48.4952 43.8455 48.5972 44.3612 49.2387Z" fill="#848D95"/>
<path d="M51.3304 43.6362C51.8461 44.2778 51.7442 45.2158 51.1026 45.7315C50.4611 46.2472 49.523 46.1452 49.0074 45.5037C48.4917 44.8622 48.5937 43.9241 49.2352 43.4084C49.8767 42.8928 50.8148 42.9947 51.3304 43.6362Z" fill="#848D95"/>
<path d="M58.2997 38.0338C58.8154 38.6753 58.7134 39.6134 58.0719 40.1291C57.4304 40.6448 56.4923 40.5428 55.9766 39.9013C55.4609 39.2598 55.5629 38.3217 56.2044 37.806C56.8459 37.2903 57.784 37.3923 58.2997 38.0338Z" fill="#848D95"/>
<path d="M65.269 32.4313C65.7847 33.0728 65.6827 34.0109 65.0412 34.5266C64.3997 35.0423 63.4616 34.9403 62.9459 34.2988C62.4302 33.6573 62.5322 32.7192 63.1737 32.2035C63.8152 31.6878 64.7533 31.7898 65.269 32.4313Z" fill="#848D95"/>
<path d="M72.2383 26.8288C72.754 27.4704 72.652 28.4084 72.0105 28.9241C71.369 29.4398 70.4309 29.3378 69.9152 28.6963C69.3995 28.0548 69.5015 27.1167 70.143 26.601C70.7845 26.0854 71.7226 26.1873 72.2383 26.8288Z" fill="#848D95"/>
<path d="M79.2076 21.2264C79.7233 21.8679 79.6213 22.806 78.9798 23.3217C78.3383 23.8374 77.4002 23.7354 76.8845 23.0939C76.3688 22.4524 76.4708 21.5143 77.1123 20.9986C77.7538 20.4829 78.6919 20.5849 79.2076 21.2264Z" fill="#848D95"/>
<path d="M86.1769 15.6239C86.6926 16.2654 86.5906 17.2035 85.9491 17.7192C85.3076 18.2349 84.3695 18.1329 83.8538 17.4914C83.3381 16.8499 83.4401 15.9118 84.0816 15.3961C84.7231 14.8804 85.6612 14.9824 86.1769 15.6239Z" fill="#848D95"/>
<path d="M93.1462 10.0214C93.6618 10.663 93.5599 11.601 92.9183 12.1167C92.2768 12.6324 91.3388 12.5304 90.8231 11.8889C90.3074 11.2474 90.4094 10.3093 91.0509 9.79364C91.6924 9.27795 92.6305 9.37994 93.1462 10.0214Z" fill="#848D95"/>
<path d="M100.115 4.41898C100.631 5.06049 100.529 5.99857 99.8876 6.51427C99.2461 7.02996 98.308 6.92798 97.7923 6.28647C97.2767 5.64496 97.3786 4.70687 98.0201 4.19118C98.6617 3.67548 99.5997 3.77747 100.115 4.41898Z" fill="#848D95"/>
<path d="M107.085 -1.18349C107.6 -0.541982 107.498 0.39611 106.857 0.911801C106.215 1.42749 105.277 1.32551 104.762 0.683998C104.246 0.0424952 104.348 -0.895599 104.989 -1.41129C105.631 -1.92698 106.569 -1.82499 107.085 -1.18349Z" fill="#848D95"/>
<path d="M114.054 -6.78596C114.57 -6.14445 114.468 -5.20636 113.826 -4.69067C113.185 -4.17498 112.247 -4.27696 111.731 -4.91847C111.215 -5.55997 111.317 -6.49807 111.959 -7.01376C112.6 -7.52945 113.538 -7.42746 114.054 -6.78596Z" fill="#848D95"/>
<path d="M49.9636 56.208C50.4793 56.8495 50.3773 57.7876 49.7358 58.3033C49.0943 58.819 48.1562 58.717 47.6405 58.0755C47.1248 57.434 47.2268 56.4959 47.8683 55.9802C48.5098 55.4645 49.4479 55.5665 49.9636 56.208Z" fill="#848D95"/>
<path d="M56.9329 50.6055C57.4486 51.247 57.3466 52.1851 56.7051 52.7008C56.0636 53.2165 55.1255 53.1145 54.6098 52.473C54.0941 51.8315 54.1961 50.8934 54.8376 50.3777C55.4791 49.862 56.4172 49.964 56.9329 50.6055Z" fill="#848D95"/>
<path d="M63.9022 45.0031C64.4179 45.6446 64.3159 46.5827 63.6744 47.0984C63.0329 47.6141 62.0948 47.5121 61.5791 46.8706C61.0634 46.2291 61.1654 45.291 61.8069 44.7753C62.4484 44.2596 63.3865 44.3616 63.9022 45.0031Z" fill="#848D95"/>
<path d="M70.8715 39.4006C71.3872 40.0421 71.2852 40.9802 70.6437 41.4959C70.0022 42.0116 69.0641 41.9096 68.5484 41.2681C68.0327 40.6266 68.1347 39.6885 68.7762 39.1728C69.4177 38.6571 70.3558 38.7591 70.8715 39.4006Z" fill="#848D95"/>
<path d="M77.8408 33.7981C78.3565 34.4396 78.2545 35.3777 77.613 35.8934C76.9715 36.4091 76.0334 36.3071 75.5177 35.6656C75.002 35.0241 75.104 34.086 75.7455 33.5703C76.387 33.0546 77.3251 33.1566 77.8408 33.7981Z" fill="#848D95"/>
<path d="M84.8101 28.1957C85.3257 28.8372 85.2238 29.7753 84.5823 30.291C83.9407 30.8066 83.0027 30.7047 82.487 30.0632C81.9713 29.4216 82.0733 28.4836 82.7148 27.9679C83.3563 27.4522 84.2944 27.5542 84.8101 28.1957Z" fill="#848D95"/>
<path d="M91.7793 22.5932C92.295 23.2347 92.193 24.1728 91.5515 24.6885C90.91 25.2042 89.9719 25.1022 89.4562 24.4607C88.9406 23.8192 89.0425 22.8811 89.684 22.3654C90.3255 21.8497 91.2636 21.9517 91.7793 22.5932Z" fill="#848D95"/>
<path d="M98.7486 16.9907C99.2643 17.6322 99.1623 18.5703 98.5208 19.086C97.8793 19.6017 96.9412 19.4997 96.4255 18.8582C95.9098 18.2167 96.0118 17.2786 96.6533 16.7629C97.2948 16.2472 98.2329 16.3492 98.7486 16.9907Z" fill="#848D95"/>
<path d="M105.718 11.3883C106.234 12.0298 106.132 12.9679 105.49 13.4836C104.849 13.9992 103.911 13.8973 103.395 13.2558C102.879 12.6142 102.981 11.6762 103.623 11.1605C104.264 10.6448 105.202 10.7468 105.718 11.3883Z" fill="#848D95"/>
<path d="M112.687 5.78579C113.203 6.4273 113.101 7.36539 112.459 7.88109C111.818 8.39678 110.88 8.29479 110.364 7.65328C109.848 7.01178 109.95 6.07368 110.592 5.55799C111.233 5.0423 112.171 5.14429 112.687 5.78579Z" fill="#848D95"/>
<path d="M119.656 0.183326C120.172 0.824835 120.07 1.76293 119.429 2.27862C118.787 2.79431 117.849 2.69232 117.333 2.05082C116.818 1.40931 116.92 0.471215 117.561 -0.0444767C118.203 -0.560168 119.141 -0.458177 119.656 0.183326Z" fill="#848D95"/>
</g>
</svg>
