<svg width="113" height="56" viewBox="0 0 113 56" fill="none" xmlns="http://www.w3.org/2000/svg">
<mask id="mask0" style="mask-type:alpha" maskUnits="userSpaceOnUse" x="0" y="0" width="113" height="56">
<path d="M67.996 0.614258L112.542 55.6143H0.29921L67.996 0.614258Z" fill="#C4C4C4"/>
</mask>
<g mask="url(#mask0)">
<path d="M107.914 55.7614C107.441 55.1733 107.535 54.3134 108.123 53.8407C108.711 53.368 109.571 53.4615 110.044 54.0495C110.516 54.6376 110.423 55.4975 109.835 55.9702C109.247 56.4429 108.387 56.3494 107.914 55.7614Z" fill="#848D95"/>
<path d="M101.526 60.897C101.053 60.3089 101.146 59.449 101.735 58.9763C102.323 58.5036 103.182 58.5971 103.655 59.1851C104.128 59.7731 104.034 60.6331 103.446 61.1058C102.858 61.5785 101.998 61.485 101.526 60.897Z" fill="#848D95"/>
<path d="M95.1372 66.0326C94.6645 65.4445 94.758 64.5846 95.346 64.1119C95.934 63.6392 96.794 63.7327 97.2667 64.3207C97.7394 64.9087 97.6459 65.7687 97.0579 66.2414C96.4698 66.7141 95.6099 66.6206 95.1372 66.0326Z" fill="#848D95"/>
<path d="M88.7487 71.1682C88.276 70.5801 88.3694 69.7202 88.9575 69.2475C89.5455 68.7748 90.4055 68.8682 90.8782 69.4563C91.3509 70.0443 91.2574 70.9043 90.6694 71.377C90.0813 71.8497 89.2214 71.7562 88.7487 71.1682Z" fill="#848D95"/>
<path d="M82.3602 76.3038C81.8874 75.7157 81.9809 74.8558 82.569 74.3831C83.157 73.9104 84.0169 74.0038 84.4897 74.5919C84.9624 75.1799 84.8689 76.0399 84.2808 76.5126C83.6928 76.9853 82.8329 76.8918 82.3602 76.3038Z" fill="#848D95"/>
<path d="M75.9716 81.4393C75.4989 80.8513 75.5924 79.9914 76.1805 79.5187C76.7685 79.0459 77.6284 79.1394 78.1012 79.7275C78.5739 80.3155 78.4804 81.1755 77.8923 81.6482C77.3043 82.1209 76.4444 82.0274 75.9716 81.4393Z" fill="#848D95"/>
<path d="M69.5831 86.5749C69.1104 85.9869 69.2039 85.127 69.792 84.6543C70.38 84.1815 71.2399 84.275 71.7126 84.8631C72.1854 85.4511 72.0919 86.311 71.5038 86.7838C70.9158 87.2565 70.0559 87.163 69.5831 86.5749Z" fill="#848D95"/>
<path d="M63.1946 91.7105C62.7219 91.1225 62.8154 90.2626 63.4034 89.7899C63.9915 89.3171 64.8514 89.4106 65.3241 89.9987C65.7968 90.5867 65.7034 91.4466 65.1153 91.9194C64.5273 92.3921 63.6673 92.2986 63.1946 91.7105Z" fill="#848D95"/>
<path d="M56.8061 96.8461C56.3334 96.2581 56.4269 95.3982 57.0149 94.9255C57.603 94.4527 58.4629 94.5462 58.9356 95.1343C59.4083 95.7223 59.3148 96.5822 58.7268 97.055C58.1388 97.5277 57.2788 97.4342 56.8061 96.8461Z" fill="#848D95"/>
<path d="M50.4176 101.982C49.9449 101.394 50.0384 100.534 50.6264 100.061C51.2145 99.5883 52.0744 99.6818 52.5471 100.27C53.0198 100.858 52.9263 101.718 52.3383 102.191C51.7502 102.663 50.8903 102.57 50.4176 101.982Z" fill="#848D95"/>
<path d="M44.0291 107.117C43.5564 106.529 43.6499 105.669 44.2379 105.197C44.826 104.724 45.6859 104.817 46.1586 105.405C46.6313 105.994 46.5378 106.853 45.9498 107.326C45.3617 107.799 44.5018 107.705 44.0291 107.117Z" fill="#848D95"/>
<path d="M102.779 49.3729C102.306 48.7848 102.399 47.9249 102.987 47.4522C103.575 46.9795 104.435 47.0729 104.908 47.661C105.381 48.249 105.287 49.109 104.699 49.5817C104.111 50.0544 103.251 49.9609 102.779 49.3729Z" fill="#848D95"/>
<path d="M96.3901 54.5085C95.9174 53.9204 96.0109 53.0605 96.5989 52.5878C97.187 52.1151 98.0469 52.2085 98.5196 52.7966C98.9923 53.3846 98.8988 54.2446 98.3108 54.7173C97.7227 55.19 96.8628 55.0965 96.3901 54.5085Z" fill="#848D95"/>
<path d="M90.0016 59.6441C89.5289 59.056 89.6224 58.1961 90.2104 57.7234C90.7985 57.2506 91.6584 57.3441 92.1311 57.9322C92.6038 58.5202 92.5103 59.3802 91.9223 59.8529C91.3342 60.3256 90.4743 60.2321 90.0016 59.6441Z" fill="#848D95"/>
<path d="M83.6131 64.7796C83.1404 64.1916 83.2338 63.3317 83.8219 62.859C84.4099 62.3862 85.2699 62.4797 85.7426 63.0678C86.2153 63.6558 86.1218 64.5157 85.5338 64.9885C84.9457 65.4612 84.0858 65.3677 83.6131 64.7796Z" fill="#848D95"/>
<path d="M77.2246 69.9152C76.7518 69.3272 76.8453 68.4673 77.4334 67.9946C78.0214 67.5218 78.8813 67.6153 79.3541 68.2034C79.8268 68.7914 79.7333 69.6513 79.1452 70.1241C78.5572 70.5968 77.6973 70.5033 77.2246 69.9152Z" fill="#848D95"/>
<path d="M70.8361 75.0508C70.3633 74.4628 70.4568 73.6029 71.0449 73.1302C71.6329 72.6574 72.4928 72.7509 72.9656 73.339C73.4383 73.927 73.3448 74.7869 72.7567 75.2597C72.1687 75.7324 71.3088 75.6389 70.8361 75.0508Z" fill="#848D95"/>
<path d="M64.4475 80.1864C63.9748 79.5984 64.0683 78.7385 64.6564 78.2658C65.2444 77.793 66.1043 77.8865 66.577 78.4746C67.0498 79.0626 66.9563 79.9225 66.3682 80.3953C65.7802 80.868 64.9203 80.7745 64.4475 80.1864Z" fill="#848D95"/>
<path d="M58.059 85.322C57.5863 84.734 57.6798 83.8741 58.2678 83.4013C58.8559 82.9286 59.7158 83.0221 60.1885 83.6102C60.6613 84.1982 60.5678 85.0581 59.9797 85.5308C59.3917 86.0036 58.5317 85.9101 58.059 85.322Z" fill="#848D95"/>
<path d="M51.6705 90.4576C51.1978 89.8696 51.2913 89.0097 51.8793 88.5369C52.4674 88.0642 53.3273 88.1577 53.8 88.7458C54.2727 89.3338 54.1792 90.1937 53.5912 90.6664C53.0032 91.1392 52.1432 91.0457 51.6705 90.4576Z" fill="#848D95"/>
<path d="M45.282 95.5932C44.8093 95.0052 44.9028 94.1453 45.4908 93.6725C46.0789 93.1998 46.9388 93.2933 47.4115 93.8814C47.8842 94.4694 47.7907 95.3293 47.2027 95.802C46.6146 96.2748 45.7547 96.1813 45.282 95.5932Z" fill="#848D95"/>
<path d="M38.8935 100.729C38.4208 100.141 38.5143 99.2809 39.1023 98.8081C39.6904 98.3354 40.5503 98.4289 41.023 99.017C41.4957 99.605 41.4022 100.465 40.8142 100.938C40.2261 101.41 39.3662 101.317 38.8935 100.729Z" fill="#848D95"/>
<path d="M97.643 42.9843C97.1703 42.3963 97.2638 41.5364 97.8518 41.0637C98.4399 40.5909 99.2998 40.6844 99.7725 41.2725C100.245 41.8605 100.152 42.7204 99.5637 43.1932C98.9757 43.6659 98.1157 43.5724 97.643 42.9843Z" fill="#848D95"/>
<path d="M91.2545 48.1199C90.7818 47.5319 90.8753 46.672 91.4633 46.1993C92.0514 45.7265 92.9113 45.82 93.384 46.4081C93.8567 46.9961 93.7632 47.856 93.1752 48.3288C92.5871 48.8015 91.7272 48.708 91.2545 48.1199Z" fill="#848D95"/>
<path d="M84.866 53.2555C84.3933 52.6675 84.4868 51.8076 85.0748 51.3349C85.6629 50.8621 86.5228 50.9556 86.9955 51.5437C87.4682 52.1317 87.3747 52.9916 86.7867 53.4644C86.1986 53.9371 85.3387 53.8436 84.866 53.2555Z" fill="#848D95"/>
<path d="M78.4775 58.3911C78.0048 57.8031 78.0983 56.9432 78.6863 56.4705C79.2743 55.9977 80.1343 56.0912 80.607 56.6793C81.0797 57.2673 80.9862 58.1272 80.3982 58.6C79.8101 59.0727 78.9502 58.9792 78.4775 58.3911Z" fill="#848D95"/>
<path d="M72.089 63.5267C71.6162 62.9387 71.7097 62.0788 72.2978 61.606C72.8858 61.1333 73.7458 61.2268 74.2185 61.8149C74.6912 62.4029 74.5977 63.2628 74.0097 63.7356C73.4216 64.2083 72.5617 64.1148 72.089 63.5267Z" fill="#848D95"/>
<path d="M65.7005 68.6623C65.2277 68.0743 65.3212 67.2144 65.9093 66.7416C66.4973 66.2689 67.3572 66.3624 67.83 66.9505C68.3027 67.5385 68.2092 68.3984 67.6211 68.8711C67.0331 69.3439 66.1732 69.2504 65.7005 68.6623Z" fill="#848D95"/>
<path d="M59.3119 73.7979C58.8392 73.2099 58.9327 72.35 59.5208 71.8772C60.1088 71.4045 60.9687 71.498 61.4415 72.0861C61.9142 72.6741 61.8207 73.534 61.2326 74.0067C60.6446 74.4795 59.7847 74.386 59.3119 73.7979Z" fill="#848D95"/>
<path d="M52.9234 78.9335C52.4507 78.3455 52.5442 77.4856 53.1323 77.0128C53.7203 76.5401 54.5802 76.6336 55.0529 77.2217C55.5257 77.8097 55.4322 78.6696 54.8441 79.1423C54.2561 79.6151 53.3962 79.5216 52.9234 78.9335Z" fill="#848D95"/>
<path d="M46.5349 84.0691C46.0622 83.4811 46.1557 82.6211 46.7437 82.1484C47.3318 81.6757 48.1917 81.7692 48.6644 82.3572C49.1371 82.9453 49.0437 83.8052 48.4556 84.2779C47.8676 84.7507 47.0076 84.6572 46.5349 84.0691Z" fill="#848D95"/>
<path d="M40.1464 89.2047C39.6737 88.6167 39.7672 87.7567 40.3552 87.284C40.9433 86.8113 41.8032 86.9048 42.2759 87.4928C42.7486 88.0809 42.6551 88.9408 42.0671 89.4135C41.479 89.8862 40.6191 89.7928 40.1464 89.2047Z" fill="#848D95"/>
<path d="M33.7579 94.3403C33.2852 93.7523 33.3787 92.8923 33.9667 92.4196C34.5548 91.9469 35.4147 92.0404 35.8874 92.6284C36.3601 93.2165 36.2666 94.0764 35.6786 94.5491C35.0905 95.0218 34.2306 94.9284 33.7579 94.3403Z" fill="#848D95"/>
<path d="M92.5074 36.5958C92.0347 36.0078 92.1282 35.1479 92.7162 34.6752C93.3043 34.2024 94.1642 34.2959 94.6369 34.884C95.1096 35.472 95.0161 36.3319 94.4281 36.8047C93.8401 37.2774 92.9801 37.1839 92.5074 36.5958Z" fill="#848D95"/>
<path d="M86.1189 41.7314C85.6462 41.1434 85.7397 40.2835 86.3277 39.8108C86.9158 39.338 87.7757 39.4315 88.2484 40.0196C88.7211 40.6076 88.6276 41.4675 88.0396 41.9403C87.4515 42.413 86.5916 42.3195 86.1189 41.7314Z" fill="#848D95"/>
<path d="M79.7304 46.867C79.2577 46.279 79.3512 45.4191 79.9392 44.9463C80.5273 44.4736 81.3872 44.5671 81.8599 45.1552C82.3326 45.7432 82.2391 46.6031 81.6511 47.0758C81.063 47.5486 80.2031 47.4551 79.7304 46.867Z" fill="#848D95"/>
<path d="M73.3419 52.0026C72.8692 51.4146 72.9627 50.5547 73.5507 50.0819C74.1388 49.6092 74.9987 49.7027 75.4714 50.2908C75.9441 50.8788 75.8506 51.7387 75.2626 52.2114C74.6745 52.6842 73.8146 52.5907 73.3419 52.0026Z" fill="#848D95"/>
<path d="M66.9534 57.1382C66.4807 56.5502 66.5741 55.6903 67.1622 55.2175C67.7502 54.7448 68.6102 54.8383 69.0829 55.4264C69.5556 56.0144 69.4621 56.8743 68.8741 57.347C68.286 57.8198 67.4261 57.7263 66.9534 57.1382Z" fill="#848D95"/>
<path d="M60.5649 62.2738C60.0921 61.6858 60.1856 60.8259 60.7737 60.3531C61.3617 59.8804 62.2216 59.9739 62.6944 60.562C63.1671 61.15 63.0736 62.0099 62.4855 62.4826C61.8975 62.9554 61.0376 62.8619 60.5649 62.2738Z" fill="#848D95"/>
<path d="M54.1763 67.4094C53.7036 66.8214 53.7971 65.9614 54.3852 65.4887C54.9732 65.016 55.8331 65.1095 56.3059 65.6975C56.7786 66.2856 56.6851 67.1455 56.097 67.6182C55.509 68.091 54.6491 67.9975 54.1763 67.4094Z" fill="#848D95"/>
<path d="M47.7878 72.545C47.3151 71.957 47.4086 71.097 47.9967 70.6243C48.5847 70.1516 49.4446 70.2451 49.9173 70.8331C50.3901 71.4212 50.2966 72.2811 49.7085 72.7538C49.1205 73.2265 48.2606 73.1331 47.7878 72.545Z" fill="#848D95"/>
<path d="M41.3993 77.6806C40.9266 77.0926 41.0201 76.2326 41.6081 75.7599C42.1962 75.2872 43.0561 75.3807 43.5288 75.9687C44.0016 76.5568 43.9081 77.4167 43.32 77.8894C42.732 78.3621 41.872 78.2687 41.3993 77.6806Z" fill="#848D95"/>
<path d="M35.0108 82.8162C34.5381 82.2282 34.6316 81.3682 35.2196 80.8955C35.8077 80.4228 36.6676 80.5163 37.1403 81.1043C37.613 81.6924 37.5195 82.5523 36.9315 83.025C36.3435 83.4977 35.4835 83.4042 35.0108 82.8162Z" fill="#848D95"/>
<path d="M28.6223 87.9518C28.1496 87.3638 28.2431 86.5038 28.8311 86.0311C29.4192 85.5584 30.2791 85.6519 30.7518 86.2399C31.2245 86.828 31.131 87.6879 30.543 88.1606C29.9549 88.6333 29.095 88.5398 28.6223 87.9518Z" fill="#848D95"/>
<path d="M87.3718 30.2073C86.8991 29.6193 86.9926 28.7594 87.5806 28.2866C88.1687 27.8139 89.0286 27.9074 89.5013 28.4955C89.974 29.0835 89.8806 29.9434 89.2925 30.4161C88.7045 30.8889 87.8445 30.7954 87.3718 30.2073Z" fill="#848D95"/>
<path d="M80.9833 35.3429C80.5106 34.7549 80.6041 33.895 81.1921 33.4222C81.7802 32.9495 82.6401 33.043 83.1128 33.6311C83.5855 34.2191 83.492 35.079 82.904 35.5517C82.3159 36.0245 81.456 35.931 80.9833 35.3429Z" fill="#848D95"/>
<path d="M74.5948 40.4785C74.1221 39.8905 74.2156 39.0306 74.8036 38.5578C75.3917 38.0851 76.2516 38.1786 76.7243 38.7667C77.197 39.3547 77.1035 40.2146 76.5155 40.6873C75.9274 41.1601 75.0675 41.0666 74.5948 40.4785Z" fill="#848D95"/>
<path d="M68.2063 45.6141C67.7336 45.0261 67.8271 44.1661 68.4151 43.6934C69.0032 43.2207 69.8631 43.3142 70.3358 43.9022C70.8085 44.4903 70.715 45.3502 70.127 45.8229C69.5389 46.2957 68.679 46.2022 68.2063 45.6141Z" fill="#848D95"/>
<path d="M61.8178 50.7497C61.3451 50.1617 61.4385 49.3017 62.0266 48.829C62.6146 48.3563 63.4746 48.4498 63.9473 49.0378C64.42 49.6259 64.3265 50.4858 63.7385 50.9585C63.1504 51.4312 62.2905 51.3378 61.8178 50.7497Z" fill="#848D95"/>
<path d="M55.4293 55.8853C54.9565 55.2973 55.05 54.4373 55.6381 53.9646C56.2261 53.4919 57.0861 53.5854 57.5588 54.1734C58.0315 54.7615 57.938 55.6214 57.3499 56.0941C56.7619 56.5668 55.902 56.4734 55.4293 55.8853Z" fill="#848D95"/>
<path d="M49.0408 61.0209C48.568 60.4329 48.6615 59.5729 49.2496 59.1002C49.8376 58.6275 50.6975 58.721 51.1703 59.309C51.643 59.8971 51.5495 60.757 50.9614 61.2297C50.3734 61.7024 49.5135 61.6089 49.0408 61.0209Z" fill="#848D95"/>
<path d="M42.6522 66.1565C42.1795 65.5685 42.273 64.7085 42.8611 64.2358C43.4491 63.7631 44.309 63.8566 44.7817 64.4446C45.2545 65.0327 45.161 65.8926 44.5729 66.3653C43.9849 66.838 43.125 66.7445 42.6522 66.1565Z" fill="#848D95"/>
<path d="M36.2637 71.2921C35.791 70.704 35.8845 69.8441 36.4726 69.3714C37.0606 68.8987 37.9205 68.9922 38.3932 69.5802C38.866 70.1683 38.7725 71.0282 38.1844 71.5009C37.5964 71.9736 36.7364 71.8801 36.2637 71.2921Z" fill="#848D95"/>
<path d="M29.8752 76.4277C29.4025 75.8396 29.496 74.9797 30.084 74.507C30.6721 74.0343 31.532 74.1278 32.0047 74.7158C32.4774 75.3039 32.3839 76.1638 31.7959 76.6365C31.2079 77.1092 30.3479 77.0157 29.8752 76.4277Z" fill="#848D95"/>
<path d="M23.4867 81.5633C23.014 80.9752 23.1075 80.1153 23.6955 79.6426C24.2836 79.1699 25.1435 79.2634 25.6162 79.8514C26.0889 80.4395 25.9954 81.2994 25.4074 81.7721C24.8193 82.2448 23.9594 82.1513 23.4867 81.5633Z" fill="#848D95"/>
<path d="M82.2362 23.8188C81.7635 23.2308 81.857 22.3709 82.445 21.8981C83.0331 21.4254 83.893 21.5189 84.3657 22.107C84.8384 22.695 84.745 23.5549 84.1569 24.0276C83.5689 24.5004 82.7089 24.4069 82.2362 23.8188Z" fill="#848D95"/>
<path d="M75.8477 28.9544C75.375 28.3664 75.4685 27.5064 76.0565 27.0337C76.6446 26.561 77.5045 26.6545 77.9772 27.2425C78.4499 27.8306 78.3564 28.6905 77.7684 29.1632C77.1804 29.636 76.3204 29.5425 75.8477 28.9544Z" fill="#848D95"/>
<path d="M69.4592 34.09C68.9865 33.502 69.08 32.642 69.668 32.1693C70.2561 31.6966 71.116 31.7901 71.5887 32.3781C72.0614 32.9662 71.9679 33.8261 71.3799 34.2988C70.7918 34.7715 69.9319 34.6781 69.4592 34.09Z" fill="#848D95"/>
<path d="M63.0707 39.2256C62.598 38.6376 62.6915 37.7776 63.2795 37.3049C63.8676 36.8322 64.7275 36.9257 65.2002 37.5137C65.6729 38.1018 65.5794 38.9617 64.9914 39.4344C64.4033 39.9071 63.5434 39.8136 63.0707 39.2256Z" fill="#848D95"/>
<path d="M56.6822 44.3612C56.2095 43.7732 56.303 42.9132 56.891 42.4405C57.479 41.9678 58.339 42.0613 58.8117 42.6493C59.2844 43.2374 59.1909 44.0973 58.6029 44.57C58.0148 45.0427 57.1549 44.9492 56.6822 44.3612Z" fill="#848D95"/>
<path d="M50.2937 49.4968C49.821 48.9087 49.9144 48.0488 50.5025 47.5761C51.0905 47.1034 51.9505 47.1969 52.4232 47.7849C52.8959 48.373 52.8024 49.2329 52.2144 49.7056C51.6263 50.1783 50.7664 50.0848 50.2937 49.4968Z" fill="#848D95"/>
<path d="M43.9052 54.6324C43.4324 54.0443 43.5259 53.1844 44.114 52.7117C44.702 52.239 45.5619 52.3325 46.0347 52.9205C46.5074 53.5086 46.4139 54.3685 45.8258 54.8412C45.2378 55.3139 44.3779 55.2204 43.9052 54.6324Z" fill="#848D95"/>
<path d="M37.5166 59.768C37.0439 59.1799 37.1374 58.32 37.7255 57.8473C38.3135 57.3746 39.1734 57.4681 39.6462 58.0561C40.1189 58.6442 40.0254 59.5041 39.4373 59.9768C38.8493 60.4495 37.9894 60.356 37.5166 59.768Z" fill="#848D95"/>
<path d="M31.1281 64.9036C30.6554 64.3155 30.7489 63.4556 31.337 62.9829C31.925 62.5102 32.7849 62.6037 33.2576 63.1917C33.7304 63.7798 33.6369 64.6397 33.0488 65.1124C32.4608 65.5851 31.6009 65.4916 31.1281 64.9036Z" fill="#848D95"/>
<path d="M24.7396 70.0392C24.2669 69.4511 24.3604 68.5912 24.9484 68.1185C25.5365 67.6458 26.3964 67.7393 26.8691 68.3273C27.3418 68.9154 27.2484 69.7753 26.6603 70.248C26.0723 70.7207 25.2123 70.6272 24.7396 70.0392Z" fill="#848D95"/>
<path d="M18.3511 75.1748C17.8784 74.5867 17.9719 73.7268 18.5599 73.2541C19.148 72.7814 20.0079 72.8749 20.4806 73.4629C20.9533 74.051 20.8598 74.9109 20.2718 75.3836C19.6838 75.8563 18.8238 75.7628 18.3511 75.1748Z" fill="#848D95"/>
<path d="M77.1006 17.4303C76.6279 16.8423 76.7214 15.9823 77.3095 15.5096C77.8975 15.0369 78.7574 15.1304 79.2301 15.7184C79.7029 16.3065 79.6094 17.1664 79.0213 17.6391C78.4333 18.1118 77.5733 18.0184 77.1006 17.4303Z" fill="#848D95"/>
<path d="M70.7121 22.5659C70.2394 21.9779 70.3329 21.1179 70.9209 20.6452C71.509 20.1725 72.3689 20.266 72.8416 20.854C73.3143 21.4421 73.2209 22.302 72.6328 22.7747C72.0448 23.2474 71.1848 23.1539 70.7121 22.5659Z" fill="#848D95"/>
<path d="M64.3236 27.7015C63.8509 27.1135 63.9444 26.2535 64.5324 25.7808C65.1205 25.3081 65.9804 25.4016 66.4531 25.9896C66.9258 26.5777 66.8323 27.4376 66.2443 27.9103C65.6562 28.383 64.7963 28.2895 64.3236 27.7015Z" fill="#848D95"/>
<path d="M57.9351 32.8371C57.4624 32.249 57.5559 31.3891 58.1439 30.9164C58.732 30.4437 59.5919 30.5372 60.0646 31.1252C60.5373 31.7133 60.4438 32.5732 59.8558 33.0459C59.2677 33.5186 58.4078 33.4251 57.9351 32.8371Z" fill="#848D95"/>
<path d="M51.5466 37.9727C51.0739 37.3846 51.1674 36.5247 51.7554 36.052C52.3435 35.5793 53.2034 35.6728 53.6761 36.2608C54.1488 36.8489 54.0553 37.7088 53.4673 38.1815C52.8792 38.6542 52.0193 38.5607 51.5466 37.9727Z" fill="#848D95"/>
<path d="M45.1581 43.1083C44.6854 42.5202 44.7788 41.6603 45.3669 41.1876C45.9549 40.7149 46.8149 40.8084 47.2876 41.3964C47.7603 41.9845 47.6668 42.8444 47.0788 43.3171C46.4907 43.7898 45.6308 43.6963 45.1581 43.1083Z" fill="#848D95"/>
<path d="M38.7696 48.2439C38.2968 47.6558 38.3903 46.7959 38.9784 46.3232C39.5664 45.8505 40.4263 45.944 40.8991 46.532C41.3718 47.1201 41.2783 47.98 40.6902 48.4527C40.1022 48.9254 39.2423 48.8319 38.7696 48.2439Z" fill="#848D95"/>
<path d="M32.3811 53.3795C31.9083 52.7914 32.0018 51.9315 32.5899 51.4588C33.1779 50.9861 34.0378 51.0796 34.5106 51.6676C34.9833 52.2557 34.8898 53.1156 34.3017 53.5883C33.7137 54.061 32.8538 53.9675 32.3811 53.3795Z" fill="#848D95"/>
<path d="M25.9925 58.5151C25.5198 57.927 25.6133 57.0671 26.2014 56.5944C26.7894 56.1217 27.6493 56.2152 28.122 56.8032C28.5948 57.3912 28.5013 58.2512 27.9132 58.7239C27.3252 59.1966 26.4653 59.1031 25.9925 58.5151Z" fill="#848D95"/>
<path d="M19.604 63.6507C19.1313 63.0626 19.2248 62.2027 19.8128 61.73C20.4009 61.2573 21.2608 61.3508 21.7335 61.9388C22.2063 62.5268 22.1128 63.3868 21.5247 63.8595C20.9367 64.3322 20.0767 64.2387 19.604 63.6507Z" fill="#848D95"/>
<path d="M13.2155 68.7863C12.7428 68.1982 12.8363 67.3383 13.4243 66.8656C14.0124 66.3929 14.8723 66.4863 15.345 67.0744C15.8177 67.6624 15.7242 68.5224 15.1362 68.9951C14.5482 69.4678 13.6882 69.3743 13.2155 68.7863Z" fill="#848D95"/>
<path d="M71.965 11.0418C71.4923 10.4538 71.5858 9.59383 72.1739 9.12111C72.7619 8.64839 73.6218 8.74189 74.0945 9.32993C74.5673 9.91798 74.4738 10.7779 73.8857 11.2506C73.2977 11.7233 72.4378 11.6298 71.965 11.0418Z" fill="#848D95"/>
<path d="M65.5765 16.1774C65.1038 15.5893 65.1973 14.7294 65.7853 14.2567C66.3734 13.784 67.2333 13.8775 67.706 14.4655C68.1787 15.0536 68.0853 15.9135 67.4972 16.3862C66.9092 16.8589 66.0492 16.7654 65.5765 16.1774Z" fill="#848D95"/>
<path d="M59.188 21.313C58.7153 20.7249 58.8088 19.865 59.3968 19.3923C59.9849 18.9196 60.8448 19.0131 61.3175 19.6011C61.7902 20.1892 61.6967 21.0491 61.1087 21.5218C60.5207 21.9945 59.6607 21.901 59.188 21.313Z" fill="#848D95"/>
<path d="M52.7995 26.4486C52.3268 25.8605 52.4203 25.0006 53.0083 24.5279C53.5964 24.0552 54.4563 24.1487 54.929 24.7367C55.4017 25.3248 55.3082 26.1847 54.7202 26.6574C54.1321 27.1301 53.2722 27.0366 52.7995 26.4486Z" fill="#848D95"/>
<path d="M46.411 31.5842C45.9383 30.9961 46.0318 30.1362 46.6198 29.6635C47.2079 29.1908 48.0678 29.2843 48.5405 29.8723C49.0132 30.4604 48.9197 31.3203 48.3317 31.793C47.7436 32.2657 46.8837 32.1722 46.411 31.5842Z" fill="#848D95"/>
<path d="M40.0225 36.7198C39.5498 36.1317 39.6433 35.2718 40.2313 34.7991C40.8193 34.3264 41.6793 34.4199 42.152 35.0079C42.6247 35.596 42.5312 36.4559 41.9432 36.9286C41.3551 37.4013 40.4952 37.3078 40.0225 36.7198Z" fill="#848D95"/>
<path d="M33.634 41.8554C33.1613 41.2673 33.2547 40.4074 33.8428 39.9347C34.4308 39.462 35.2908 39.5555 35.7635 40.1435C36.2362 40.7316 36.1427 41.5915 35.5547 42.0642C34.9666 42.5369 34.1067 42.4434 33.634 41.8554Z" fill="#848D95"/>
<path d="M27.2455 46.991C26.7727 46.4029 26.8662 45.543 27.4543 45.0703C28.0423 44.5976 28.9022 44.6911 29.375 45.2791C29.8477 45.8671 29.7542 46.7271 29.1661 47.1998C28.5781 47.6725 27.7182 47.579 27.2455 46.991Z" fill="#848D95"/>
<path d="M20.8569 52.1266C20.3842 51.5385 20.4777 50.6786 21.0658 50.2059C21.6538 49.7332 22.5137 49.8266 22.9865 50.4147C23.4592 51.0027 23.3657 51.8627 22.7776 52.3354C22.1896 52.8081 21.3297 52.7146 20.8569 52.1266Z" fill="#848D95"/>
<path d="M14.4684 57.2622C13.9957 56.6741 14.0892 55.8142 14.6773 55.3415C15.2653 54.8688 16.1252 54.9622 16.5979 55.5503C17.0707 56.1383 16.9772 56.9983 16.3891 57.471C15.8011 57.9437 14.9412 57.8502 14.4684 57.2622Z" fill="#848D95"/>
<path d="M8.07992 62.3978C7.6072 61.8097 7.7007 60.9498 8.28874 60.4771C8.87679 60.0043 9.73671 60.0978 10.2094 60.6859C10.6821 61.2739 10.5887 62.1339 10.0006 62.6066C9.41256 63.0793 8.55264 62.9858 8.07992 62.3978Z" fill="#848D95"/>
<path d="M66.8294 4.65329C66.3567 4.06524 66.4502 3.20532 67.0383 2.7326C67.6263 2.25988 68.4862 2.35337 68.9589 2.94142C69.4317 3.52947 69.3382 4.38938 68.7501 4.8621C68.1621 5.33482 67.3022 5.24133 66.8294 4.65329Z" fill="#848D95"/>
<path d="M60.4409 9.78888C59.9682 9.20084 60.0617 8.34091 60.6497 7.8682C61.2378 7.39548 62.0977 7.48897 62.5704 8.07702C63.0432 8.66506 62.9497 9.52498 62.3616 9.9977C61.7736 10.4704 60.9136 10.3769 60.4409 9.78888Z" fill="#848D95"/>
<path d="M54.0524 14.9245C53.5797 14.3364 53.6732 13.4765 54.2612 13.0038C54.8493 12.5311 55.7092 12.6246 56.1819 13.2126C56.6546 13.8007 56.5611 14.6606 55.9731 15.1333C55.3851 15.606 54.5251 15.5125 54.0524 14.9245Z" fill="#848D95"/>
<path d="M47.6639 20.0601C47.1912 19.472 47.2847 18.6121 47.8727 18.1394C48.4608 17.6667 49.3207 17.7602 49.7934 18.3482C50.2661 18.9363 50.1726 19.7962 49.5846 20.2689C48.9965 20.7416 48.1366 20.6481 47.6639 20.0601Z" fill="#848D95"/>
<path d="M41.2754 25.1957C40.8027 24.6076 40.8962 23.7477 41.4842 23.275C42.0723 22.8023 42.9322 22.8958 43.4049 23.4838C43.8776 24.0718 43.7841 24.9318 43.1961 25.4045C42.608 25.8772 41.7481 25.7837 41.2754 25.1957Z" fill="#848D95"/>
<path d="M34.8869 30.3313C34.4142 29.7432 34.5077 28.8833 35.0957 28.4106C35.6837 27.9379 36.5437 28.0314 37.0164 28.6194C37.4891 29.2074 37.3956 30.0674 36.8076 30.5401C36.2195 31.0128 35.3596 30.9193 34.8869 30.3313Z" fill="#848D95"/>
<path d="M28.4984 35.4669C28.0257 34.8788 28.1191 34.0189 28.7072 33.5462C29.2952 33.0735 30.1552 33.1669 30.6279 33.755C31.1006 34.343 31.0071 35.203 30.4191 35.6757C29.831 36.1484 28.9711 36.0549 28.4984 35.4669Z" fill="#848D95"/>
<path d="M22.1099 40.6025C21.6371 40.0144 21.7306 39.1545 22.3187 38.6818C22.9067 38.2091 23.7666 38.3025 24.2394 38.8906C24.7121 39.4786 24.6186 40.3386 24.0305 40.8113C23.4425 41.284 22.5826 41.1905 22.1099 40.6025Z" fill="#848D95"/>
<path d="M15.7213 45.7381C15.2486 45.15 15.3421 44.2901 15.9302 43.8174C16.5182 43.3446 17.3781 43.4381 17.8509 44.0262C18.3236 44.6142 18.2301 45.4741 17.642 45.9469C17.054 46.4196 16.1941 46.3261 15.7213 45.7381Z" fill="#848D95"/>
<path d="M9.33284 50.8736C8.86012 50.2856 8.95361 49.4257 9.54166 48.953C10.1297 48.4802 10.9896 48.5737 11.4623 49.1618C11.9351 49.7498 11.8416 50.6097 11.2535 51.0825C10.6655 51.5552 9.80556 51.4617 9.33284 50.8736Z" fill="#848D95"/>
<path d="M2.94433 56.0092C2.47161 55.4212 2.5651 54.5613 3.15315 54.0886C3.74119 53.6158 4.60112 53.7093 5.07383 54.2974C5.54655 54.8854 5.45306 55.7453 4.86501 56.2181C4.27696 56.6908 3.41705 56.5973 2.94433 56.0092Z" fill="#848D95"/>
</g>
</svg>
