<svg width="80" height="81" viewBox="0 0 80 81" fill="none" xmlns="http://www.w3.org/2000/svg">
<mask id="mask0" style="mask-type:alpha" maskUnits="userSpaceOnUse" x="0" y="0" width="80" height="81">
<path d="M80 0.614258C80 11.12 77.9307 21.5229 73.9104 31.2289C69.89 40.935 63.9972 49.7541 56.5685 57.1828C49.1399 64.6115 40.3207 70.5042 30.6147 74.5246C20.9086 78.545 10.5057 80.6143 0 80.6143V0.614258H80Z" fill="#C4C4C4"/>
</mask>
<g mask="url(#mask0)">
<path fill-rule="evenodd" clip-rule="evenodd" d="M18.4924 -32.8404C18.5815 -32.8408 18.6707 -32.8411 18.7599 -32.8411C18.8491 -32.8411 18.9383 -32.8408 19.0274 -32.8404C19.4534 -32.8383 19.7969 -32.4912 19.7948 -32.0653C19.7927 -31.6393 19.4456 -31.2957 19.0197 -31.2979C18.9331 -31.2983 18.8466 -31.2985 18.7599 -31.2985C18.6733 -31.2985 18.5867 -31.2983 18.5002 -31.2979C18.0742 -31.2957 17.7272 -31.6393 17.725 -32.0653C17.7229 -32.4912 18.0665 -32.8383 18.4924 -32.8404ZM14.0285 -31.8608C14.0735 -31.4372 13.7666 -31.0574 13.3431 -31.0123C13.1712 -30.994 12.9995 -30.9749 12.8282 -30.9549C12.4051 -30.9056 12.0221 -31.2086 11.9727 -31.6316C11.9234 -32.0547 12.2264 -32.4377 12.6494 -32.4871C12.826 -32.5077 13.0029 -32.5274 13.18 -32.5462C13.6036 -32.5912 13.9835 -32.2844 14.0285 -31.8608ZM23.4914 -31.8608C23.5364 -32.2844 23.9163 -32.5912 24.3398 -32.5462C24.517 -32.5274 24.6938 -32.5077 24.8704 -32.4871C25.2935 -32.4377 25.5965 -32.0547 25.5471 -31.6316C25.4978 -31.2086 25.1148 -30.9056 24.6917 -30.9549C24.5203 -30.9749 24.3487 -30.994 24.1768 -31.0123C23.7532 -31.0573 23.4463 -31.4372 23.4914 -31.8608ZM8.32224 -31.0157C8.41454 -30.5998 8.15225 -30.1879 7.73641 -30.0956C7.5681 -30.0583 7.40011 -30.0201 7.23244 -29.981C6.81757 -29.8845 6.40298 -30.1425 6.30641 -30.5574C6.20985 -30.9722 6.46789 -31.3868 6.88276 -31.4834C7.05557 -31.5236 7.22871 -31.563 7.40218 -31.6015C7.81802 -31.6938 8.22995 -31.4315 8.32224 -31.0157ZM29.1976 -31.0157C29.2899 -31.4315 29.7018 -31.6938 30.1177 -31.6015C30.2911 -31.563 30.4643 -31.5236 30.6371 -31.4834C31.052 -31.3868 31.31 -30.9722 31.2134 -30.5574C31.1169 -30.1425 30.7023 -29.8845 30.2874 -29.981C30.1197 -30.0201 29.9517 -30.0582 29.7834 -30.0956C29.3676 -30.1879 29.1053 -30.5998 29.1976 -31.0157ZM2.74874 -29.5341C2.88736 -29.1313 2.67323 -28.6925 2.27045 -28.5538C2.10772 -28.4978 1.94536 -28.441 1.78339 -28.3834C1.38206 -28.2407 0.940998 -28.4503 0.798248 -28.8516C0.655502 -29.2529 0.865124 -29.694 1.26645 -29.8367C1.4334 -29.8961 1.60074 -29.9547 1.76847 -30.0124C2.17124 -30.151 2.61013 -29.9369 2.74874 -29.5341ZM34.7711 -29.5341C34.9097 -29.9369 35.3486 -30.151 35.7514 -30.0124C35.9191 -29.9547 36.0864 -29.8961 36.2534 -29.8367C36.6547 -29.694 36.8643 -29.2529 36.7216 -28.8516C36.5788 -28.4503 36.1378 -28.2407 35.7365 -28.3834C35.5745 -28.441 35.4121 -28.4978 35.2494 -28.5538C34.8466 -28.6925 34.6325 -29.1313 34.7711 -29.5341ZM-2.62132 -27.4336C-2.4382 -27.049 -2.60152 -26.5888 -2.9861 -26.4057C-3.14165 -26.3316 -3.29676 -26.2568 -3.45142 -26.1812C-3.83411 -25.9941 -4.29598 -26.1527 -4.48303 -26.5354C-4.67008 -26.9181 -4.51149 -27.38 -4.1288 -27.567C-3.9694 -27.6449 -3.80955 -27.722 -3.64924 -27.7984C-3.26466 -27.9815 -2.80444 -27.8182 -2.62132 -27.4336ZM40.1412 -27.4336C40.3243 -27.8182 40.7845 -27.9815 41.1691 -27.7984C41.3294 -27.722 41.4892 -27.6449 41.6486 -27.567C42.0313 -27.3799 42.1899 -26.9181 42.0029 -26.5354C41.8158 -26.1527 41.354 -25.9941 40.9713 -26.1812C40.8166 -26.2568 40.6615 -26.3316 40.506 -26.4056C40.1214 -26.5888 39.958 -27.049 40.1412 -27.4336ZM-7.72199 -24.7415C-7.49687 -24.3799 -7.60752 -23.9043 -7.96913 -23.6792C-8.11541 -23.5881 -8.2612 -23.4963 -8.40649 -23.4038C-8.76578 -23.175 -9.24253 -23.2808 -9.47132 -23.6401C-9.70012 -23.9993 -9.59433 -24.4761 -9.23503 -24.7049C-9.08533 -24.8002 -8.9351 -24.8948 -8.78436 -24.9887C-8.42275 -25.2138 -7.94711 -25.1031 -7.72199 -24.7415ZM45.2418 -24.7415C45.467 -25.1031 45.9426 -25.2138 46.3042 -24.9886C46.4549 -24.8948 46.6052 -24.8002 46.7549 -24.7049C47.1142 -24.4761 47.22 -23.9993 46.9912 -23.64C46.7624 -23.2808 46.2856 -23.175 45.9263 -23.4038C45.781 -23.4963 45.6353 -23.5881 45.489 -23.6791C45.1274 -23.9043 45.0167 -24.3799 45.2418 -24.7415ZM-12.4889 -21.4952C-12.2248 -21.1609 -12.2816 -20.6759 -12.6158 -20.4118C-12.751 -20.3051 -12.8855 -20.1976 -13.0195 -20.0895C-13.351 -19.822 -13.8366 -19.8739 -14.1041 -20.2054C-14.3716 -20.5369 -14.3196 -21.0225 -13.9881 -21.29C-13.8501 -21.4014 -13.7114 -21.5121 -13.5722 -21.6221C-13.238 -21.8862 -12.753 -21.8294 -12.4889 -21.4952ZM50.0087 -21.4951C50.2728 -21.8293 50.7579 -21.8862 51.0921 -21.6221C51.2313 -21.5121 51.3699 -21.4014 51.508 -21.29C51.8395 -21.0225 51.8914 -20.5369 51.6239 -20.2054C51.3564 -19.8739 50.8709 -19.822 50.5394 -20.0895C50.4054 -20.1976 50.2708 -20.305 50.1357 -20.4118C49.8015 -20.6759 49.7446 -21.1609 50.0087 -21.4951ZM-16.8638 -17.7375C-16.5642 -17.4348 -16.5666 -16.9464 -16.8694 -16.6468C-16.9918 -16.5256 -17.1135 -16.4038 -17.2347 -16.2814C-17.5344 -15.9787 -18.0227 -15.9762 -18.3254 -16.2759C-18.6281 -16.5756 -18.6306 -17.0639 -18.3309 -17.3666C-18.2061 -17.4927 -18.0807 -17.6182 -17.9545 -17.743C-17.6518 -18.0427 -17.1635 -18.0402 -16.8638 -17.7375ZM54.3837 -17.7375C54.6833 -18.0402 55.1717 -18.0427 55.4744 -17.743C55.6005 -17.6182 55.726 -17.4927 55.8508 -17.3666C56.1505 -17.0639 56.148 -16.5755 55.8453 -16.2759C55.5425 -15.9762 55.0542 -15.9787 54.7545 -16.2814C54.6334 -16.4038 54.5116 -16.5256 54.3892 -16.6467C54.0865 -16.9464 54.084 -17.4347 54.3837 -17.7375ZM-20.7934 -13.5161C-20.4619 -13.2487 -20.4099 -12.7631 -20.6774 -12.4316C-20.7855 -12.2976 -20.893 -12.163 -20.9998 -12.0279C-21.2639 -11.6937 -21.7489 -11.6369 -22.0831 -11.901C-22.4173 -12.1651 -22.4741 -12.6501 -22.21 -12.9843C-22.1 -13.1235 -21.9893 -13.2621 -21.8779 -13.4002C-21.6104 -13.7317 -21.1249 -13.7836 -20.7934 -13.5161ZM58.3132 -13.5161C58.6447 -13.7836 59.1303 -13.7317 59.3978 -13.4002C59.5092 -13.2621 59.6199 -13.1235 59.7299 -12.9843C59.994 -12.6501 59.9371 -12.165 59.6029 -11.9009C59.2687 -11.6368 58.7837 -11.6937 58.5196 -12.0279C58.4128 -12.163 58.3054 -12.2976 58.1973 -12.4316C57.9298 -12.7631 57.9817 -13.2486 58.3132 -13.5161ZM-24.228 -8.88338C-23.8687 -8.65459 -23.7629 -8.17785 -23.9917 -7.81855C-24.0842 -7.67327 -24.176 -7.52748 -24.2671 -7.38119C-24.4922 -7.01958 -24.9679 -6.90894 -25.3295 -7.13406C-25.6911 -7.35918 -25.8017 -7.83482 -25.5766 -8.19642C-25.4828 -8.34717 -25.3882 -8.49739 -25.2928 -8.6471C-25.064 -9.00639 -24.5873 -9.11218 -24.228 -8.88338ZM61.7478 -8.88337C62.1071 -9.11217 62.5839 -9.00638 62.8127 -8.64708C62.908 -8.49738 63.0026 -8.34715 63.0964 -8.19641C63.3216 -7.8348 63.2109 -7.35916 62.8493 -7.13404C62.4877 -6.90892 62.0121 -7.01957 61.7869 -7.38118C61.6959 -7.52746 61.6041 -7.67325 61.5116 -7.81854C61.2828 -8.17783 61.3885 -8.65457 61.7478 -8.88337ZM-27.1233 -3.89509C-26.7407 -3.70804 -26.5821 -3.24618 -26.7691 -2.86349C-26.8447 -2.70882 -26.9195 -2.55371 -26.9936 -2.39817C-27.1767 -2.01358 -27.6369 -1.85026 -28.0215 -2.03338C-28.4061 -2.2165 -28.5694 -2.67672 -28.3863 -3.06131C-28.31 -3.22161 -28.2329 -3.38146 -28.155 -3.54086C-27.9679 -3.92355 -27.506 -4.08215 -27.1233 -3.89509ZM64.6432 -3.89508C65.0259 -4.08213 65.4877 -3.92353 65.6748 -3.54084C65.7527 -3.38145 65.8298 -3.22159 65.9062 -3.06129C66.0893 -2.6767 65.9259 -2.21649 65.5414 -2.03337C65.1568 -1.85025 64.6966 -2.01357 64.5134 -2.39815C64.4394 -2.5537 64.3645 -2.70881 64.2889 -2.86347C64.1019 -3.24616 64.2605 -3.70803 64.6432 -3.89508ZM-29.4396 1.38618C-29.0382 1.52893 -28.8286 1.97 -28.9714 2.37132C-29.029 2.5333 -29.0858 2.69566 -29.1418 2.85839C-29.2804 3.26116 -29.7193 3.4753 -30.1221 3.33668C-30.5248 3.19806 -30.739 2.75918 -30.6004 2.35641C-30.5426 2.18867 -30.4841 2.02134 -30.4247 1.85438C-30.2819 1.45306 -29.8409 1.24343 -29.4396 1.38618ZM66.9594 1.3862C67.3607 1.24345 67.8018 1.45308 67.9445 1.8544C68.0039 2.02135 68.0625 2.18869 68.1202 2.35642C68.2588 2.75919 68.0447 3.19808 67.6419 3.3367C67.2391 3.47532 66.8002 3.26118 66.6616 2.85841C66.6056 2.69567 66.5488 2.53331 66.4912 2.37134C66.3484 1.97001 66.5581 1.52895 66.9594 1.3862ZM-31.1453 6.89435C-30.7305 6.99091 -30.4724 7.4055 -30.569 7.82037C-30.608 7.98804 -30.6462 8.15604 -30.6836 8.32434C-30.7759 8.74018 -31.1878 9.00247 -31.6036 8.91018C-32.0195 8.81787 -32.2817 8.40595 -32.1894 7.99012C-32.1509 7.81665 -32.1116 7.64351 -32.0714 7.47069C-31.9748 7.05582 -31.5602 6.79779 -31.1453 6.89435ZM68.6652 6.89436C69.08 6.7978 69.4946 7.05584 69.5912 7.47071C69.6314 7.64352 69.6708 7.81667 69.7093 7.99014C69.8016 8.40597 69.5393 8.8179 69.1235 8.91019C68.7076 9.00249 68.2957 8.7402 68.2034 8.32436C68.166 8.15606 68.1278 7.98806 68.0888 7.82039C67.9923 7.40552 68.2503 6.99093 68.6652 6.89436ZM-32.2196 12.5607C-31.7965 12.61 -31.4935 12.993 -31.5429 13.4161C-31.5629 13.5875 -31.582 13.7591 -31.6003 13.931C-31.6453 14.3546 -32.0252 14.6614 -32.4487 14.6164C-32.8723 14.5714 -33.1792 14.1915 -33.1342 13.7679C-33.1153 13.5908 -33.0956 13.414 -33.075 13.2374C-33.0257 12.8143 -32.6427 12.5113 -32.2196 12.5607ZM69.7394 12.5607C70.1625 12.5113 70.5455 12.8143 70.5948 13.2374C70.6154 13.414 70.6352 13.5908 70.654 13.768C70.699 14.1915 70.3922 14.5714 69.9686 14.6164C69.545 14.6615 69.1651 14.3546 69.1201 13.931C69.1018 13.7591 69.0827 13.5875 69.0627 13.4161C69.0134 12.993 69.3163 12.61 69.7394 12.5607ZM-32.6532 18.313C-32.2273 18.3151 -31.8837 18.6622 -31.8858 19.0881C-31.8863 19.1746 -31.8865 19.2612 -31.8865 19.3479C-31.8865 19.4345 -31.8863 19.5211 -31.8858 19.6076C-31.8837 20.0336 -32.2273 20.3806 -32.6532 20.3827C-33.0792 20.3849 -33.4262 20.0413 -33.4283 19.6154C-33.4288 19.5262 -33.429 19.4371 -33.429 19.3479C-33.429 19.2586 -33.4288 19.1695 -33.4283 19.0804C-33.4262 18.6544 -33.0792 18.3108 -32.6532 18.313ZM70.173 18.313C70.599 18.3109 70.946 18.6544 70.9482 19.0804C70.9486 19.1695 70.9488 19.2587 70.9488 19.3479C70.9488 19.3916 70.9488 19.4353 70.9487 19.479C70.9486 19.5245 70.9484 19.5699 70.9482 19.6154C70.946 20.0413 70.599 20.3849 70.173 20.3828C69.7471 20.3806 69.4035 20.0336 69.4057 19.6076C69.4061 19.5211 69.4063 19.4345 69.4063 19.3479C69.4063 19.2612 69.4061 19.1747 69.4057 19.0881C69.4035 18.6622 69.7471 18.3151 70.173 18.313ZM-32.4487 24.0793C-32.0252 24.0343 -31.6453 24.3411 -31.6003 24.7647C-31.582 24.9366 -31.5629 25.1083 -31.5429 25.2796C-31.4935 25.7027 -31.7965 26.0857 -32.2196 26.1351C-32.6427 26.1844 -33.0257 25.8814 -33.075 25.4583C-33.0956 25.2817 -33.1153 25.1049 -33.1342 24.9278C-33.1792 24.5042 -32.8723 24.1243 -32.4487 24.0793ZM69.9686 24.0793C70.3921 24.1243 70.699 24.5042 70.654 24.9278C70.6352 25.1049 70.6154 25.2818 70.5948 25.4584C70.5455 25.8814 70.1625 26.1844 69.7394 26.1351C69.3163 26.0857 69.0134 25.7027 69.0627 25.2797C69.0827 25.1083 69.1018 24.9366 69.1201 24.7647C69.1651 24.3412 69.545 24.0343 69.9686 24.0793ZM-31.6036 29.7855C-31.1878 29.6932 -30.7759 29.9555 -30.6836 30.3714C-30.6462 30.5397 -30.608 30.7077 -30.569 30.8753C-30.4724 31.2902 -30.7305 31.7048 -31.1453 31.8014C-31.5602 31.8979 -31.9748 31.6399 -32.0714 31.225C-32.1116 31.0522 -32.1509 30.8791 -32.1894 30.7056C-32.2817 30.2898 -32.0195 29.8778 -31.6036 29.7855ZM69.1234 29.7856C69.5393 29.8779 69.8016 30.2898 69.7093 30.7056C69.6708 30.8791 69.6314 31.0522 69.5912 31.225C69.4946 31.6399 69.08 31.8979 68.6652 31.8014C68.2503 31.7048 67.9922 31.2902 68.0888 30.8754C68.1278 30.7077 68.166 30.5397 68.2034 30.3714C68.2957 29.9556 68.7076 29.6933 69.1234 29.7856ZM-30.1221 35.359C-29.7193 35.2204 -29.2804 35.4346 -29.1418 35.8373C-29.0858 36.0001 -29.029 36.1624 -28.9714 36.3244C-28.8286 36.7257 -29.0382 37.1668 -29.4396 37.3095C-29.8409 37.4523 -30.2819 37.2427 -30.4247 36.8413C-30.4841 36.6744 -30.5426 36.507 -30.6004 36.3393C-30.739 35.9365 -30.5248 35.4977 -30.1221 35.359ZM67.6419 35.3591C68.0447 35.4977 68.2588 35.9366 68.1202 36.3393C68.0625 36.5071 68.0039 36.6744 67.9445 36.8414C67.8018 37.2427 67.3607 37.4523 66.9594 37.3095C66.5581 37.1668 66.3484 36.7257 66.4912 36.3244C66.5488 36.1624 66.6056 36.0001 66.6616 35.8373C66.8002 35.4346 67.2391 35.2204 67.6419 35.3591ZM-28.0215 40.7291C-27.6369 40.546 -27.1767 40.7093 -26.9936 41.0939C-26.9195 41.2494 -26.8447 41.4045 -26.7691 41.5592C-26.5821 41.9419 -26.7407 42.4038 -27.1233 42.5908C-27.506 42.7779 -27.9679 42.6193 -28.155 42.2366C-28.2329 42.0772 -28.31 41.9173 -28.3863 41.757C-28.5694 41.3724 -28.4061 40.9122 -28.0215 40.7291ZM65.5414 40.7291C65.9259 40.9122 66.0893 41.3725 65.9061 41.757C65.8298 41.9173 65.7527 42.0772 65.6748 42.2366C65.4877 42.6193 65.0259 42.7779 64.6432 42.5908C64.2605 42.4038 64.1019 41.9419 64.2889 41.5592C64.3645 41.4045 64.4394 41.2495 64.5134 41.0939C64.6965 40.7093 65.1568 40.546 65.5414 40.7291ZM-25.3295 45.8298C-24.9679 45.6047 -24.4922 45.7153 -24.2671 46.0769C-24.176 46.2232 -24.0842 46.369 -23.9917 46.5143C-23.7629 46.8736 -23.8687 47.3503 -24.228 47.5791C-24.5873 47.8079 -25.064 47.7021 -25.2928 47.3428C-25.3882 47.1931 -25.4828 47.0429 -25.5766 46.8921C-25.8017 46.5305 -25.6911 46.0549 -25.3295 45.8298ZM62.8493 45.8298C63.2109 46.0549 63.3215 46.5305 63.0964 46.8922C63.0026 47.0429 62.908 47.1931 62.8127 47.3428C62.5839 47.7021 62.1071 47.8079 61.7478 47.5791C61.3885 47.3503 61.2827 46.8736 61.5115 46.5143C61.6041 46.369 61.6959 46.2232 61.7869 46.0769C62.012 45.7153 62.4877 45.6047 62.8493 45.8298ZM-22.0831 50.5967C-21.7489 50.3326 -21.2639 50.3894 -20.9998 50.7236C-20.893 50.8587 -20.7856 50.9933 -20.6774 51.1273C-20.41 51.4588 -20.4619 51.9444 -20.7934 52.2119C-21.1249 52.4793 -21.6104 52.4274 -21.8779 52.0959C-21.9893 51.9579 -22.1 51.8192 -22.21 51.68C-22.4741 51.3458 -22.4173 50.8608 -22.0831 50.5967ZM59.6029 50.5967C59.9371 50.8608 59.994 51.3458 59.7299 51.68C59.6199 51.8192 59.5091 51.9579 59.3977 52.0959C59.1303 52.4274 58.6447 52.4793 58.3132 52.2119C57.9817 51.9444 57.9298 51.4588 58.1973 51.1273C58.3054 50.9933 58.4128 50.8587 58.5196 50.7236C58.7837 50.3894 59.2687 50.3326 59.6029 50.5967ZM-18.3254 54.9716C-18.0227 54.6719 -17.5344 54.6744 -17.2347 54.9771C-17.1136 55.0995 -16.9918 55.2213 -16.8694 55.3425C-16.5667 55.6422 -16.5642 56.1305 -16.8638 56.4332C-17.1635 56.7359 -17.6518 56.7384 -17.9546 56.4387C-18.0807 56.3139 -18.2061 56.1884 -18.331 56.0623C-18.6306 55.7596 -18.6282 55.2713 -18.3254 54.9716ZM55.8453 54.9716C56.148 55.2713 56.1504 55.7596 55.8508 56.0623C55.726 56.1884 55.6005 56.3139 55.4744 56.4387C55.1717 56.7384 54.6833 56.7359 54.3837 56.4332C54.084 56.1305 54.0865 55.6422 54.3892 55.3425C54.5116 55.2213 54.6334 55.0995 54.7545 54.9771C55.0542 54.6744 55.5425 54.672 55.8453 54.9716ZM-14.1041 58.9011C-13.8366 58.5696 -13.351 58.5177 -13.0195 58.7852C-12.8855 58.8933 -12.751 59.0008 -12.6158 59.1076C-12.2816 59.3717 -12.2248 59.8567 -12.4889 60.1909C-12.753 60.5251 -13.238 60.5819 -13.5722 60.3178C-13.7114 60.2078 -13.8501 60.0971 -13.9882 59.9857C-14.3197 59.7182 -14.3716 59.2327 -14.1041 58.9011ZM51.6239 58.9012C51.8914 59.2327 51.8395 59.7182 51.508 59.9857C51.3699 60.0971 51.2313 60.2078 51.092 60.3178C50.7578 60.5819 50.2728 60.5251 50.0087 60.1909C49.7446 59.8567 49.8015 59.3717 50.1357 59.1076C50.2708 59.0008 50.4053 58.8933 50.5394 58.7852C50.8709 58.5177 51.3564 58.5696 51.6239 58.9012ZM-9.47134 62.3358C-9.24254 61.9765 -8.7658 61.8707 -8.4065 62.0995C-8.26122 62.192 -8.11543 62.2838 -7.96914 62.3749C-7.60753 62.6 -7.49689 63.0756 -7.72201 63.4372C-7.94713 63.7989 -8.42277 63.9095 -8.78438 63.6844C-8.93512 63.5905 -9.08534 63.4959 -9.23505 63.4006C-9.59434 63.1718 -9.70013 62.6951 -9.47134 62.3358ZM46.9911 62.3358C47.2199 62.6951 47.1142 63.1718 46.7549 63.4006C46.6052 63.496 46.4549 63.5905 46.3042 63.6844C45.9426 63.9095 45.4669 63.7989 45.2418 63.4373C45.0167 63.0756 45.1273 62.6 45.489 62.3749C45.6352 62.2838 45.781 62.192 45.9263 62.0995C46.2856 61.8707 46.7624 61.9765 46.9911 62.3358ZM-4.48305 65.2311C-4.29599 64.8484 -3.83413 64.6898 -3.45144 64.8769C-3.29677 64.9525 -3.14166 65.0273 -2.98612 65.1014C-2.60153 65.2845 -2.43821 65.7447 -2.62133 66.1293C-2.80445 66.5139 -3.26467 66.6772 -3.64926 66.4941C-3.80956 66.4178 -3.96941 66.3406 -4.12881 66.2627C-4.5115 66.0757 -4.6701 65.6138 -4.48305 65.2311ZM42.0029 65.2311C42.1899 65.6138 42.0313 66.0757 41.6486 66.2627C41.4892 66.3407 41.3294 66.4178 41.1691 66.4941C40.7845 66.6772 40.3243 66.5139 40.1411 66.1293C39.958 65.7447 40.1214 65.2845 40.5059 65.1014C40.6615 65.0273 40.8166 64.9525 40.9713 64.8769C41.3539 64.6898 41.8158 64.8484 42.0029 65.2311ZM0.798233 67.5473C0.940983 67.146 1.38205 66.9364 1.78337 67.0791C1.94535 67.1367 2.10771 67.1936 2.27044 67.2496C2.67321 67.3882 2.88735 67.8271 2.74873 68.2298C2.61011 68.6326 2.17123 68.8468 1.76846 68.7081C1.60072 68.6504 1.43338 68.5919 1.26643 68.5325C0.865108 68.3897 0.655483 67.9487 0.798233 67.5473ZM36.7216 67.5473C36.8643 67.9487 36.6547 68.3897 36.2534 68.5325C36.0864 68.5919 35.9191 68.6504 35.7514 68.7081C35.3486 68.8468 34.9097 68.6326 34.7711 68.2299C34.6325 67.8271 34.8466 67.3882 35.2494 67.2496C35.4121 67.1936 35.5745 67.1368 35.7365 67.0791C36.1378 66.9364 36.5788 67.146 36.7216 67.5473ZM6.3064 69.2531C6.40296 68.8382 6.81755 68.5802 7.23242 68.6768C7.40009 68.7158 7.56808 68.754 7.73639 68.7913C8.15223 68.8836 8.41452 69.2956 8.32222 69.7114C8.22992 70.1272 7.818 70.3895 7.40216 70.2972C7.22869 70.2587 7.05555 70.2194 6.88274 70.1791C6.46787 70.0826 6.20984 69.668 6.3064 69.2531ZM31.2134 69.2531C31.31 69.668 31.0519 70.0826 30.6371 70.1791C30.4643 70.2194 30.2911 70.2587 30.1176 70.2972C29.7018 70.3895 29.2899 70.1272 29.1976 69.7114C29.1053 69.2956 29.3676 68.8836 29.7834 68.7913C29.9517 68.754 30.1197 68.7158 30.2874 68.6768C30.7023 68.5802 31.1169 68.8382 31.2134 69.2531ZM11.9727 70.3274C12.0221 69.9043 12.405 69.6013 12.8281 69.6507C12.9995 69.6706 13.1712 69.6898 13.3431 69.7081C13.7666 69.7531 14.0735 70.133 14.0285 70.5565C13.9834 70.9801 13.6036 71.287 13.18 71.2419C13.0029 71.2231 12.826 71.2034 12.6494 71.1828C12.2263 71.1335 11.9234 70.7505 11.9727 70.3274ZM25.5471 70.3274C25.5965 70.7505 25.2935 71.1335 24.8704 71.1828C24.6938 71.2034 24.5169 71.2231 24.3398 71.2419C23.9163 71.287 23.5364 70.9801 23.4914 70.5565C23.4463 70.133 23.7532 69.7531 24.1768 69.7081C24.3487 69.6898 24.5203 69.6706 24.6917 69.6507C25.1148 69.6013 25.4978 69.9043 25.5471 70.3274ZM17.725 70.761C17.7272 70.335 18.0742 69.9915 18.5002 69.9936C18.5867 69.994 18.6733 69.9943 18.7599 69.9943C18.8465 69.9943 18.9331 69.994 19.0197 69.9936C19.4456 69.9915 19.7926 70.335 19.7948 70.761C19.7969 71.187 19.4534 71.534 19.0274 71.5361C18.9383 71.5366 18.8491 71.5368 18.7599 71.5368C18.6707 71.5368 18.5815 71.5366 18.4924 71.5361C18.0665 71.534 17.7229 71.187 17.725 70.761Z" fill="#5D5D66"/>
<path fill-rule="evenodd" clip-rule="evenodd" d="M18.494 -25.1274C18.5826 -25.1279 18.6712 -25.1282 18.7599 -25.1282C18.8486 -25.1282 18.9372 -25.1279 19.0258 -25.1274C19.4518 -25.1249 19.795 -24.7776 19.7926 -24.3516C19.7901 -23.9257 19.4427 -23.5824 19.0168 -23.5849C18.9312 -23.5854 18.8456 -23.5856 18.7599 -23.5856C18.6742 -23.5856 18.5886 -23.5854 18.503 -23.5849C18.0771 -23.5824 17.7298 -23.9257 17.7273 -24.3516C17.7248 -24.7776 18.0681 -25.1249 18.494 -25.1274ZM14.075 -24.1156C14.1276 -23.6929 13.8275 -23.3076 13.4048 -23.255C13.2357 -23.234 13.0669 -23.212 12.8984 -23.189C12.4764 -23.1313 12.0876 -23.4268 12.03 -23.8488C11.9723 -24.2709 12.2678 -24.6597 12.6898 -24.7173C12.8644 -24.7411 13.0392 -24.7639 13.2144 -24.7857C13.6371 -24.8383 14.0224 -24.5383 14.075 -24.1156ZM23.4449 -24.1156C23.4974 -24.5383 23.8827 -24.8383 24.3054 -24.7857C24.4806 -24.7639 24.6555 -24.7411 24.83 -24.7173C25.252 -24.6597 25.5475 -24.2709 25.4899 -23.8488C25.4323 -23.4268 25.0434 -23.1313 24.6214 -23.189C24.4529 -23.212 24.2841 -23.234 24.115 -23.255C23.6923 -23.3076 23.3923 -23.6929 23.4449 -24.1156ZM8.44243 -23.1391C8.54996 -22.7269 8.30299 -22.3056 7.89083 -22.1981C7.7256 -22.155 7.56076 -22.1109 7.39631 -22.0659C6.98547 -21.9534 6.56124 -22.1953 6.44878 -22.6062C6.33631 -23.017 6.57819 -23.4412 6.98903 -23.5537C7.15943 -23.6003 7.33024 -23.646 7.50145 -23.6907C7.91362 -23.7982 8.3349 -23.5512 8.44243 -23.1391ZM29.0774 -23.1391C29.1849 -23.5512 29.6062 -23.7982 30.0184 -23.6907C30.1896 -23.646 30.3604 -23.6003 30.5308 -23.5537C30.9416 -23.4412 31.1835 -23.017 31.0711 -22.6062C30.9586 -22.1953 30.5344 -21.9534 30.1235 -22.0659C29.9591 -22.1109 29.7942 -22.155 29.629 -22.1981C29.2168 -22.3056 28.9699 -22.7269 29.0774 -23.1391ZM2.98458 -21.4305C3.14539 -21.0361 2.95599 -20.5859 2.56155 -20.4251C2.40402 -20.3609 2.24695 -20.2958 2.09035 -20.2297C1.69786 -20.0642 1.24552 -20.2482 1.08 -20.6407C0.914488 -21.0332 1.09849 -21.4855 1.49097 -21.6511C1.65323 -21.7195 1.81598 -21.787 1.97922 -21.8535C2.37365 -22.0143 2.82377 -21.8249 2.98458 -21.4305ZM34.5352 -21.4305C34.6961 -21.8249 35.1462 -22.0143 35.5406 -21.8535C35.7038 -21.787 35.8666 -21.7195 36.0289 -21.651C36.4213 -21.4855 36.6053 -21.0332 36.4398 -20.6407C36.2743 -20.2482 35.822 -20.0642 35.4295 -20.2297C35.2729 -20.2958 35.1158 -20.3609 34.9583 -20.4251C34.5638 -20.5859 34.3744 -21.0361 34.5352 -21.4305ZM-2.20072 -19.0198C-1.9896 -18.6498 -2.11836 -18.1788 -2.48831 -17.9677C-2.63627 -17.8832 -2.78367 -17.7979 -2.93052 -17.7118C-3.29793 -17.4963 -3.77049 -17.6194 -3.986 -17.9868C-4.20152 -18.3543 -4.07837 -18.8268 -3.71096 -19.0423C-3.55883 -19.1316 -3.40613 -19.2199 -3.25285 -19.3074C-2.8829 -19.5185 -2.41184 -19.3897 -2.20072 -19.0198ZM39.7206 -19.0198C39.9317 -19.3897 40.4027 -19.5185 40.7727 -19.3074C40.926 -19.2199 41.0787 -19.1316 41.2308 -19.0423C41.5982 -18.8268 41.7213 -18.3543 41.5058 -17.9868C41.2903 -17.6194 40.8178 -17.4963 40.4503 -17.7118C40.3035 -17.7979 40.1561 -17.8832 40.0081 -17.9676C39.6382 -18.1788 39.5094 -18.6498 39.7206 -19.0198ZM-7.02592 -15.9517C-6.76838 -15.6124 -6.83465 -15.1286 -7.17393 -14.871C-7.30966 -14.768 -7.44476 -14.6642 -7.57922 -14.5596C-7.91543 -14.298 -8.4 -14.3585 -8.66155 -14.6948C-8.92309 -15.031 -8.86257 -15.5155 -8.52636 -15.7771C-8.38709 -15.8854 -8.24716 -15.9929 -8.10657 -16.0997C-7.76729 -16.3572 -7.28346 -16.2909 -7.02592 -15.9517ZM44.5458 -15.9517C44.8033 -16.2909 45.2871 -16.3572 45.6264 -16.0997C45.767 -15.9929 45.9069 -15.8854 46.0462 -15.7771C46.3824 -15.5155 46.4429 -15.031 46.1814 -14.6947C45.9198 -14.3585 45.4352 -14.298 45.099 -14.5596C44.9646 -14.6642 44.8295 -14.768 44.6938 -14.871C44.3545 -15.1286 44.2882 -15.6124 44.5458 -15.9517ZM-11.4112 -12.2815C-11.1118 -11.9785 -11.1147 -11.4902 -11.4176 -11.1908C-11.5388 -11.071 -11.6592 -10.9506 -11.779 -10.8294C-12.0784 -10.5265 -12.5667 -10.5236 -12.8697 -10.823C-13.1727 -11.1224 -13.1755 -11.6107 -12.8761 -11.9137C-12.7521 -12.0392 -12.6274 -12.1639 -12.5019 -12.2879C-12.1989 -12.5873 -11.7106 -12.5845 -11.4112 -12.2815ZM48.931 -12.2815C49.2304 -12.5845 49.7188 -12.5873 50.0217 -12.2879C50.1472 -12.1639 50.2719 -12.0392 50.396 -11.9137C50.6954 -11.6107 50.6925 -11.1224 50.3895 -10.823C50.0865 -10.5236 49.5982 -10.5265 49.2988 -10.8294C49.1791 -10.9506 49.0586 -11.071 48.9375 -11.1908C48.6345 -11.4902 48.6316 -11.9785 48.931 -12.2815ZM-15.2829 -8.07335C-14.9467 -7.81181 -14.8862 -7.32723 -15.1478 -6.99103C-15.2524 -6.85657 -15.3562 -6.72147 -15.4592 -6.58574C-15.7167 -6.24646 -16.2006 -6.18019 -16.5399 -6.43773C-16.8791 -6.69527 -16.9454 -7.17909 -16.6879 -7.51838C-16.5811 -7.65896 -16.4736 -7.79889 -16.3653 -7.93817C-16.1037 -8.27437 -15.6192 -8.3349 -15.2829 -8.07335ZM52.8028 -8.07335C53.139 -8.3349 53.6236 -8.27437 53.8851 -7.93816C53.9934 -7.79889 54.101 -7.65896 54.2077 -7.51837C54.4652 -7.17909 54.399 -6.69527 54.0597 -6.43773C53.7204 -6.18019 53.2366 -6.24645 52.979 -6.58574C52.876 -6.72147 52.7722 -6.85657 52.6676 -6.99103C52.406 -7.32723 52.4666 -7.81181 52.8028 -8.07335ZM-18.575 -3.39781C-18.2076 -3.18229 -18.0845 -2.70974 -18.3 -2.34232C-18.3861 -2.19548 -18.4714 -2.04808 -18.5558 -1.90012C-18.767 -1.53017 -19.238 -1.40141 -19.608 -1.61253C-19.9779 -1.82365 -20.1067 -2.29471 -19.8956 -2.66466C-19.8081 -2.81794 -19.7198 -2.97064 -19.6305 -3.12277C-19.415 -3.49018 -18.9424 -3.61332 -18.575 -3.39781ZM56.0949 -3.39781C56.4623 -3.61332 56.9348 -3.49018 57.1503 -3.12276C57.2396 -2.97064 57.3279 -2.81793 57.4154 -2.66466C57.6265 -2.2947 57.4978 -1.82364 57.1278 -1.61252C56.7579 -1.4014 56.2868 -1.53016 56.0757 -1.90012C55.9912 -2.04807 55.906 -2.19547 55.8198 -2.34232C55.6043 -2.70973 55.7274 -3.18229 56.0949 -3.39781ZM-21.2289 1.6682C-20.8364 1.83371 -20.6524 2.28606 -20.8179 2.67854C-20.884 2.83514 -20.9491 2.99221 -21.0133 3.14975C-21.1741 3.54419 -21.6243 3.73358 -22.0187 3.57277C-22.4131 3.41196 -22.6025 2.96185 -22.4417 2.56741C-22.3752 2.40417 -22.3077 2.24142 -22.2392 2.07916C-22.0737 1.68668 -21.6214 1.50268 -21.2289 1.6682ZM58.7487 1.6682C59.1412 1.50268 59.5936 1.68668 59.7591 2.07917C59.8275 2.24143 59.895 2.40418 59.9615 2.56741C60.1223 2.96185 59.933 3.41197 59.5385 3.57277C59.1441 3.73358 58.694 3.54419 58.5331 3.14975C58.4689 2.99221 58.4038 2.83514 58.3378 2.67855C58.1722 2.28606 58.3562 1.83371 58.7487 1.6682ZM-23.1943 7.03696C-22.7835 7.14943 -22.5416 7.57366 -22.6541 7.9845C-22.6991 8.14895 -22.7432 8.31379 -22.7863 8.47903C-22.8938 8.89119 -23.3151 9.13815 -23.7273 9.03062C-24.1394 8.9231 -24.3864 8.50181 -24.2789 8.08964C-24.2342 7.91843 -24.1885 7.74762 -24.1419 7.57722C-24.0294 7.16638 -23.6052 6.9245 -23.1943 7.03696ZM60.7142 7.03697C61.125 6.9245 61.5492 7.16638 61.6617 7.57722C61.7084 7.74763 61.754 7.91844 61.7987 8.08965C61.9062 8.50182 61.6592 8.9231 61.2471 9.03062C60.8349 9.13815 60.4136 8.89119 60.3061 8.47903C60.263 8.31379 60.2189 8.14896 60.1739 7.98451C60.0614 7.57367 60.3033 7.14944 60.7142 7.03697ZM-24.437 12.6181C-24.015 12.6758 -23.7195 13.0646 -23.7772 13.4866C-23.8001 13.6551 -23.8222 13.8239 -23.8432 13.993C-23.8958 14.4157 -24.2811 14.7157 -24.7038 14.6632C-25.1265 14.6106 -25.4265 14.2253 -25.3739 13.8026C-25.3521 13.6274 -25.3293 13.4526 -25.3055 13.278C-25.2479 12.856 -24.8591 12.5605 -24.437 12.6181ZM61.9568 12.6181C62.3789 12.5605 62.7677 12.856 62.8253 13.278C62.8492 13.4526 62.872 13.6274 62.8938 13.8026C62.9463 14.2253 62.6463 14.6106 62.2236 14.6632C61.8009 14.7157 61.4156 14.4157 61.363 13.993C61.342 13.8239 61.32 13.6551 61.297 13.4866C61.2394 13.0646 61.5348 12.6758 61.9568 12.6181ZM-24.9398 18.3155C-24.5139 18.318 -24.1706 18.6653 -24.1731 19.0912C-24.1736 19.1768 -24.1738 19.2624 -24.1738 19.3481C-24.1738 19.4338 -24.1736 19.5194 -24.1731 19.605C-24.1706 20.0309 -24.5139 20.3783 -24.9398 20.3808C-25.3658 20.3832 -25.7131 20.04 -25.7156 19.614C-25.7161 19.5254 -25.7164 19.4368 -25.7164 19.3481C-25.7164 19.2594 -25.7161 19.1708 -25.7156 19.0822C-25.7131 18.6562 -25.3658 18.313 -24.9398 18.3155ZM62.4596 18.3155C62.8856 18.313 63.2329 18.6562 63.2354 19.0822C63.2359 19.1708 63.2362 19.2594 63.2362 19.3481C63.2362 19.4368 63.2359 19.5254 63.2354 19.614C63.2329 20.04 62.8856 20.3832 62.4596 20.3808C62.0337 20.3783 61.6904 20.0309 61.6929 19.605C61.6934 19.5194 61.6937 19.4338 61.6937 19.3481C61.6937 19.2624 61.6934 19.1768 61.6929 19.0912C61.6904 18.6653 62.0337 18.318 62.4596 18.3155ZM-24.7038 24.0331C-24.2811 23.9805 -23.8958 24.2805 -23.8432 24.7032C-23.8222 24.8723 -23.8001 25.0411 -23.7772 25.2096C-23.7195 25.6316 -24.015 26.0205 -24.437 26.0781C-24.8591 26.1357 -25.2479 25.8402 -25.3055 25.4182C-25.3293 25.2437 -25.3521 25.0688 -25.3739 24.8936C-25.4265 24.4709 -25.1265 24.0856 -24.7038 24.0331ZM62.2236 24.0331C62.6463 24.0856 62.9463 24.4709 62.8938 24.8936C62.872 25.0688 62.8492 25.2437 62.8253 25.4182C62.7677 25.8402 62.3789 26.1357 61.9568 26.0781C61.5348 26.0205 61.2394 25.6316 61.297 25.2096C61.32 25.0411 61.342 24.8723 61.363 24.7032C61.4156 24.2805 61.8009 23.9805 62.2236 24.0331ZM-23.7273 29.6656C-23.3151 29.5581 -22.8938 29.805 -22.7863 30.2172C-22.7432 30.3824 -22.6991 30.5473 -22.6541 30.7117C-22.5416 31.1226 -22.7835 31.5468 -23.1944 31.6592C-23.6052 31.7717 -24.0294 31.5298 -24.1419 31.119C-24.1885 30.9486 -24.2342 30.7778 -24.2789 30.6066C-24.3864 30.1944 -24.1394 29.7731 -23.7273 29.6656ZM61.2471 29.6656C61.6592 29.7731 61.9062 30.1944 61.7987 30.6066C61.754 30.7778 61.7084 30.9486 61.6617 31.119C61.5492 31.5298 61.125 31.7717 60.7142 31.6592C60.3033 31.5468 60.0614 31.1226 60.1739 30.7117C60.2189 30.5473 60.263 30.3824 60.3061 30.2172C60.4136 29.805 60.8349 29.5581 61.2471 29.6656ZM-22.0187 35.1234C-21.6243 34.9626 -21.1741 35.152 -21.0133 35.5465C-20.9491 35.704 -20.884 35.8611 -20.8179 36.0177C-20.6524 36.4102 -20.8364 36.8625 -21.2289 37.028C-21.6214 37.1935 -22.0737 37.0095 -22.2392 36.6171C-22.3077 36.4548 -22.3752 36.292 -22.4417 36.1288C-22.6025 35.7344 -22.4131 35.2842 -22.0187 35.1234ZM59.5385 35.1234C59.933 35.2843 60.1223 35.7344 59.9615 36.1288C59.895 36.292 59.8275 36.4548 59.7591 36.6171C59.5936 37.0095 59.1412 37.1935 58.7487 37.028C58.3562 36.8625 58.1722 36.4102 58.3378 36.0177C58.4038 35.8611 58.4689 35.704 58.5331 35.5465C58.694 35.152 59.1441 34.9626 59.5385 35.1234ZM-19.608 40.3087C-19.238 40.0976 -18.767 40.2264 -18.5558 40.5963C-18.4714 40.7443 -18.3861 40.8917 -18.3 41.0385C-18.0845 41.406 -18.2076 41.8785 -18.575 42.094C-18.9425 42.3095 -19.415 42.1864 -19.6305 41.819C-19.7198 41.6669 -19.8081 41.5141 -19.8956 41.3609C-20.1067 40.9909 -19.9779 40.5199 -19.608 40.3087ZM57.1278 40.3087C57.4978 40.5199 57.6265 40.9909 57.4154 41.3609C57.3279 41.5142 57.2396 41.6669 57.1503 41.819C56.9348 42.1864 56.4623 42.3095 56.0949 42.094C55.7274 41.8785 55.6043 41.406 55.8198 41.0385C55.906 40.8917 55.9912 40.7443 56.0757 40.5963C56.2868 40.2264 56.7579 40.0976 57.1278 40.3087ZM-16.5399 45.1339C-16.2006 44.8764 -15.7167 44.9427 -15.4592 45.282C-15.3562 45.4177 -15.2524 45.5528 -15.1478 45.6872C-14.8862 46.0234 -14.9467 46.508 -15.2829 46.7696C-15.6192 47.0311 -16.1037 46.9706 -16.3653 46.6344C-16.4736 46.4951 -16.5811 46.3552 -16.6879 46.2146C-16.9454 45.8753 -16.8791 45.3915 -16.5399 45.1339ZM54.0597 45.1339C54.399 45.3915 54.4652 45.8753 54.2077 46.2146C54.101 46.3552 53.9934 46.4951 53.8851 46.6344C53.6236 46.9706 53.139 47.0311 52.8028 46.7696C52.4666 46.508 52.406 46.0234 52.6676 45.6872C52.7722 45.5528 52.876 45.4177 52.979 45.282C53.2366 44.9427 53.7204 44.8764 54.0597 45.1339ZM-12.8697 49.5192C-12.5667 49.2198 -12.0784 49.2227 -11.779 49.5257C-11.6592 49.6468 -11.5388 49.7673 -11.4176 49.887C-11.1147 50.1864 -11.1118 50.6747 -11.4112 50.9777C-11.7106 51.2807 -12.1989 51.2836 -12.5019 50.9842C-12.6274 50.8601 -12.7521 50.7354 -12.8761 50.6099C-13.1755 50.3069 -13.1727 49.8186 -12.8697 49.5192ZM50.3895 49.5192C50.6925 49.8186 50.6954 50.3069 50.396 50.6099C50.2719 50.7354 50.1472 50.8601 50.0217 50.9842C49.7188 51.2836 49.2304 51.2807 48.931 50.9777C48.6316 50.6747 48.6345 50.1864 48.9375 49.887C49.0586 49.7673 49.1791 49.6468 49.2988 49.5257C49.5982 49.2227 50.0865 49.2198 50.3895 49.5192ZM-8.66155 53.391C-8.4 53.0548 -7.91543 52.9942 -7.57922 53.2558C-7.44477 53.3604 -7.30967 53.4642 -7.17394 53.5672C-6.83465 53.8248 -6.76839 54.3086 -7.02593 54.6479C-7.28347 54.9872 -7.76729 55.0534 -8.10657 54.7959C-8.24716 54.6892 -8.38709 54.5816 -8.52636 54.4733C-8.86257 54.2117 -8.92309 53.7272 -8.66155 53.391ZM46.1814 53.391C46.4429 53.7272 46.3824 54.2117 46.0462 54.4733C45.9069 54.5816 45.767 54.6892 45.6264 54.7959C45.2871 55.0534 44.8033 54.9872 44.5458 54.6479C44.2882 54.3086 44.3545 53.8248 44.6938 53.5672C44.8295 53.4642 44.9646 53.3604 45.099 53.2558C45.4352 52.9942 45.9198 53.0548 46.1814 53.391ZM-3.98601 56.6831C-3.77049 56.3156 -3.29793 56.1925 -2.93052 56.408C-2.78367 56.4941 -2.63627 56.5794 -2.48832 56.6639C-2.11836 56.875 -1.9896 57.346 -2.20072 57.716C-2.41185 58.086 -2.8829 58.2147 -3.25286 58.0036C-3.40613 57.9161 -3.55884 57.8278 -3.71096 57.7385C-4.07838 57.523 -4.20152 57.0505 -3.98601 56.6831ZM41.5058 56.6831C41.7213 57.0505 41.5982 57.523 41.2308 57.7385C41.0787 57.8278 40.9259 57.9161 40.7727 58.0036C40.4027 58.2147 39.9317 58.086 39.7205 57.716C39.5094 57.346 39.6382 56.875 40.0081 56.6639C40.1561 56.5794 40.3035 56.4941 40.4503 56.408C40.8178 56.1925 41.2903 56.3156 41.5058 56.6831ZM1.08 59.3369C1.24551 58.9444 1.69786 58.7604 2.09035 58.9259C2.24694 58.992 2.40401 59.0571 2.56155 59.1213C2.95599 59.2822 3.14538 59.7323 2.98457 60.1267C2.82377 60.5211 2.37365 60.7105 1.97921 60.5497C1.81598 60.4832 1.65323 60.4157 1.49097 60.3473C1.09848 60.1817 0.914484 59.7294 1.08 59.3369ZM36.4398 59.3369C36.6053 59.7294 36.4213 60.1817 36.0289 60.3473C35.8666 60.4157 35.7038 60.4832 35.5406 60.5497C35.1462 60.7105 34.6961 60.5211 34.5352 60.1267C34.3744 59.7323 34.5638 59.2822 34.9583 59.1213C35.1158 59.0571 35.2729 58.992 35.4295 58.9259C35.822 58.7604 36.2743 58.9444 36.4398 59.3369ZM6.44877 61.3024C6.56124 60.8915 6.98547 60.6496 7.39631 60.7621C7.56075 60.8071 7.7256 60.8512 7.89083 60.8943C8.30299 61.0018 8.54995 61.4231 8.44242 61.8353C8.3349 62.2474 7.91361 62.4944 7.50145 62.3869C7.33023 62.3422 7.15943 62.2966 6.98903 62.2499C6.57818 62.1374 6.3363 61.7132 6.44877 61.3024ZM31.071 61.3024C31.1835 61.7132 30.9416 62.1374 30.5308 62.2499C30.3604 62.2966 30.1896 62.3422 30.0184 62.3869C29.6062 62.4944 29.1849 62.2474 29.0774 61.8353C28.9699 61.4231 29.2168 61.0018 29.629 60.8943C29.7942 60.8512 29.9591 60.8071 30.1235 60.7621C30.5344 60.6496 30.9586 60.8915 31.071 61.3024ZM12.0299 62.545C12.0876 62.123 12.4764 61.8276 12.8984 61.8852C13.0669 61.9082 13.2357 61.9302 13.4048 61.9512C13.8275 62.0038 14.1275 62.3891 14.075 62.8118C14.0224 63.2345 13.6371 63.5345 13.2144 63.482C13.0392 63.4602 12.8644 63.4374 12.6898 63.4135C12.2678 63.3559 11.9723 62.9671 12.0299 62.545ZM25.4899 62.545C25.5475 62.9671 25.252 63.3559 24.83 63.4135C24.6555 63.4374 24.4806 63.4602 24.3054 63.482C23.8827 63.5345 23.4974 63.2345 23.4449 62.8118C23.3923 62.3891 23.6923 62.0038 24.115 61.9512C24.2841 61.9302 24.4529 61.9082 24.6214 61.8852C25.0434 61.8276 25.4323 62.123 25.4899 62.545ZM17.7273 63.0478C17.7298 62.6219 18.0771 62.2786 18.503 62.2811C18.5886 62.2816 18.6742 62.2819 18.7599 62.2819C18.8105 62.2819 18.861 62.2818 18.9115 62.2816C18.9466 62.2815 18.9817 62.2813 19.0168 62.2811C19.4427 62.2786 19.7901 62.6219 19.7926 63.0478C19.7951 63.4738 19.4518 63.8211 19.0258 63.8236C18.9372 63.8241 18.8486 63.8244 18.7599 63.8244C18.6712 63.8244 18.5826 63.8241 18.494 63.8236C18.0681 63.8211 17.7248 63.4738 17.7273 63.0478Z" fill="#5D5D66"/>
<path fill-rule="evenodd" clip-rule="evenodd" d="M18.5054 -16.1292C18.5901 -16.1298 18.675 -16.1301 18.7599 -16.1301C18.8448 -16.1301 18.9296 -16.1298 19.0144 -16.1292C19.4403 -16.1262 19.7832 -15.7785 19.7802 -15.3526C19.7772 -14.9266 19.4295 -14.5837 19.0035 -14.5867C18.9224 -14.5873 18.8411 -14.5876 18.7599 -14.5876C18.6786 -14.5876 18.5974 -14.5873 18.5162 -14.5867C18.0903 -14.5837 17.7426 -14.9266 17.7396 -15.3526C17.7366 -15.7785 18.0794 -16.1262 18.5054 -16.1292ZM14.3366 -15.0883C14.3997 -14.667 14.1093 -14.2744 13.6881 -14.2113C13.5279 -14.1873 13.368 -14.1621 13.2085 -14.1359C12.7882 -14.0667 12.3914 -14.3514 12.3223 -14.7717C12.2532 -15.192 12.5378 -15.5888 12.9581 -15.658C13.1249 -15.6854 13.292 -15.7117 13.4595 -15.7368C13.8808 -15.7999 14.2734 -15.5095 14.3366 -15.0883ZM23.1832 -15.0883C23.2463 -15.5095 23.639 -15.7999 24.0602 -15.7368C24.2277 -15.7117 24.3949 -15.6854 24.5616 -15.658C24.9819 -15.5888 25.2666 -15.192 25.1974 -14.7717C25.1283 -14.3514 24.7315 -14.0667 24.3112 -14.1359C24.1517 -14.1621 23.9919 -14.1873 23.8317 -14.2113C23.4104 -14.2744 23.1201 -14.667 23.1832 -15.0883ZM9.00274 -13.9775C9.13137 -13.5715 8.90646 -13.138 8.50039 -13.0094C8.34608 -12.9605 8.19225 -12.9105 8.0389 -12.8595C7.63473 -12.7251 7.19807 -12.9437 7.0636 -13.3479C6.92913 -13.752 7.14776 -14.1887 7.55194 -14.3232C7.71231 -14.3765 7.87319 -14.4288 8.03457 -14.4799C8.44064 -14.6085 8.87411 -14.3836 9.00274 -13.9775ZM28.517 -13.9775C28.6456 -14.3836 29.0791 -14.6085 29.4852 -14.4799C29.6465 -14.4288 29.8074 -14.3765 29.9678 -14.3232C30.372 -14.1887 30.5906 -13.752 30.4561 -13.3479C30.3217 -12.9437 29.885 -12.7251 29.4808 -12.8595C29.3275 -12.9105 29.1737 -12.9605 29.0193 -13.0094C28.6133 -13.138 28.3884 -13.5715 28.517 -13.9775ZM3.91044 -12.0403C4.1014 -11.6595 3.94755 -11.1961 3.5668 -11.0051C3.42232 -10.9326 3.27843 -10.8592 3.13514 -10.7847C2.75716 -10.5883 2.29154 -10.7355 2.09514 -11.1135C1.89874 -11.4915 2.04593 -11.9571 2.42391 -12.1535C2.57373 -12.2313 2.72419 -12.3082 2.87525 -12.3839C3.25601 -12.5749 3.71948 -12.421 3.91044 -12.0403ZM33.6093 -12.0403C33.8003 -12.421 34.2637 -12.5749 34.6445 -12.3839C34.7955 -12.3082 34.946 -12.2313 35.0958 -12.1535C35.4738 -11.9571 35.621 -11.4915 35.4246 -11.1135C35.2282 -10.7355 34.7626 -10.5883 34.3846 -10.7847C34.2413 -10.8592 34.0974 -10.9326 33.9529 -11.0051C33.5722 -11.1961 33.4183 -11.6595 33.6093 -12.0403ZM38.3336 -9.3271C38.5818 -9.67328 39.0636 -9.75272 39.4098 -9.50452C39.547 -9.40613 39.6835 -9.30679 39.8193 -9.20649C40.1619 -8.9534 40.2345 -8.47049 39.9814 -8.12787C39.7283 -7.78526 39.2454 -7.71269 38.9027 -7.96578C38.7729 -8.06173 38.6423 -8.15677 38.511 -8.2509C38.1648 -8.49909 38.0854 -8.98092 38.3336 -9.3271ZM-0.81384 -9.3271C-0.565647 -8.98092 -0.645081 -8.49909 -0.991259 -8.25089C-1.12255 -8.15677 -1.25314 -8.06173 -1.38302 -7.96578C-1.72563 -7.71269 -2.20855 -7.78526 -2.46164 -8.12787C-2.71473 -8.47048 -2.64216 -8.9534 -2.29955 -9.20649C-2.16379 -9.30678 -2.02728 -9.40613 -1.89005 -9.50452C-1.54387 -9.75271 -1.06203 -9.67328 -0.81384 -9.3271ZM42.5763 -5.90954C42.8753 -6.21287 43.3637 -6.21633 43.667 -5.91728C43.7872 -5.79873 43.9067 -5.67932 44.0252 -5.55907C44.3243 -5.25574 44.3208 -4.76742 44.0175 -4.46836C43.7141 -4.16931 43.2258 -4.17277 42.9268 -4.4761C42.8133 -4.59116 42.6991 -4.7054 42.584 -4.81883C42.2807 -5.11789 42.2772 -5.60621 42.5763 -5.90954ZM-5.05656 -5.90953C-4.7575 -5.60621 -4.76097 -5.11788 -5.0643 -4.81883C-5.17935 -4.7054 -5.2936 -4.59115 -5.40703 -4.47609C-5.70608 -4.17277 -6.19441 -4.1693 -6.49774 -4.46836C-6.80106 -4.76741 -6.80453 -5.25573 -6.50548 -5.55906C-6.38692 -5.67931 -6.26751 -5.79872 -6.14726 -5.91727C-5.84394 -6.21633 -5.35561 -6.21286 -5.05656 -5.90953ZM46.2358 -1.87344C46.5784 -2.12654 47.0613 -2.05397 47.3144 -1.71136C47.4147 -1.57559 47.5141 -1.43909 47.6124 -1.30185C47.8606 -0.955671 47.7812 -0.473838 47.435 -0.225644C47.0889 0.0225487 46.607 -0.0568848 46.3588 -0.403063C46.2647 -0.534351 46.1697 -0.66494 46.0737 -0.794821C45.8206 -1.13743 45.8932 -1.62035 46.2358 -1.87344ZM-8.71607 -1.87344C-8.37346 -1.62034 -8.30089 -1.13743 -8.55398 -0.794816C-8.64993 -0.664934 -8.74497 -0.534346 -8.83909 -0.403057C-9.08729 -0.0568771 -9.56912 0.0225563 -9.9153 -0.225637C-10.2615 -0.47383 -10.3409 -0.955666 -10.0927 -1.30184C-9.99433 -1.43908 -9.89498 -1.57559 -9.79469 -1.71135C-9.5416 -2.05396 -9.05868 -2.12653 -8.71607 -1.87344ZM-11.7017 2.68333C-11.3237 2.87973 -11.1765 3.34536 -11.3729 3.72334C-11.4474 3.86663 -11.5208 4.01051 -11.5933 4.15499C-11.7843 4.53574 -12.2477 4.6896 -12.6285 4.49863C-13.0092 4.30767 -13.1631 3.8442 -12.9721 3.46345C-12.8964 3.31238 -12.8195 3.16193 -12.7417 3.01211C-12.5453 2.63413 -12.0797 2.48693 -11.7017 2.68333ZM49.2214 2.68333C49.5994 2.48693 50.065 2.63413 50.2614 3.01211C50.3393 3.16193 50.4161 3.31238 50.4919 3.46345C50.6828 3.8442 50.529 4.30767 50.1482 4.49863C49.7675 4.6896 49.304 4.53575 49.113 4.15499C49.0406 4.01052 48.9671 3.86663 48.8926 3.72334C48.6962 3.34536 48.8434 2.87973 49.2214 2.68333ZM-13.9361 7.65179C-13.5319 7.78626 -13.3133 8.22292 -13.4477 8.6271C-13.4987 8.78044 -13.5487 8.93427 -13.5976 9.08858C-13.7262 9.49465 -14.1597 9.71956 -14.5657 9.59093C-14.9718 9.4623 -15.1967 9.02884 -15.0681 8.62276C-15.017 8.46138 -14.9647 8.3005 -14.9114 8.14013C-14.7769 7.73596 -14.3402 7.51732 -13.9361 7.65179ZM51.4558 7.65179C51.86 7.51732 52.2966 7.73596 52.4311 8.14013C52.4845 8.30051 52.5367 8.46139 52.5878 8.62277C52.7165 9.02884 52.4915 9.4623 52.0855 9.59093C51.6794 9.71956 51.2459 9.49466 51.1173 9.08858C51.0684 8.93427 51.0185 8.78045 50.9675 8.6271C50.833 8.22292 51.0516 7.78626 51.4558 7.65179ZM-15.3599 12.9105C-14.9396 12.9796 -14.6549 13.3764 -14.7241 13.7967C-14.7503 13.9562 -14.7754 14.1161 -14.7995 14.2763C-14.8626 14.6975 -15.2552 14.9879 -15.6765 14.9247C-16.0977 14.8616 -16.3881 14.469 -16.325 14.0477C-16.2999 13.8802 -16.2736 13.7131 -16.2462 13.5463C-16.177 13.126 -15.7802 12.8413 -15.3599 12.9105ZM52.8797 12.9105C53.3 12.8413 53.6967 13.126 53.7659 13.5463C53.7933 13.7131 53.8196 13.8802 53.8447 14.0477C53.9078 14.469 53.6175 14.8616 53.1962 14.9247C52.775 14.9879 52.3823 14.6975 52.3192 14.2763C52.2952 14.1161 52.2701 13.9562 52.2438 13.7967C52.1747 13.3764 52.4594 12.9796 52.8797 12.9105ZM-15.9408 18.3278C-15.5148 18.3307 -15.1719 18.6785 -15.1749 19.1044C-15.1755 19.1856 -15.1758 19.2668 -15.1758 19.3481C-15.1758 19.4293 -15.1755 19.5106 -15.1749 19.5917C-15.1719 20.0176 -15.5148 20.3654 -15.9408 20.3684C-16.3667 20.3714 -16.7144 20.0285 -16.7174 19.6025C-16.718 19.5178 -16.7183 19.433 -16.7183 19.3481C-16.7183 19.2632 -16.718 19.1783 -16.7174 19.0936C-16.7144 18.6676 -16.3667 18.3248 -15.9408 18.3278ZM53.4605 18.3278C53.8864 18.3248 54.2342 18.6676 54.2372 19.0936C54.2378 19.1783 54.2381 19.2632 54.2381 19.3481C54.2381 19.433 54.2378 19.5178 54.2372 19.6025C54.2342 20.0285 53.8864 20.3714 53.4605 20.3684C53.0345 20.3654 52.6917 20.0177 52.6947 19.5917C52.6952 19.5106 52.6955 19.4293 52.6955 19.3481C52.6955 19.2668 52.6952 19.1856 52.6947 19.1044C52.6917 18.6785 53.0345 18.3308 53.4605 18.3278ZM-15.6765 23.7714C-15.2552 23.7083 -14.8626 23.9986 -14.7995 24.4198C-14.7754 24.5801 -14.7503 24.7399 -14.7241 24.8994C-14.6549 25.3197 -14.9396 25.7165 -15.3599 25.7856C-15.7802 25.8548 -16.177 25.5701 -16.2462 25.1498C-16.2736 24.9831 -16.2999 24.8159 -16.325 24.6484C-16.3881 24.2272 -16.0977 23.8345 -15.6765 23.7714ZM53.1962 23.7714C53.6175 23.8345 53.9078 24.2272 53.8447 24.6484C53.8196 24.8159 53.7933 24.9831 53.7659 25.1498C53.6967 25.5701 53.3 25.8548 52.8797 25.7856C52.4593 25.7165 52.1747 25.3197 52.2438 24.8994C52.2701 24.7399 52.2952 24.5801 52.3192 24.4199C52.3823 23.9986 52.775 23.7083 53.1962 23.7714ZM-14.5657 29.1052C-14.1597 28.9766 -13.7262 29.2015 -13.5976 29.6075C-13.5487 29.7619 -13.4987 29.9157 -13.4477 30.069C-13.3133 30.4732 -13.5319 30.9099 -13.9361 31.0443C-14.3402 31.1788 -14.7769 30.9602 -14.9114 30.556C-14.9647 30.3956 -15.017 30.2347 -15.0681 30.0734C-15.1967 29.6673 -14.9718 29.2338 -14.5657 29.1052ZM52.0855 29.1052C52.4915 29.2338 52.7165 29.6673 52.5878 30.0734C52.5367 30.2347 52.4845 30.3956 52.4311 30.556C52.2966 30.9602 51.86 31.1788 51.4558 31.0443C51.0516 30.9099 50.833 30.4732 50.9675 30.069C51.0185 29.9157 51.0684 29.7619 51.1173 29.6075C51.2459 29.2015 51.6794 28.9766 52.0855 29.1052ZM-12.6285 34.1975C-12.2477 34.0065 -11.7843 34.1604 -11.5933 34.5411C-11.5208 34.6856 -11.4474 34.8295 -11.3729 34.9728C-11.1765 35.3508 -11.3237 35.8164 -11.7017 36.0128C-12.0797 36.2092 -12.5453 36.062 -12.7417 35.684C-12.8195 35.5342 -12.8964 35.3837 -12.9721 35.2327C-13.1631 34.8519 -13.0092 34.3885 -12.6285 34.1975ZM50.1482 34.1975C50.529 34.3885 50.6828 34.8519 50.4919 35.2327C50.4161 35.3837 50.3393 35.5342 50.2614 35.684C50.065 36.062 49.5994 36.2092 49.2214 36.0128C48.8434 35.8164 48.6962 35.3508 48.8926 34.9728C48.9671 34.8295 49.0406 34.6856 49.113 34.5411C49.304 34.1604 49.7675 34.0065 50.1482 34.1975ZM47.435 38.9218C47.7812 39.17 47.8606 39.6518 47.6125 39.998C47.5141 40.1352 47.4147 40.2717 47.3144 40.4075C47.0613 40.7501 46.5784 40.8227 46.2358 40.5696C45.8932 40.3165 45.8206 39.8336 46.0737 39.4909C46.1697 39.3611 46.2647 39.2305 46.3588 39.0992C46.607 38.753 47.0889 38.6736 47.435 38.9218ZM-9.9153 38.9218C-9.56912 38.6736 -9.08728 38.753 -8.83909 39.0992C-8.74496 39.2305 -8.64992 39.3611 -8.55398 39.4909C-8.30088 39.8336 -8.37345 40.3165 -8.71606 40.5696C-9.05868 40.8227 -9.54159 40.7501 -9.79469 40.4075C-9.89498 40.2717 -9.99432 40.1352 -10.0927 39.998C-10.3409 39.6518 -10.2615 39.17 -9.9153 38.9218ZM44.0175 43.1645C44.3208 43.4635 44.3243 43.9519 44.0252 44.2552C43.9067 44.3754 43.7873 44.4948 43.667 44.6134C43.3637 44.9125 42.8753 44.909 42.5763 44.6057C42.2772 44.3023 42.2807 43.814 42.584 43.515C42.6991 43.4015 42.8133 43.2873 42.9268 43.1722C43.2258 42.8689 43.7141 42.8654 44.0175 43.1645ZM-6.49773 43.1645C-6.1944 42.8654 -5.70608 42.8689 -5.40702 43.1722C-5.29359 43.2873 -5.17934 43.4015 -5.06429 43.515C-4.76096 43.814 -4.7575 44.3023 -5.05655 44.6057C-5.3556 44.909 -5.84393 44.9125 -6.14726 44.6134C-6.26751 44.4949 -6.38691 44.3754 -6.50547 44.2552C-6.80452 43.9519 -6.80106 43.4635 -6.49773 43.1645ZM39.9814 46.824C40.2345 47.1666 40.1619 47.6495 39.8193 47.9026C39.6835 48.0029 39.547 48.1023 39.4098 48.2006C39.0636 48.4488 38.5818 48.3694 38.3336 48.0232C38.0854 47.677 38.1648 47.1952 38.511 46.947C38.6423 46.8529 38.7729 46.7579 38.9028 46.6619C39.2454 46.4088 39.7283 46.4814 39.9814 46.824ZM-2.46163 46.824C-2.20854 46.4814 -1.72563 46.4088 -1.38301 46.6619C-1.25313 46.7579 -1.12254 46.8529 -0.991253 46.947C-0.645073 47.1952 -0.565639 47.6771 -0.813833 48.0232C-1.06203 48.3694 -1.54386 48.4488 -1.89004 48.2007C-2.02728 48.1023 -2.16378 48.0029 -2.29955 47.9026C-2.64216 47.6495 -2.71473 47.1666 -2.46163 46.824ZM2.09514 49.8096C2.29154 49.4316 2.75716 49.2844 3.13514 49.4808C3.27843 49.5553 3.42232 49.6288 3.5668 49.7012C3.94755 49.8922 4.1014 50.3557 3.91044 50.7364C3.71947 51.1172 3.25601 51.271 2.87525 51.08C2.72418 51.0043 2.57373 50.9275 2.42391 50.8496C2.04593 50.6532 1.89874 50.1876 2.09514 49.8096ZM35.4246 49.8096C35.621 50.1876 35.4738 50.6532 35.0958 50.8496C34.946 50.9275 34.7955 51.0043 34.6445 51.08C34.2637 51.271 33.8003 51.1172 33.6093 50.7364C33.4183 50.3557 33.5722 49.8922 33.9529 49.7012C34.0974 49.6288 34.2413 49.5553 34.3846 49.4808C34.7626 49.2844 35.2282 49.4316 35.4246 49.8096ZM7.06359 52.044C7.19806 51.6398 7.63472 51.4212 8.0389 51.5556C8.19225 51.6067 8.34608 51.6566 8.50039 51.7055C8.90646 51.8341 9.13137 52.2676 9.00274 52.6737C8.8741 53.0797 8.44064 53.3047 8.03457 53.176C7.87319 53.1249 7.71231 53.0727 7.55194 53.0193C7.14776 52.8848 6.92912 52.4482 7.06359 52.044ZM30.4561 52.044C30.5906 52.4482 30.372 52.8848 29.9678 53.0193C29.8074 53.0727 29.6465 53.1249 29.4852 53.176C29.0791 53.3047 28.6456 53.0797 28.517 52.6737C28.3884 52.2676 28.6133 51.8341 29.0193 51.7055C29.1737 51.6566 29.3275 51.6067 29.4808 51.5557C29.885 51.4212 30.3217 51.6398 30.4561 52.044ZM12.3223 53.4678C12.3914 53.0475 12.7882 52.7629 13.2085 52.832C13.368 52.8583 13.5279 52.8834 13.6881 52.9074C14.1093 52.9705 14.3997 53.3632 14.3365 53.7844C14.2734 54.2057 13.8808 54.496 13.4595 54.4329C13.292 54.4078 13.1249 54.3815 12.9581 54.3541C12.5378 54.2849 12.2531 53.8882 12.3223 53.4678ZM25.1974 53.4678C25.2666 53.8882 24.9819 54.2849 24.5616 54.3541C24.3949 54.3815 24.2277 54.4078 24.0602 54.4329C23.639 54.496 23.2463 54.2057 23.1832 53.7844C23.1201 53.3632 23.4104 52.9705 23.8316 52.9074C23.9919 52.8834 24.1517 52.8583 24.3112 52.832C24.7315 52.7629 25.1283 53.0475 25.1974 53.4678ZM17.7396 54.0487C17.7425 53.6227 18.0903 53.2799 18.5162 53.2829C18.5513 53.2831 18.5864 53.2833 18.6216 53.2835C18.6676 53.2836 18.7137 53.2837 18.7599 53.2837C18.8411 53.2837 18.9224 53.2834 19.0035 53.2829C19.4295 53.2799 19.7772 53.6227 19.7802 54.0487C19.7832 54.4746 19.4403 54.8224 19.0143 54.8254C18.9296 54.826 18.8448 54.8263 18.7599 54.8263C18.675 54.8263 18.5901 54.826 18.5054 54.8254C18.0794 54.8224 17.7366 54.4746 17.7396 54.0487Z" fill="#5D5D66"/>
<path fill-rule="evenodd" clip-rule="evenodd" d="M18.4887 -7.13084C18.579 -7.13175 18.6694 -7.1322 18.7599 -7.1322C18.8504 -7.1322 18.9408 -7.13175 19.0311 -7.13084C19.457 -7.12656 19.7988 -6.77781 19.7946 -6.35187C19.7903 -5.92594 19.4415 -5.58411 19.0156 -5.58839C18.9305 -5.58924 18.8452 -5.58967 18.7599 -5.58967C18.6745 -5.58967 18.5893 -5.58924 18.5042 -5.58839C18.0782 -5.58411 17.7295 -5.92594 17.7252 -6.35187C17.7209 -6.77781 18.0627 -7.12656 18.4887 -7.13084ZM14.0467 -5.94168C14.1368 -5.52537 13.8724 -5.1148 13.4561 -5.02465C13.2901 -4.98869 13.1246 -4.95108 12.9599 -4.91183C12.5455 -4.81314 12.1296 -5.06905 12.0309 -5.48342C11.9322 -5.89779 12.1881 -6.3137 12.6025 -6.41239C12.7775 -6.45408 12.9532 -6.49403 13.1296 -6.53223C13.5459 -6.62239 13.9565 -6.35799 14.0467 -5.94168ZM23.4731 -5.94168C23.5633 -6.35799 23.9738 -6.62239 24.3902 -6.53223C24.5665 -6.49403 24.7422 -6.45408 24.9173 -6.41239C25.3317 -6.3137 25.5876 -5.89778 25.4889 -5.48342C25.3902 -5.06905 24.9743 -4.81314 24.5599 -4.91183C24.3951 -4.95108 24.2297 -4.98869 24.0637 -5.02465C23.6474 -5.1148 23.383 -5.52537 23.4731 -5.94168ZM8.53752 -4.26104C8.71867 -3.87552 8.55299 -3.41614 8.16747 -3.235C8.01389 -3.16283 7.86117 -3.08914 7.70932 -3.01395C7.32759 -2.82494 6.86491 -2.98117 6.67591 -3.3629C6.48689 -3.74462 6.64312 -4.2073 7.02485 -4.39631C7.18613 -4.47617 7.34835 -4.55443 7.51147 -4.63108C7.89699 -4.81223 8.35637 -4.64656 8.53752 -4.26104ZM28.9823 -4.26104C29.1634 -4.64656 29.6228 -4.81223 30.0083 -4.63108C30.1714 -4.55443 30.3336 -4.47617 30.4949 -4.39631C30.8767 -4.2073 31.0329 -3.74462 30.8439 -3.3629C30.6549 -2.98117 30.1922 -2.82494 29.8105 -3.01395C29.6586 -3.08914 29.5059 -3.16283 29.3523 -3.23499C28.9668 -3.41614 28.8011 -3.87552 28.9823 -4.26104ZM3.54355 -1.39067C3.80595 -1.05513 3.74666 -0.570405 3.41112 -0.308008C3.2775 -0.203515 3.14497 -0.0976877 3.01355 0.00945282C2.6834 0.278608 2.19757 0.229167 1.92842 -0.100978C1.65926 -0.431122 1.7087 -0.916951 2.03885 -1.18611C2.17836 -1.29984 2.31904 -1.41218 2.46089 -1.52311C2.79643 -1.78551 3.28116 -1.72621 3.54355 -1.39067ZM33.9762 -1.39067C34.2386 -1.72621 34.7233 -1.7855 35.0589 -1.52311C35.2007 -1.41218 35.3414 -1.29984 35.4809 -1.1861C35.8111 -0.916949 35.8605 -0.43112 35.5914 -0.100976C35.3222 0.229169 34.8364 0.278611 34.5062 0.0094552C34.3748 -0.0976849 34.2423 -0.203512 34.1087 -0.308006C33.7731 -0.570403 33.7138 -1.05513 33.9762 -1.39067ZM-0.688988 2.51643C-0.358843 2.78558 -0.309402 3.27141 -0.578557 3.60156C-0.685698 3.73298 -0.791525 3.86551 -0.896019 3.99913C-1.15842 4.33467 -1.64314 4.39396 -1.97868 4.13156C-2.31422 3.86917 -2.37352 3.38444 -2.11112 3.0489C-2.00019 2.90705 -1.88785 2.76637 -1.77412 2.62686C-1.50496 2.29671 -1.01913 2.24727 -0.688988 2.51643ZM38.2088 2.51643C38.5389 2.24728 39.0247 2.29672 39.2939 2.62686C39.4076 2.76637 39.52 2.90705 39.6309 3.0489C39.8933 3.38445 39.834 3.86917 39.4985 4.13157C39.1629 4.39396 38.6782 4.33467 38.4158 3.99913C38.3113 3.86551 38.2055 3.73298 38.0983 3.60156C37.8292 3.27142 37.8786 2.78559 38.2088 2.51643ZM-3.95091 7.26392C-3.56918 7.45292 -3.41296 7.9156 -3.60197 8.29733C-3.67716 8.44918 -3.75084 8.6019 -3.82301 8.75548C-4.00416 9.141 -4.46353 9.30668 -4.84905 9.12553C-5.23457 8.94438 -5.40024 8.485 -5.21909 8.09948C-5.14244 7.93636 -5.06418 7.77414 -4.98432 7.61286C-4.79531 7.23113 -4.33264 7.0749 -3.95091 7.26392ZM41.4707 7.26392C41.8524 7.07491 42.3151 7.23113 42.5041 7.61286C42.584 7.77414 42.6622 7.93636 42.7389 8.09948C42.92 8.485 42.7543 8.94438 42.3688 9.12553C41.9833 9.30668 41.5239 9.141 41.3428 8.75548C41.2706 8.60191 41.1969 8.44918 41.1217 8.29733C40.9327 7.9156 41.089 7.45293 41.4707 7.26392ZM-6.07143 12.6189C-5.65706 12.7176 -5.40115 13.1335 -5.49984 13.5479C-5.53909 13.7127 -5.5767 13.8781 -5.61266 14.0441C-5.70282 14.4604 -6.11339 14.7248 -6.52969 14.6347C-6.946 14.5445 -7.2104 14.1339 -7.12024 13.7176C-7.08205 13.5413 -7.04209 13.3655 -7.0004 13.1905C-6.90171 12.7761 -6.4858 12.5202 -6.07143 12.6189ZM43.5912 12.6189C44.0056 12.5202 44.4215 12.7761 44.5202 13.1905C44.5619 13.3655 44.6018 13.5413 44.64 13.7176C44.7302 14.1339 44.4658 14.5445 44.0495 14.6347C43.6332 14.7248 43.2226 14.4604 43.1324 14.0441C43.0965 13.8781 43.0589 13.7127 43.0196 13.5479C42.9209 13.1335 43.1768 12.7176 43.5912 12.6189ZM-6.93988 18.3132C-6.51395 18.3175 -6.17213 18.6662 -6.1764 19.0922C-6.17726 19.1773 -6.17768 19.2626 -6.17768 19.3479C-6.17768 19.4332 -6.17726 19.5185 -6.1764 19.6036C-6.17213 20.0295 -6.51395 20.3783 -6.93988 20.3826C-7.36582 20.3869 -7.71458 20.045 -7.71885 19.6191C-7.71976 19.5288 -7.72021 19.4384 -7.72021 19.3479C-7.72021 19.2574 -7.71976 19.167 -7.71885 19.0767C-7.71458 18.6508 -7.36582 18.3089 -6.93988 18.3132ZM44.4597 18.3132C44.8856 18.3089 45.2343 18.6508 45.2386 19.0767C45.2395 19.167 45.24 19.2574 45.24 19.3479C45.24 19.4384 45.2395 19.5288 45.2386 19.6191C45.2343 20.045 44.8856 20.3869 44.4597 20.3826C44.0337 20.3783 43.6919 20.0295 43.6962 19.6036C43.697 19.5185 43.6975 19.4332 43.6975 19.3479C43.6975 19.2626 43.697 19.1773 43.6962 19.0922C43.6919 18.6662 44.0337 18.3175 44.4597 18.3132ZM-6.5297 24.0611C-6.11339 23.971 -5.70282 24.2354 -5.61266 24.6517C-5.5767 24.8177 -5.53909 24.9831 -5.49985 25.1479C-5.40116 25.5623 -5.65706 25.9782 -6.07143 26.0769C-6.4858 26.1756 -6.90171 25.9197 -7.0004 25.5053C-7.04209 25.3303 -7.08205 25.1545 -7.12024 24.9782C-7.2104 24.5619 -6.946 24.1513 -6.5297 24.0611ZM44.0495 24.0611C44.4658 24.1513 44.7302 24.5619 44.64 24.9782C44.6018 25.1545 44.5619 25.3303 44.5202 25.5053C44.4215 25.9197 44.0056 26.1756 43.5912 26.0769C43.1768 25.9782 42.9209 25.5623 43.0196 25.1479C43.0589 24.9831 43.0965 24.8177 43.1324 24.6517C43.2226 24.2354 43.6332 23.971 44.0495 24.0611ZM-4.84905 29.5703C-4.46353 29.3891 -4.00416 29.5548 -3.82301 29.9403C-3.75084 30.0939 -3.67716 30.2466 -3.60197 30.3985C-3.41296 30.7802 -3.56918 31.2429 -3.95091 31.4319C-4.33264 31.6209 -4.79531 31.4647 -4.98432 31.0829C-5.06418 30.9216 -5.14245 30.7594 -5.2191 30.5963C-5.40025 30.2108 -5.23457 29.7514 -4.84905 29.5703ZM42.3688 29.5703C42.7543 29.7514 42.92 30.2108 42.7389 30.5963C42.6622 30.7594 42.5839 30.9217 42.5041 31.0829C42.3151 31.4647 41.8524 31.6209 41.4707 31.4319C41.0889 31.2429 40.9327 30.7802 41.1217 30.3985C41.1969 30.2466 41.2706 30.0939 41.3428 29.9403C41.5239 29.5548 41.9833 29.3891 42.3688 29.5703ZM-1.97868 34.5642C-1.64314 34.3018 -1.15842 34.3611 -0.896021 34.6967C-0.791528 34.8303 -0.6857 34.9628 -0.57856 35.0942C-0.309404 35.4244 -0.358846 35.9102 -0.688991 36.1794C-1.01913 36.4485 -1.50496 36.3991 -1.77412 36.0689C-1.88785 35.9294 -2.00019 35.7887 -2.11112 35.6469C-2.37352 35.3113 -2.31423 34.8266 -1.97868 34.5642ZM39.4985 34.5642C39.834 34.8266 39.8933 35.3114 39.6309 35.6469C39.52 35.7887 39.4076 35.9294 39.2939 36.0689C39.0247 36.3991 38.5389 36.4485 38.2088 36.1794C37.8786 35.9102 37.8292 35.4244 38.0983 35.0942C38.2055 34.9628 38.3113 34.8303 38.4158 34.6967C38.6782 34.3611 39.1629 34.3018 39.4985 34.5642ZM1.92842 38.7968C2.19757 38.4666 2.6834 38.4172 3.01355 38.6863C3.14496 38.7935 3.27749 38.8993 3.41111 39.0038C3.74665 39.2662 3.80595 39.7509 3.54355 40.0865C3.28115 40.422 2.79643 40.4813 2.46089 40.2189C2.31904 40.108 2.17835 39.9956 2.03885 39.8819C1.7087 39.6127 1.65926 39.1269 1.92842 38.7968ZM35.5913 38.7968C35.8605 39.1269 35.8111 39.6127 35.4809 39.8819C35.3414 39.9956 35.2007 40.108 35.0589 40.2189C34.7233 40.4813 34.2386 40.422 33.9762 40.0865C33.7138 39.7509 33.7731 39.2662 34.1087 39.0038C34.2423 38.8993 34.3748 38.7935 34.5062 38.6863C34.8364 38.4172 35.3222 38.4666 35.5913 38.7968ZM6.6759 42.0587C6.86491 41.677 7.32759 41.5207 7.70931 41.7097C7.86117 41.7849 8.01389 41.8586 8.16747 41.9308C8.55299 42.1119 8.71866 42.5713 8.53751 42.9568C8.35637 43.3424 7.89699 43.508 7.51147 43.3269C7.34834 43.2502 7.18613 43.172 7.02485 43.0921C6.64312 42.9031 6.48689 42.4404 6.6759 42.0587ZM30.8439 42.0587C31.0329 42.4404 30.8766 42.9031 30.4949 43.0921C30.3336 43.172 30.1714 43.2502 30.0083 43.3269C29.6228 43.508 29.1634 43.3424 28.9823 42.9568C28.8011 42.5713 28.9668 42.1119 29.3523 41.9308C29.5059 41.8586 29.6586 41.7849 29.8105 41.7097C30.1922 41.5207 30.6549 41.677 30.8439 42.0587ZM12.0309 44.1792C12.1296 43.7648 12.5455 43.5089 12.9599 43.6076C13.1246 43.6469 13.2901 43.6845 13.4561 43.7204C13.8724 43.8106 14.1368 44.2212 14.0466 44.6375C13.9565 45.0538 13.5459 45.3182 13.1296 45.228C12.9532 45.1898 12.7775 45.1499 12.6025 45.1082C12.1881 45.0095 11.9322 44.5936 12.0309 44.1792ZM25.4889 44.1792C25.5876 44.5936 25.3317 45.0095 24.9173 45.1082C24.7422 45.1499 24.5665 45.1898 24.3901 45.228C23.9738 45.3182 23.5633 45.0538 23.4731 44.6375C23.383 44.2212 23.6474 43.8106 24.0637 43.7204C24.2297 43.6845 24.3951 43.6469 24.5599 43.6076C24.9743 43.5089 25.3902 43.7648 25.4889 44.1792ZM17.7252 45.0477C17.7295 44.6217 18.0782 44.2799 18.5042 44.2842C18.5893 44.285 18.6745 44.2855 18.7599 44.2855C18.8452 44.2855 18.9305 44.285 19.0156 44.2842C19.4415 44.2799 19.7903 44.6217 19.7946 45.0477C19.7988 45.4736 19.457 45.8224 19.0311 45.8266C18.9408 45.8275 18.8504 45.828 18.7599 45.828C18.6694 45.828 18.579 45.8275 18.4887 45.8266C18.0627 45.8224 17.7209 45.4736 17.7252 45.0477Z" fill="#5D5D66"/>
</g>
</svg>
