<svg width="123" height="77" viewBox="0 0 123 77" fill="none" xmlns="http://www.w3.org/2000/svg">
<path d="M17.8501 76.0819H13.9327L20.5662 62.7754H25.5283L27.7221 76.0819H23.8046L22.4988 66.4399H22.3943L17.8501 76.0819ZM18.0068 70.8321H25.3716L24.9015 73.535H17.5367L18.0068 70.8321Z" fill="#C4C4C4"/>
<path d="M29.0099 76.0819L31.2298 62.7754H40.6317L40.1354 65.6862H34.3637L33.9981 67.9733H39.1953L38.699 70.8841H33.5019L32.6401 76.0819H29.0099Z" fill="#C4C4C4"/>
<path d="M39.747 76.0819L41.9668 62.7754H51.3687L50.8725 65.6862H45.1008L44.7352 67.9733H49.9323L49.4361 70.8841H44.239L43.3771 76.0819H39.747Z" fill="#C4C4C4"/>
<path d="M56.334 62.7754L54.1142 76.0819H50.484L52.7039 62.7754H56.334Z" fill="#C4C4C4"/>
<path d="M55.8346 76.0819L58.0545 62.7754H61.6846L59.9609 73.1711H65.367L64.8708 76.0819H55.8346Z" fill="#C4C4C4"/>
<path d="M72.1882 62.7754L69.9684 76.0819H66.3382L68.5581 62.7754H72.1882Z" fill="#C4C4C4"/>
<path d="M75.1622 76.0819H71.2448L77.8783 62.7754H82.8404L85.0342 76.0819H81.1167L79.8109 66.4399H79.7065L75.1622 76.0819ZM75.3189 70.8321H82.6837L82.2136 73.535H74.8488L75.3189 70.8321Z" fill="#C4C4C4"/>
<path d="M85.9923 65.6862L86.4885 62.7754H98.1103L97.6141 65.6862H93.5921L91.8685 76.0819H88.2906L90.0142 65.6862H85.9923Z" fill="#C4C4C4"/>
<path d="M97.2566 76.0819L99.4765 62.7754H109.113L108.617 65.6862H102.61L102.245 67.9733H107.755L107.259 70.8841H101.749L101.383 73.1711H107.364L106.867 76.0819H97.2566Z" fill="#C4C4C4"/>
<path fill-rule="evenodd" clip-rule="evenodd" d="M27.2608 19.8104C25.4988 23.5028 22.8765 25.093 19.0561 25.093C14.6302 25.093 12.0956 22.6437 13.4287 16.4166C14.7618 10.1896 18.4115 7.73788 23.3564 7.73788C28.0393 7.73788 28.8073 10.9172 28.6816 13.1082H41.1996C40.8208 14.1896 40.5134 15.2948 40.2802 16.4166C40.0938 17.2599 39.951 18.1123 39.8525 18.9703L43.4725 19.8104H27.2608ZM82.1739 1.07122H109.741C120.138 1.07122 124.778 5.11199 122.381 16.4083C120.104 27.1916 113.66 31.7455 103.48 31.7455H79.6284L84.4775 8.98092L96.0653 11.4895L93.3764 24.0135H100.335C105.877 24.0135 108.711 21.2656 109.741 16.4107C110.771 11.5559 109.141 8.80791 103.599 8.80791H82.4309C82.874 10.8378 82.8598 13.3357 82.194 16.4107C78.8013 32.3048 65.0972 32.8201 57.7538 32.8201C51.457 32.8201 40.6143 32.4398 39.786 22.3237C38.3249 25.2116 36.4682 27.591 33.7428 29.3376C30.3145 31.5712 25.4087 32.8192 18.0204 32.8192C10.6736 32.8192 -2.85643 32.3024 0.536147 16.4083C3.92873 0.514278 17.6377 0 24.9845 0C31.7117 0 41.5919 0.801042 42.3515 10.41C47.5156 0.376822 58.4341 0 64.7024 0C69.4162 0 76.6553 0.21448 80.362 4.54202L82.1739 1.07122ZM53.1562 16.4107C53.8991 12.9399 55.3601 10.6434 57.3639 9.28901L50.1794 7.73196H64.6575V7.82793C68.5596 8.33155 70.4876 10.8828 69.3084 16.4107C67.9766 22.6378 64.3234 25.0871 59.3855 25.0871C54.4478 25.0871 51.823 22.6378 53.1562 16.4107Z" fill="url(#paint0_linear_6_67)"/>
<path fill-rule="evenodd" clip-rule="evenodd" d="M0.00421143 51.7904H5.70393L7.49325 43.3463H7.5359L12.0744 51.7904H18.6012L21.8101 36.7164H16.1104L14.3329 45.0764H14.2749L10.009 36.7164H3.21312L0.00421143 51.7904ZM27.1105 44.5906C27.7029 43.1379 28.8879 42.5654 30.7224 42.5654C32.5365 42.5654 33.5723 43.3463 33.4026 44.5906H27.1105ZM32.2615 48.328C31.5434 49.0461 30.6821 49.3399 29.3063 49.3399C26.9897 49.3399 26.3722 48.0768 26.563 47.2509H38.1758C39.4792 41.4883 36.0855 39.7761 30.977 39.7761C25.7832 39.7761 22.2592 42.0144 21.4155 46.003C20.528 50.225 23.251 52.2514 28.8028 52.2514C31.2306 52.2514 33.1313 51.8711 34.6292 51.1992C36.127 50.5272 37.2267 49.5307 37.8844 48.328H32.2615ZM39.3547 43.5359H41.803L40.7897 48.2852C40.1357 51.4302 41.2118 52.0428 44.4218 52.0428C45.7274 52.0452 47.0318 51.961 48.3264 51.7904L48.9804 48.7095C48.4732 48.7296 47.9885 48.751 47.5668 48.751C46.4269 48.751 45.9872 48.6881 46.2147 47.6111L47.0821 43.5371H49.9261L50.6229 40.2441H47.7764L48.5788 36.5293H43.3067L42.5046 40.2441H40.0539L39.3547 43.5359ZM52.1703 51.7904H58.3132L61.8385 45.7531L62.7866 51.7904H68.9366L75.3093 40.2429H69.6736L66.1484 47.0648H66.1069L65.2407 40.2465H60.7648L56.8153 47.0648H56.7738L56.3307 40.2465H50.6963L52.1703 51.7904ZM79.7422 46.0054C80.1429 44.1901 81.2614 43.1983 83.373 43.1983C85.506 43.1983 86.1802 44.1901 85.7798 46.0054C85.3995 47.8635 84.307 48.8339 82.174 48.8339C80.0682 48.8339 79.3666 47.8635 79.7471 46.0054H79.7422ZM74.2121 46.0054C73.3045 50.2714 75.4753 52.2539 81.4308 52.2539C87.3866 52.2539 90.4025 50.2702 91.3101 46.0054C92.2178 41.7633 90.047 39.7783 84.0912 39.7783C78.1356 39.7783 75.1198 41.7633 74.2121 46.0054ZM91.4771 51.7953H96.7491L97.6794 47.4677C98.2055 44.9792 100.339 44.3642 102.218 44.3642C103.146 44.3642 103.885 44.555 104.771 44.785L105.764 40.0568C105.198 39.9725 104.626 39.9303 104.053 39.9301C102.239 39.9301 100.36 40.6671 98.6084 42.4635H98.5656L99.0397 40.2429H93.9371L91.4891 51.7904L91.4771 51.7953ZM104.275 51.7953H109.547L110.097 49.2616L112.016 47.9108L113.938 51.7953H121.073L116.836 44.5491L122.997 40.2429H115.994L111.225 43.9839L112.871 36.1927H107.593L104.275 51.7941V51.7953Z" fill="#1A1A1A"/>
<path fill-rule="evenodd" clip-rule="evenodd" d="M27.2608 19.8104C25.4988 23.5028 22.8765 25.093 19.0561 25.093C14.6302 25.093 12.0956 22.6437 13.4287 16.4166C14.7618 10.1896 18.4115 7.73788 23.3564 7.73788C28.0393 7.73788 28.8073 10.9172 28.6816 13.1082H41.1996C40.8208 14.1896 40.5134 15.2948 40.2802 16.4166C40.0938 17.2599 39.951 18.1123 39.8525 18.9703L43.4725 19.8104H27.2608ZM82.1739 1.07122H109.741C120.138 1.07122 124.778 5.11199 122.381 16.4083C120.104 27.1916 113.66 31.7455 103.48 31.7455H79.6284L84.4775 8.98092L96.0653 11.4895L93.3764 24.0135H100.335C105.877 24.0135 108.711 21.2656 109.741 16.4107C110.771 11.5559 109.141 8.80791 103.599 8.80791H82.4309C82.874 10.8378 82.8598 13.3357 82.194 16.4107C78.8013 32.3048 65.0972 32.8201 57.7538 32.8201C51.457 32.8201 40.6143 32.4398 39.786 22.3237C38.3249 25.2116 36.4682 27.591 33.7428 29.3376C30.3145 31.5712 25.4087 32.8192 18.0204 32.8192C10.6736 32.8192 -2.85643 32.3024 0.536147 16.4083C3.92873 0.514278 17.6377 0 24.9845 0C31.7117 0 41.5919 0.801042 42.3515 10.41C47.5156 0.376822 58.4341 0 64.7024 0C69.4162 0 76.6553 0.21448 80.362 4.54202L82.1739 1.07122ZM53.1562 16.4107C53.8991 12.9399 55.3601 10.6434 57.3639 9.28901L50.1794 7.73196H64.6575V7.82793C68.5596 8.33155 70.4876 10.8828 69.3084 16.4107C67.9766 22.6378 64.3234 25.0871 59.3855 25.0871C54.4478 25.0871 51.823 22.6378 53.1562 16.4107Z" fill="#F99A1A"/>
<path fill-rule="evenodd" clip-rule="evenodd" d="M0.00421143 51.7904H5.70393L7.49325 43.3463H7.5359L12.0744 51.7904H18.6012L21.8101 36.7164H16.1104L14.3329 45.0764H14.2749L10.009 36.7164H3.21312L0.00421143 51.7904ZM27.1105 44.5906C27.7029 43.1379 28.8879 42.5654 30.7224 42.5654C32.5365 42.5654 33.5723 43.3463 33.4026 44.5906H27.1105ZM32.2615 48.328C31.5434 49.0461 30.6821 49.3399 29.3063 49.3399C26.9897 49.3399 26.3722 48.0768 26.563 47.2509H38.1758C39.4792 41.4883 36.0855 39.7761 30.977 39.7761C25.7832 39.7761 22.2592 42.0144 21.4155 46.003C20.528 50.225 23.251 52.2514 28.8028 52.2514C31.2306 52.2514 33.1313 51.8711 34.6292 51.1992C36.127 50.5272 37.2267 49.5307 37.8844 48.328H32.2615ZM39.3547 43.5359H41.803L40.7897 48.2852C40.1357 51.4302 41.2118 52.0428 44.4218 52.0428C45.7274 52.0452 47.0318 51.961 48.3264 51.7904L48.9804 48.7095C48.4732 48.7296 47.9885 48.751 47.5668 48.751C46.4269 48.751 45.9872 48.6881 46.2147 47.6111L47.0821 43.5371H49.9261L50.6229 40.2441H47.7764L48.5788 36.5293H43.3067L42.5046 40.2441H40.0539L39.3547 43.5359ZM52.1703 51.7904H58.3132L61.8385 45.7531L62.7866 51.7904H68.9366L75.3093 40.2429H69.6736L66.1484 47.0648H66.1069L65.2407 40.2465H60.7648L56.8153 47.0648H56.7738L56.3307 40.2465H50.6963L52.1703 51.7904ZM79.7422 46.0054C80.1429 44.1901 81.2614 43.1983 83.373 43.1983C85.506 43.1983 86.1802 44.1901 85.7798 46.0054C85.3995 47.8635 84.307 48.8339 82.174 48.8339C80.0682 48.8339 79.3666 47.8635 79.7471 46.0054H79.7422ZM74.2121 46.0054C73.3045 50.2714 75.4753 52.2539 81.4308 52.2539C87.3866 52.2539 90.4025 50.2702 91.3101 46.0054C92.2178 41.7633 90.047 39.7783 84.0912 39.7783C78.1356 39.7783 75.1198 41.7633 74.2121 46.0054ZM91.4771 51.7953H96.7491L97.6794 47.4677C98.2055 44.9792 100.339 44.3642 102.218 44.3642C103.146 44.3642 103.885 44.555 104.771 44.785L105.764 40.0568C105.198 39.9725 104.626 39.9303 104.053 39.9301C102.239 39.9301 100.36 40.6671 98.6084 42.4635H98.5656L99.0397 40.2429H93.9371L91.4891 51.7904L91.4771 51.7953ZM104.275 51.7953H109.547L110.097 49.2616L112.016 47.9108L113.938 51.7953H121.073L116.836 44.5491L122.997 40.2429H115.994L111.225 43.9839L112.871 36.1927H107.593L104.275 51.7941V51.7953Z" fill="#1A1A1A"/>
<defs>
<linearGradient id="paint0_linear_6_67" x1="115.765" y1="35.8264" x2="0.0740052" y2="-5.29684" gradientUnits="userSpaceOnUse">
<stop stop-color="#FF7B00"/>
<stop offset="1" stop-color="#FFC685"/>
</linearGradient>
</defs>
</svg>
