<svg width="900" height="451" viewBox="0 0 900 451" fill="none" xmlns="http://www.w3.org/2000/svg">
<g clip-path="url(#clip0_77_7)">
<g style="mix-blend-mode:multiply" opacity="0.5">
<path d="M900 450.928C900 331.58 852.589 217.121 768.198 132.73C683.807 48.3383 569.347 0.927743 450 0.927734C330.653 0.927725 216.193 48.3383 131.802 132.73C47.4106 217.121 1.8021e-05 331.58 0 450.928H450H900Z" fill="#FFFAE9"/>
</g>
<g style="mix-blend-mode:multiply" opacity="0.5">
<path d="M820.776 450.927C820.776 352.591 781.712 258.283 712.178 188.749C642.644 119.215 548.336 80.1511 450 80.1511C351.664 80.1511 257.356 119.215 187.822 188.749C118.288 258.283 79.2236 352.591 79.2236 450.927H450H820.776Z" fill="#FFFAE9"/>
</g>
<g style="mix-blend-mode:multiply" opacity="0.5">
<path d="M742.979 450.927C742.979 373.225 712.112 298.704 657.168 243.76C602.223 188.816 527.703 157.948 450 157.948C372.297 157.948 297.777 188.816 242.832 243.76C187.888 298.704 157.021 373.225 157.021 450.927H450H742.979Z" fill="#FFFAE9"/>
</g>
<g style="mix-blend-mode:multiply" opacity="0.5">
<path d="M664.562 450.927C664.562 394.022 641.957 339.447 601.718 299.209C561.48 258.971 506.905 236.365 450 236.365C393.095 236.365 338.52 258.971 298.282 299.209C258.043 339.447 235.438 394.022 235.438 450.927H450H664.562Z" fill="#FFFAE9"/>
</g>
</g>
<defs>
<clipPath id="clip0_77_7">
<rect width="900" height="451" fill="white"/>
</clipPath>
</defs>
</svg>
