<svg width="118" height="21" viewBox="0 0 118 21" fill="none" xmlns="http://www.w3.org/2000/svg">
<path d="M12 12.8032V19.6332H7.51V12.7532L0 0.323242H4.76L9.94 8.92324L15.12 0.323242H19.52L12 12.8032Z" fill="#1A2A3A"/>
<path d="M18.2803 12.2332C18.2803 7.78324 21.7503 4.57324 26.4603 4.57324C31.1703 4.57324 34.5803 7.73324 34.5803 12.2332C34.5803 16.7332 31.1703 19.8932 26.4603 19.8932C21.7503 19.8932 18.2803 16.7432 18.2803 12.2332ZM30.2803 12.2332C30.2803 9.64324 28.6703 8.09324 26.5003 8.09324C24.3303 8.09324 22.6703 9.64324 22.6703 12.2332C22.6703 14.8232 24.3203 16.3732 26.5003 16.3732C28.6803 16.3732 30.2403 14.8232 30.2403 12.2332H30.2803Z" fill="#1A2A3A"/>
<path d="M52.4499 4.83301V19.693H48.3599V17.933C47.7818 18.5798 47.0702 19.0936 46.2744 19.4389C45.4785 19.7842 44.6172 19.9527 43.7499 19.933C40.0199 19.933 37.3799 17.813 37.3799 13.263V4.83301H41.6799V12.593C41.6799 15.083 42.7599 16.173 44.6799 16.173C46.5999 16.173 48.0999 14.873 48.0999 12.173V4.83301H52.4499Z" fill="#1A2A3A"/>
<path d="M55.5498 10.0131C55.5498 4.16309 59.9998 0.0130896 66.0598 0.0130896C67.5658 -0.0644649 69.0695 0.203376 70.4561 0.796133C71.8426 1.38889 73.0753 2.29086 74.0598 3.43309L71.1598 6.07309C70.5714 5.35425 69.8294 4.77634 68.9884 4.38179C68.1474 3.98725 67.2287 3.78609 66.2998 3.79309C65.4755 3.76365 64.654 3.90447 63.8866 4.20677C63.1192 4.50907 62.4223 4.96634 61.8396 5.55004C61.2568 6.13374 60.8007 6.83132 60.4996 7.59922C60.1985 8.36713 60.059 9.18885 60.0898 10.0131C60.0328 11.5947 60.6031 13.1347 61.6763 14.2978C62.7495 15.4609 64.2388 16.1529 65.8198 16.2231H66.2998C67.2291 16.2322 68.1485 16.0321 68.9898 15.6373C69.8312 15.2426 70.5728 14.6636 71.1598 13.9431L74.0598 16.5831C73.0787 17.7327 71.848 18.6429 70.4615 19.2443C69.0751 19.8457 67.5695 20.1223 66.0598 20.0531C60.0598 20.0031 55.5498 15.8631 55.5498 10.0131Z" fill="#1A2A3A"/>
<path d="M89.7697 11.2034V19.6934H85.7697V17.8234C84.9997 19.1734 83.4397 19.8934 81.2197 19.8934C77.7497 19.8934 75.6797 17.9834 75.6797 15.3934C75.6797 12.8034 77.5397 10.9434 82.0497 10.9434H85.4597C85.4597 9.07344 84.3797 7.94344 82.0497 7.94344C80.5028 7.92313 78.992 8.41149 77.7497 9.33344L76.1997 6.33344C78.1149 5.1113 80.3482 4.48166 82.6197 4.52344C87.1297 4.57344 89.7697 6.69344 89.7697 11.2034ZM85.4797 14.9834V13.5234H82.4797C80.4797 13.5234 79.8397 14.2534 79.8397 15.2834C79.8397 16.3134 80.7797 17.1034 82.2797 17.1034C82.9535 17.1163 83.6155 16.9256 84.1793 16.5563C84.743 16.187 85.1823 15.6563 85.4397 15.0334L85.4797 14.9834Z" fill="#1A2A3A"/>
<path d="M108.88 11.1435V19.6335H104.58V11.8235C104.58 9.44353 103.49 8.30353 101.58 8.30353C99.5 8.30353 98 9.59353 98 12.3035V19.6535H93.71V4.78353H97.85V6.52353C98.4783 5.85635 99.2429 5.33237 100.092 4.98724C100.941 4.64212 101.854 4.48396 102.77 4.52353C106.24 4.57353 108.88 6.64353 108.88 11.1435Z" fill="#1A2A3A"/>
<path d="M114.06 3.57324C114.599 3.57436 115.128 3.71198 115.6 3.97324C116.094 4.23866 116.5 4.64159 116.77 5.13324C117.043 5.61154 117.188 6.15243 117.19 6.70324C117.191 7.25007 117.05 7.78781 116.78 8.26324C116.511 8.75214 116.109 9.15447 115.62 9.42324C115.143 9.69129 114.606 9.83247 114.06 9.83324C113.514 9.82984 112.977 9.68883 112.5 9.42324C112.013 9.15186 111.611 8.75017 111.34 8.26324C111.074 7.78596 110.933 7.24943 110.93 6.70324C110.932 6.15243 111.077 5.61154 111.35 5.13324C111.619 4.64159 112.026 4.23866 112.52 3.97324C112.991 3.71319 113.521 3.57565 114.06 3.57324V3.57324ZM114.06 4.09324C113.612 4.0959 113.173 4.20928 112.78 4.42324C112.356 4.65199 112.008 4.99957 111.78 5.42324C111.554 5.8232 111.433 6.27397 111.43 6.73324C111.427 7.07673 111.493 7.41733 111.623 7.73519C111.753 8.05305 111.945 8.34184 112.188 8.58473C112.431 8.82762 112.72 9.01977 113.038 9.14999C113.356 9.28021 113.696 9.34591 114.04 9.34324C114.495 9.34439 114.943 9.22723 115.34 9.00324C115.762 8.77265 116.109 8.42553 116.34 8.00324C116.562 7.60615 116.679 7.15853 116.68 6.70324C116.681 6.24331 116.56 5.79127 116.33 5.39324C116.102 4.96886 115.754 4.62103 115.33 4.39324C114.937 4.1928 114.501 4.0899 114.06 4.09324V4.09324ZM115.06 7.21324L115.57 7.36324C115.491 7.69167 115.305 7.98411 115.04 8.19324C114.75 8.4051 114.398 8.5142 114.04 8.50324C113.819 8.51219 113.598 8.47402 113.393 8.39126C113.188 8.3085 113.003 8.18306 112.85 8.02324C112.529 7.66452 112.364 7.19354 112.39 6.71324C112.372 6.36735 112.444 6.02277 112.6 5.71324C112.728 5.45338 112.934 5.2401 113.19 5.10324C113.461 4.96029 113.763 4.88806 114.07 4.89324C114.396 4.88149 114.718 4.97243 114.99 5.15324C115.231 5.33201 115.406 5.58496 115.49 5.87324L114.99 5.99324C114.917 5.80249 114.788 5.63849 114.62 5.52324C114.45 5.4136 114.251 5.35782 114.05 5.36324C113.903 5.35907 113.757 5.38737 113.622 5.44614C113.487 5.50491 113.367 5.5927 113.27 5.70324C113.155 5.84118 113.068 6.00058 113.015 6.17222C112.961 6.34386 112.943 6.52434 112.96 6.70324C112.923 7.06156 113.027 7.42007 113.25 7.70324C113.429 7.89393 113.673 8.01089 113.933 8.03124C114.194 8.05158 114.453 7.97385 114.66 7.81324C114.867 7.67174 115.013 7.45758 115.07 7.21324H115.06Z" fill="#1A2A3A"/>
</svg>
