<svg width="124" height="25" viewBox="0 0 124 25" fill="none" xmlns="http://www.w3.org/2000/svg">
<path fill-rule="evenodd" clip-rule="evenodd" d="M24.1728 7.04101C23.5677 7.31595 23.074 7.78848 22.7728 8.38101C22.3261 9.07523 22.0553 9.86786 21.9839 10.6903C21.9125 11.5127 22.0425 12.3402 22.3628 13.101C22.4453 13.3212 22.579 13.5186 22.7529 13.6769C22.9268 13.8351 23.1359 13.9497 23.3628 14.011C23.6027 14.0228 23.8422 13.9824 24.0649 13.8926C24.2876 13.8029 24.4882 13.6658 24.6528 13.491C25.3825 12.7644 25.8563 11.8203 26.0028 10.801C26.2526 9.64736 26.0523 8.44189 25.4428 7.43101C25.2975 7.2426 25.0973 7.10392 24.8699 7.03407C24.6424 6.96422 24.3989 6.96664 24.1728 7.04101V7.04101Z" fill="#1A2A3A"/>
<path fill-rule="evenodd" clip-rule="evenodd" d="M34.8631 7.04059C34.2117 7.36487 33.6899 7.90083 33.3831 8.56059C32.9691 9.25192 32.7284 10.0331 32.6814 10.8375C32.6344 11.6419 32.7825 12.4457 33.1131 13.1806C33.1876 13.3973 33.3203 13.5894 33.4967 13.7358C33.6731 13.8821 33.8863 13.9772 34.1131 14.0106C34.6254 13.986 35.1072 13.7595 35.4531 13.3806C36.2105 12.5565 36.6623 11.4976 36.7331 10.3806C36.8911 9.33605 36.6636 8.2697 36.0931 7.38059C35.9462 7.20658 35.7501 7.08101 35.5306 7.02034C35.3112 6.95967 35.0785 6.96672 34.8631 7.04059V7.04059Z" fill="#1A2A3A"/>
<path fill-rule="evenodd" clip-rule="evenodd" d="M40.5326 1.00093C39.7962 0.336935 38.834 -0.020766 37.8426 0.000932441H3.84263C3.09122 0.0204399 2.36118 0.255021 1.73905 0.67686C1.11693 1.0987 0.628829 1.6901 0.332628 2.38093C0.0933185 2.98488 -0.0190177 3.63166 0.00262601 4.28093C0.00262601 8.51093 0.00262601 12.7609 0.00262601 17.0209C0.0405302 17.9924 0.4381 18.9152 1.11814 19.61C1.79819 20.3048 2.71217 20.7221 3.68263 20.7809C9.13263 20.7809 14.5726 20.7809 20.0026 20.7809C22.4926 22.1109 24.9126 23.5109 27.3826 24.8709L25.7126 20.7609C29.8426 20.7609 33.9726 20.7609 38.1026 20.7609C39.0746 20.7066 39.9912 20.2907 40.6721 19.5949C41.3531 18.8992 41.7492 17.9739 41.7826 17.0009V4.00093C41.8022 3.44041 41.7007 2.88225 41.485 2.36452C41.2693 1.8468 40.9444 1.38169 40.5326 1.00093V1.00093ZM17.1226 17.2309C17.1678 17.5592 17.0992 17.8931 16.9281 18.1769C16.7571 18.4608 16.494 18.6775 16.1826 18.7909C15.8678 18.8242 15.5497 18.7743 15.2602 18.6462C14.9706 18.5181 14.7198 18.3163 14.5326 18.0609C12.7816 15.9929 11.5293 13.55 10.8726 10.9209C10.1126 12.4209 9.35263 13.9209 8.61263 15.4509C8.14851 16.5251 7.50989 17.5152 6.72263 18.3809C6.37263 18.7309 5.78263 19.0409 5.33263 18.6909C4.75907 18.0223 4.36961 17.2159 4.20263 16.3509C3.19417 12.5637 2.40948 8.72038 1.85262 4.84093C1.76793 4.51903 1.79737 4.17774 1.93593 3.8751C2.07449 3.57245 2.31361 3.32716 2.61263 3.18093C2.87451 3.06241 3.16295 3.01481 3.44903 3.04289C3.73511 3.07097 4.00879 3.17375 4.24263 3.34093C4.50192 3.62932 4.65992 3.9945 4.69262 4.38093C5.14262 7.38093 5.69263 10.3809 6.39263 13.3009C7.63263 10.9609 8.86596 8.6276 10.0926 6.30093C10.2609 5.94151 10.5151 5.629 10.8326 5.39093C11.0633 5.24427 11.3366 5.17934 11.6086 5.20654C11.8806 5.23374 12.1356 5.3515 12.3326 5.54093C12.6179 5.89405 12.7981 6.32028 12.8526 6.77093C13.2075 8.6851 13.7364 10.5629 14.4326 12.3809C14.6488 9.58561 15.2236 6.82968 16.1426 4.18093C16.328 3.6231 16.5978 3.09698 16.9426 2.62093C17.1056 2.47479 17.2983 2.36582 17.5075 2.30156C17.7167 2.2373 17.9374 2.21929 18.1543 2.24878C18.3712 2.27826 18.579 2.35454 18.7635 2.47233C18.948 2.59012 19.1046 2.7466 19.2226 2.93093C19.3423 3.13205 19.4103 3.35962 19.4208 3.5934C19.4313 3.82718 19.3838 4.05993 19.2826 4.27093C18.5004 6.01953 17.9749 7.87201 17.7226 9.77093C17.2659 12.2302 17.0648 14.7302 17.1226 17.2309V17.2309ZM27.8526 13.9909C27.3749 14.9646 26.6423 15.7905 25.7326 16.3809C25.0338 16.781 24.2377 16.9797 23.4329 16.9549C22.628 16.9302 21.8456 16.6831 21.1726 16.2409C20.1452 15.4579 19.4607 14.3075 19.2626 13.0309C18.9975 11.6141 19.084 10.1538 19.5146 8.7782C19.9453 7.40259 20.7069 6.15365 21.7326 5.14093C22.3372 4.5943 23.0943 4.2454 23.9026 4.14093C24.5751 4.05201 25.259 4.12343 25.8986 4.34937C26.5382 4.57531 27.1152 4.94935 27.5826 5.44093C28.2976 6.29376 28.7493 7.33605 28.8826 8.44093C29.1206 10.3529 28.7608 12.2917 27.8526 13.9909V13.9909ZM38.5626 13.9209C38.0747 14.925 37.3207 15.7758 36.3826 16.3809C35.7168 16.7654 34.9615 16.9677 34.1926 16.9677C33.4238 16.9677 32.6685 16.7654 32.0026 16.3809C31.1361 15.8093 30.4905 14.9591 30.1726 13.9709C29.7272 12.4859 29.6774 10.9103 30.0282 9.40009C30.379 7.88991 31.1182 6.49755 32.1726 5.36093C32.8496 4.73994 33.695 4.33289 34.6026 4.19093C35.2521 4.10253 35.9133 4.16379 36.5355 4.37004C37.1577 4.57629 37.7245 4.92206 38.1926 5.38093C38.9879 6.2842 39.4686 7.42112 39.5626 8.62093C39.7626 10.4477 39.4145 12.2926 38.5626 13.9209V13.9209Z" fill="#1A2A3A"/>
<path fill-rule="evenodd" clip-rule="evenodd" d="M48.8324 4.55075C49.9682 4.29558 51.1465 4.29558 52.2824 4.55075V7.38075C51.361 7.05108 50.3538 7.05108 49.4324 7.38075C48.9172 7.66723 48.4896 8.08845 48.1954 8.59929C47.9013 9.11013 47.7516 9.69136 47.7624 10.2807C47.7006 10.8711 47.7935 11.4673 48.0319 12.0108C48.2704 12.5544 48.6462 13.0265 49.1224 13.3808C49.6082 13.6365 50.1423 13.7873 50.6901 13.8235C51.2379 13.8597 51.7872 13.7804 52.3024 13.5907V16.3808C50.918 16.7674 49.448 16.7186 48.0924 16.2408C47.2927 15.9272 46.5742 15.4369 45.9907 14.8066C45.4071 14.1763 44.9735 13.4222 44.7224 12.6007C44.353 11.3421 44.3117 10.0099 44.6024 8.73075C44.8582 7.7172 45.3883 6.79371 46.1345 6.06163C46.8807 5.32956 47.8141 4.81719 48.8324 4.58075M57.1824 4.44075C58.5869 4.2308 60.0184 4.56721 61.1824 5.38075C62.2174 6.28743 62.8711 7.55205 63.0124 8.92075C63.2348 10.3857 63.1289 11.8817 62.7024 13.3008C62.522 13.9078 62.2221 14.4727 61.8202 14.9621C61.4184 15.4515 60.9227 15.8557 60.3624 16.1508C59.1663 16.677 57.828 16.7862 56.5624 16.4608C55.9913 16.3204 55.4557 16.0631 54.9892 15.705C54.5227 15.347 54.1356 14.8961 53.8524 14.3808C53.1255 12.9449 52.8171 11.3335 52.9624 9.73075C52.9641 8.34585 53.4287 7.00128 54.2824 5.91075C55.034 5.07737 56.0665 4.55042 57.1824 4.43075M57.6124 7.08075C57.3306 7.17939 57.0806 7.3522 56.8888 7.58099C56.6969 7.80978 56.5704 8.08607 56.5224 8.38075C56.2808 9.49386 56.2234 10.6391 56.3524 11.7707C56.3702 12.4014 56.5718 13.0131 56.9324 13.5308C57.0818 13.6831 57.2616 13.8023 57.4602 13.8805C57.6587 13.9587 57.8715 13.9943 58.0847 13.9849C58.2979 13.9754 58.5067 13.9212 58.6975 13.8258C58.8884 13.7303 59.057 13.5957 59.1924 13.4307C59.5043 12.9833 59.6813 12.4558 59.7024 11.9108C59.8424 10.9626 59.8424 9.99894 59.7024 9.05075C59.6386 8.46199 59.402 7.90528 59.0224 7.45075C58.8387 7.27347 58.6126 7.14633 58.3657 7.08154C58.1188 7.01676 57.8594 7.01648 57.6124 7.08075M112.422 4.61075C113.617 4.33578 114.858 4.33578 116.052 4.61075C116.052 5.54075 116.052 6.46075 116.052 7.41075C115.148 7.10066 114.167 7.10066 113.262 7.41075C112.766 7.66138 112.345 8.03832 112.042 8.50358C111.738 8.96883 111.562 9.50594 111.532 10.0608C111.429 10.6844 111.496 11.3243 111.724 11.9135C111.953 12.5028 112.336 13.0199 112.832 13.4108C113.319 13.6848 113.86 13.8468 114.417 13.8849C114.975 13.923 115.533 13.8361 116.052 13.6308C116.052 14.5608 116.052 15.5007 116.052 16.4307C114.582 16.8259 113.024 16.7311 111.612 16.1608C110.839 15.8072 110.154 15.2837 109.611 14.6293C109.067 13.9749 108.678 13.2063 108.472 12.3808C108.133 11.1394 108.112 9.83225 108.412 8.58075C108.668 7.62083 109.172 6.74539 109.875 6.043C110.577 5.34061 111.452 4.83619 112.412 4.58075M64.8724 4.67075H68.8724C69.3424 6.80075 69.7924 8.96075 70.2024 11.1207C70.5724 8.94075 71.0924 6.80075 71.6024 4.67075H75.6724C76.2024 8.55075 76.7324 12.4308 77.2324 16.3008H74.1324C73.8424 13.6508 73.5924 10.9808 73.2924 8.30075C72.6524 10.9608 71.9924 13.6308 71.3524 16.3008H69.2424C68.5624 13.6508 67.9024 10.9808 67.2424 8.30075C66.9824 10.9674 66.7157 13.6341 66.4424 16.3008H63.4424C63.9424 12.4341 64.4357 8.55742 64.9224 4.67075M79.1424 4.67075H83.1424C83.6124 6.80075 84.0624 8.96075 84.4724 11.1207C84.8724 8.96075 85.3624 6.80075 85.8724 4.67075H89.8724C90.4124 8.55075 90.9324 12.4274 91.4324 16.3008H88.3324C88.0424 13.6508 87.7724 10.9808 87.4924 8.30075C86.8524 10.9608 86.2124 13.6308 85.5624 16.3008H83.4424C82.7624 13.6308 82.0824 10.9808 81.4424 8.30075C81.1824 10.9808 80.9124 13.6308 80.6424 16.3008H77.6424C78.1624 12.4341 78.6624 8.55742 79.1424 4.67075ZM92.3624 4.67075C94.4724 4.67075 96.6124 4.67075 98.7324 4.67075V7.18075C97.6624 7.18075 96.5924 7.18075 95.5224 7.18075V9.32075H98.3024V11.7308H95.5224V13.8608H98.7524V16.3808H92.3824C92.3824 12.5008 92.3824 8.63075 92.3824 4.75075M99.6524 4.75075C100.992 4.75075 102.302 4.75075 103.652 4.75075C104.933 4.72146 106.18 5.1586 107.162 5.98075C107.572 6.3838 107.863 6.8916 108.005 7.44881C108.146 8.00602 108.131 8.59126 107.962 9.14075C107.827 9.57657 107.602 9.97944 107.303 10.3238C107.003 10.6681 106.635 10.9463 106.222 11.1408C107.042 12.8808 107.882 14.6308 108.722 16.3808H105.422C104.552 14.5908 103.712 12.8008 102.832 11.0408C102.832 12.8207 102.832 14.6108 102.832 16.3808H99.6824C99.6824 12.5108 99.6824 8.63075 99.6824 4.75075M102.832 6.99075V9.76075C103.413 9.7846 103.989 9.64238 104.492 9.35075C104.733 9.12261 104.881 8.8133 104.907 8.48267C104.932 8.15203 104.835 7.82354 104.632 7.56075C104.127 7.14744 103.483 6.94344 102.832 6.99075M117.002 4.70075H123.352V7.18075H120.122V9.32075H122.902V11.7308H120.122V13.8608H123.372V16.3808H117.002C117.002 12.4708 117.002 8.59075 117.002 4.73075" fill="#1A2A3A"/>
</svg>
