<svg width="153" height="26" viewBox="0 0 153 26" fill="none" xmlns="http://www.w3.org/2000/svg">
<path d="M6.1939 6.09216L16.7539 11.6222C16.8222 11.6565 16.8975 11.6743 16.9739 11.6743C17.0503 11.6743 17.1256 11.6565 17.1939 11.6222L27.7539 6.09216C27.7998 6.06728 27.8382 6.03045 27.8649 5.98557C27.8917 5.94068 27.9058 5.88941 27.9058 5.83716C27.9058 5.78492 27.8917 5.73365 27.8649 5.68876C27.8382 5.64387 27.7998 5.60705 27.7539 5.58216L17.1939 0.0521641C17.1256 0.0178633 17.0503 0 16.9739 0C16.8975 0 16.8222 0.0178633 16.7539 0.0521641L6.1939 5.58216C6.14797 5.60705 6.1096 5.64387 6.08287 5.68876C6.05613 5.73365 6.04202 5.78492 6.04202 5.83716C6.04202 5.88941 6.05613 5.94068 6.08287 5.98557C6.1096 6.03045 6.14797 6.06728 6.1939 6.09216V6.09216ZM3.2639 11.1722L16.7539 18.2222C16.8222 18.2565 16.8975 18.2743 16.9739 18.2743C17.0503 18.2743 17.1256 18.2565 17.1939 18.2222L30.6839 11.1722C30.7298 11.1473 30.7682 11.1105 30.7949 11.0656C30.8217 11.0207 30.8358 10.9694 30.8358 10.9172C30.8358 10.8649 30.8217 10.8136 30.7949 10.7688C30.7682 10.7239 30.7298 10.687 30.6839 10.6622L26.8139 8.66216L17.1939 13.7122C17.1256 13.7465 17.0503 13.7643 16.9739 13.7643C16.8975 13.7643 16.8222 13.7465 16.7539 13.7122L7.14391 8.71216L3.2639 10.7122C3.22461 10.7363 3.19216 10.7702 3.16965 10.8104C3.14714 10.8507 3.13533 10.896 3.13533 10.9422C3.13533 10.9883 3.14714 11.0337 3.16965 11.0739C3.19216 11.1142 3.22461 11.148 3.2639 11.1722ZM33.7739 16.1722L29.5639 13.9022L17.1939 20.3822C17.1256 20.4165 17.0503 20.4343 16.9739 20.4343C16.8975 20.4343 16.8222 20.4165 16.7539 20.3822L4.39391 13.9022L0.153904 16.1722C0.107625 16.1955 0.0687341 16.2312 0.0415611 16.2754C0.0143881 16.3195 0 16.3703 0 16.4222C0 16.474 0.0143881 16.5248 0.0415611 16.569C0.0687341 16.6131 0.107625 16.6488 0.153904 16.6722L16.7339 25.3722C16.8022 25.4065 16.8775 25.4243 16.9539 25.4243C17.0303 25.4243 17.1056 25.4065 17.1739 25.3722L33.7539 16.6722C33.8036 16.6519 33.8461 16.6173 33.876 16.5728C33.9059 16.5282 33.9219 16.4758 33.9219 16.4222C33.9219 16.3685 33.9059 16.3161 33.876 16.2716C33.8461 16.227 33.8036 16.1924 33.7539 16.1722H33.7739Z" fill="#1A2A3A"/>
<path d="M98.1544 18.4221C97.3032 19.0979 96.2409 19.452 95.1544 19.4221C94.5705 19.4585 93.9855 19.3713 93.4375 19.1663C92.8896 18.9612 92.391 18.6429 91.9745 18.2321V23.7621H89.0645V6.94207H91.5645L91.7545 8.28207C92.1405 7.74683 92.6555 7.31772 93.2516 7.03453C93.8477 6.75133 94.5057 6.62322 95.1645 6.66207C96.2348 6.63795 97.2794 6.99205 98.1145 7.66207C98.8557 8.32207 99.4365 9.14258 99.8125 10.0611C100.189 10.9795 100.35 11.9718 100.284 12.9621C100.367 13.9691 100.217 14.9816 99.8461 15.9215C99.475 16.8613 98.8928 17.7032 98.1445 18.3821L98.1544 18.4221ZM96.5645 10.0821C96.3349 9.76804 96.0336 9.51344 95.6857 9.33948C95.3378 9.16553 94.9534 9.07727 94.5645 9.08207C92.2845 9.08207 91.7944 11.2421 91.7944 13.0021C91.7944 14.7621 92.2545 16.8921 94.5645 16.8921C94.9547 16.9046 95.3418 16.8198 95.691 16.6452C96.0402 16.4706 96.3404 16.2118 96.5645 15.8921C97.1339 14.9999 97.4004 13.9478 97.3244 12.8921C97.361 11.9001 97.096 10.9204 96.5645 10.0821V10.0821Z" fill="#1A2A3A"/>
<path d="M41.1738 19.092V2.54199H44.1738V16.262H49.8938L51.5638 19.112L41.1738 19.092Z" fill="#1A2A3A"/>
<path d="M84.2936 19.092L84.1036 17.752C83.7175 18.2872 83.2026 18.7163 82.6065 18.9995C82.0104 19.2827 81.3524 19.4108 80.6936 19.372C79.624 19.391 78.5811 19.0375 77.7436 18.372C77.0084 17.7086 76.4337 16.8868 76.0629 15.9686C75.6922 15.0504 75.5351 14.0599 75.6036 13.072C75.5302 12.064 75.6864 11.0525 76.0606 10.1137C76.4347 9.17487 77.017 8.33317 77.7636 7.65199C78.6131 6.97305 79.6766 6.61858 80.7636 6.65199C81.3474 6.6057 81.9343 6.68531 82.4846 6.88544C83.035 7.08556 83.5359 7.40154 83.9536 7.81199V2.54199H86.8536V19.092H84.2936ZM81.2936 9.09199C80.9095 9.07862 80.5278 9.15691 80.18 9.32037C79.8322 9.48383 79.5284 9.72777 79.2936 10.032C78.7348 10.9029 78.4686 11.9293 78.5336 12.962C78.4569 14.0178 78.7235 15.0701 79.2936 15.962C79.5273 16.2681 79.8307 16.5139 80.1786 16.6791C80.5264 16.8444 80.9087 16.9242 81.2936 16.912C83.5736 16.912 84.0436 14.742 84.0436 12.992C84.0436 11.242 83.5636 9.11199 81.2936 9.11199V9.09199Z" fill="#1A2A3A"/>
<path d="M124.095 17.7824C122.886 17.1308 121.512 16.8491 120.145 16.9724H118.145C117.545 16.9724 116.805 16.8124 116.805 16.0924C116.824 15.9114 116.889 15.7383 116.994 15.5895C117.099 15.4408 117.241 15.3213 117.405 15.2424C118.049 15.4605 118.725 15.5687 119.405 15.5624C122.005 15.5624 124.245 13.9724 124.245 11.4124C124.257 10.8861 124.12 10.3671 123.852 9.91453C123.583 9.46192 123.192 9.0939 122.725 8.85238H125.235L126.505 6.69238H119.405C116.685 6.69238 114.405 8.25238 114.405 11.1424C114.388 11.6999 114.487 12.2547 114.697 12.7714C114.908 13.288 115.223 13.755 115.625 14.1424C115.187 14.3822 114.821 14.735 114.566 15.1642C114.311 15.5934 114.176 16.0831 114.175 16.5824C114.176 17.0059 114.29 17.4214 114.504 17.7867C114.719 18.152 115.026 18.4542 115.395 18.6624C114.722 19.0663 114.235 19.7174 114.037 20.4762C113.839 21.2351 113.946 22.0414 114.335 22.7224C115.695 24.5924 117.775 24.7924 119.705 24.7924C122.405 24.7924 125.565 23.9424 125.565 20.7424C125.586 20.1697 125.463 19.6008 125.206 19.0885C124.949 18.5763 124.567 18.1373 124.095 17.8124V17.7824ZM119.385 8.85238C119.682 8.83692 119.979 8.88544 120.256 8.99467C120.533 9.1039 120.783 9.27129 120.99 9.48553C121.196 9.69977 121.355 9.95587 121.454 10.2365C121.553 10.5172 121.591 10.8159 121.565 11.1124C121.585 11.4064 121.544 11.7014 121.445 11.979C121.347 12.2567 121.192 12.5111 120.991 12.7265C120.79 12.9418 120.546 13.1135 120.276 13.2309C120.006 13.3483 119.714 13.4089 119.42 13.4089C119.125 13.4089 118.833 13.3483 118.563 13.2309C118.293 13.1135 118.05 12.9418 117.848 12.7265C117.647 12.5111 117.493 12.2567 117.394 11.979C117.295 11.7014 117.255 11.4064 117.275 11.1124C117.248 10.8216 117.283 10.5284 117.377 10.2521C117.472 9.97581 117.624 9.72262 117.823 9.50917C118.022 9.29572 118.264 9.12685 118.533 9.01366C118.803 8.90046 119.093 8.8455 119.385 8.85238V8.85238ZM119.565 22.4624C118.415 22.4624 116.495 22.3224 116.495 20.7724C116.484 20.435 116.587 20.1039 116.789 19.8332C116.991 19.5625 117.278 19.3683 117.605 19.2824H119.885C120.995 19.2824 122.765 19.2824 122.765 20.7724C122.765 22.2624 120.745 22.4624 119.565 22.4624Z" fill="#1A2A3A"/>
<path d="M150.633 9.64251C150.327 9.6503 150.025 9.56571 149.767 9.39972C149.509 9.23372 149.306 8.99399 149.186 8.71166C149.066 8.42932 149.034 8.11742 149.093 7.81644C149.153 7.51547 149.302 7.23932 149.52 7.02385C149.738 6.80838 150.016 6.66355 150.318 6.60816C150.62 6.55276 150.931 6.58936 151.212 6.71321C151.493 6.83705 151.73 7.04242 151.892 7.30265C152.055 7.56288 152.135 7.86595 152.123 8.17252C152.122 8.36687 152.082 8.55907 152.007 8.73813C151.931 8.91719 151.821 9.07961 151.683 9.21611C151.544 9.35262 151.38 9.46053 151.2 9.53369C151.02 9.60686 150.828 9.64383 150.633 9.64251V9.64251ZM150.633 6.85252C150.382 6.84283 150.134 6.90775 149.92 7.03905C149.706 7.17036 149.536 7.36216 149.431 7.59023C149.326 7.81829 149.291 8.07238 149.33 8.32038C149.369 8.56839 149.481 8.79917 149.652 8.98357C149.822 9.16797 150.043 9.29771 150.288 9.3564C150.532 9.41508 150.788 9.40008 151.023 9.31328C151.259 9.22648 151.464 9.07178 151.611 8.86874C151.759 8.66569 151.843 8.42341 151.853 8.17252C151.872 8.00312 151.854 7.83168 151.801 7.66981C151.748 7.50793 151.66 7.35939 151.544 7.23423C151.429 7.10908 151.288 7.01023 151.13 6.94437C150.973 6.87851 150.804 6.84719 150.633 6.85252ZM150.973 8.85252L150.693 8.27252H150.373V8.85252H150.123V7.29252H150.693C150.764 7.28559 150.834 7.29331 150.901 7.31519C150.969 7.33707 151.03 7.37263 151.083 7.41962C151.136 7.46662 151.178 7.52402 151.207 7.58821C151.237 7.65239 151.252 7.72196 151.253 7.79252C151.259 7.88864 151.236 7.98432 151.186 8.06659C151.136 8.14887 151.061 8.21377 150.973 8.25252L151.273 8.88251L150.973 8.85252ZM150.693 7.53252H150.373V8.02252H150.693C150.863 8.02252 150.973 7.95252 150.973 7.76252C150.973 7.57252 150.863 7.56252 150.693 7.56252V7.53252Z" fill="#1A2A3A"/>
<path d="M143.134 19.4119C142.423 19.4167 141.715 19.3156 141.034 19.1119C140.264 18.8931 139.564 18.4759 139.006 17.902C138.448 17.3281 138.051 16.6177 137.854 15.8419L140.234 14.9919C140.395 15.6276 140.777 16.1851 141.312 16.5644C141.848 16.9437 142.5 17.1201 143.154 17.0619C143.75 17.1022 144.347 16.9849 144.884 16.7219C145.069 16.6301 145.224 16.4871 145.33 16.3098C145.436 16.1326 145.49 15.9285 145.484 15.7219C145.484 14.9819 145.024 14.5919 144.244 14.4519L141.334 13.9419C140.512 13.8641 139.748 13.4887 139.184 12.8864C138.621 12.2841 138.297 11.4964 138.274 10.6719C138.274 8.29187 140.414 6.67188 143.154 6.67188C145.514 6.67188 147.404 7.67188 147.974 9.85188L145.584 10.7719C145.456 10.2392 145.146 9.76774 144.708 9.43908C144.27 9.11042 143.731 8.94516 143.184 8.97187C142.775 8.958 142.368 9.02249 141.984 9.16187C141.724 9.23107 141.494 9.38252 141.328 9.59349C141.163 9.80446 141.07 10.0636 141.064 10.3319C141.064 11.1919 141.794 11.3319 142.464 11.4419L144.884 11.9019C146.804 12.2719 148.254 13.4919 148.254 15.3819C148.204 17.8319 146.254 19.3819 143.134 19.3819V19.4119Z" fill="#1A2A3A"/>
<path d="M61.9234 13.7625H53.6534C53.6437 14.1691 53.7169 14.5734 53.8684 14.9509C54.0199 15.3284 54.2466 15.6712 54.5347 15.9583C54.8227 16.2455 55.1662 16.471 55.5442 16.6213C55.9222 16.7716 56.3268 16.8434 56.7334 16.8325C57.3637 16.8797 57.992 16.7183 58.5215 16.3732C59.051 16.028 59.4522 15.5182 59.6634 14.9225L61.9534 15.9225C61.5698 16.9692 60.8606 17.8653 59.9301 18.479C58.9995 19.0928 57.8965 19.392 56.7834 19.3325C53.2534 19.3325 50.6934 16.7525 50.6934 12.9625C50.6934 9.55246 52.7934 6.55245 56.5034 6.55245C57.4375 6.51294 58.3648 6.72848 59.1858 7.17595C60.0067 7.62342 60.6903 8.28595 61.1634 9.09245C61.7798 10.2206 62.0674 11.499 61.9934 12.7825C61.9966 13.1171 61.9732 13.4515 61.9234 13.7825V13.7625ZM58.3734 9.61246C58.1232 9.37169 57.8266 9.18453 57.5016 9.06244C57.1766 8.94035 56.8301 8.88591 56.4834 8.90245C55.7387 8.89698 55.0216 9.18424 54.4867 9.70235C53.9517 10.2205 53.6417 10.928 53.6234 11.6725H59.0634C59.0988 10.9237 58.8526 10.1888 58.3734 9.61246Z" fill="#1A2A3A"/>
<path d="M73.7336 16.0921C73.7336 16.6521 74.0536 16.8521 74.5436 16.8521C74.6566 16.8643 74.7706 16.8643 74.8836 16.8521V18.8521C74.5746 19.0649 74.2195 19.2013 73.8475 19.2501C73.4755 19.2989 73.0972 19.2587 72.7437 19.1327C72.3903 19.0068 72.0718 18.7987 71.8145 18.5257C71.5572 18.2526 71.3684 17.9224 71.2636 17.5621C70.8479 18.151 70.2918 18.6268 69.6457 18.9464C68.9996 19.2659 68.2839 19.4192 67.5636 19.3921C64.6636 19.3921 63.1836 17.5721 63.1836 15.5921C63.1836 13.2821 64.9836 11.9421 67.2936 11.7821L70.8636 11.5321V11.0421C70.8636 9.75211 70.0136 9.04211 68.5836 9.04211C68.2791 8.99712 67.9687 9.01343 67.6705 9.0901C67.3724 9.16677 67.0927 9.30224 66.8476 9.48857C66.6026 9.67489 66.3973 9.9083 66.2438 10.1751C66.0903 10.4419 65.9916 10.7367 65.9536 11.0421L63.5636 10.4921C63.7536 8.49211 65.6936 6.66211 68.7336 6.66211C71.7736 6.66211 73.8036 8.21211 73.8036 11.2721L73.7336 16.0921ZM70.8736 13.7021L67.7836 13.9321C67.3426 13.9182 66.9135 14.0763 66.5869 14.373C66.2603 14.6697 66.0619 15.0818 66.0336 15.5221C66.0379 15.7387 66.0872 15.9521 66.1784 16.1485C66.2697 16.345 66.4009 16.5204 66.5636 16.6634C66.7264 16.8063 66.9171 16.9139 67.1237 16.9791C67.3303 17.0443 67.5482 17.0658 67.7636 17.0421C69.5836 17.0421 70.8736 16.0421 70.8736 14.2521V13.7021Z" fill="#1A2A3A"/>
<path d="M111.754 16.0921C111.754 16.6521 112.074 16.8521 112.564 16.8521C112.677 16.8643 112.791 16.8643 112.904 16.8521V18.8521C112.595 19.0649 112.239 19.2013 111.867 19.2501C111.495 19.2989 111.117 19.2587 110.764 19.1327C110.41 19.0068 110.092 18.7987 109.835 18.5257C109.577 18.2526 109.388 17.9224 109.284 17.5621C108.866 18.1539 108.307 18.6315 107.657 18.9513C107.007 19.271 106.287 19.4225 105.564 19.3921C102.664 19.3921 101.184 17.5721 101.184 15.5921C101.184 13.2821 102.984 11.9421 105.294 11.7821L108.864 11.5321V11.0421C108.864 9.75211 108.014 9.04211 106.584 9.04211C106.279 8.99712 105.969 9.01343 105.671 9.0901C105.372 9.16677 105.093 9.30224 104.848 9.48857C104.603 9.67489 104.397 9.9083 104.244 10.1751C104.09 10.4419 103.992 10.7367 103.954 11.0421L101.564 10.4921C101.744 8.49211 103.684 6.66211 106.724 6.66211C109.764 6.66211 111.794 8.21211 111.794 11.2721L111.754 16.0921ZM108.914 13.7021L105.824 13.9321C105.383 13.9207 104.956 14.0797 104.63 14.3759C104.304 14.6721 104.104 15.0827 104.074 15.5221C104.078 15.7387 104.127 15.9521 104.218 16.1485C104.31 16.345 104.441 16.5204 104.604 16.6634C104.766 16.8063 104.957 16.9139 105.164 16.9791C105.37 17.0443 105.588 17.0658 105.804 17.0421C107.624 17.0421 108.914 16.0421 108.914 14.2521V13.7021Z" fill="#1A2A3A"/>
<path d="M137.044 13.7623H128.774C128.765 14.1698 128.838 14.575 128.99 14.9532C129.142 15.3314 129.37 15.6746 129.659 15.9619C129.948 16.2492 130.293 16.4745 130.672 16.6242C131.051 16.7738 131.457 16.8446 131.864 16.8323C132.493 16.8773 133.119 16.7148 133.646 16.3698C134.174 16.0248 134.574 15.5163 134.784 14.9223L137.074 15.9223C136.692 16.9699 135.983 17.8669 135.052 18.4809C134.121 19.0949 133.018 19.3934 131.904 19.3323C128.374 19.3323 125.824 16.7523 125.824 12.9623C125.824 9.55229 127.914 6.55229 131.634 6.55229C132.567 6.51352 133.493 6.72947 134.312 7.17695C135.131 7.62444 135.813 8.28658 136.284 9.09229C136.901 10.2204 137.188 11.4989 137.114 12.7823C137.116 13.1103 137.093 13.4379 137.044 13.7623V13.7623ZM133.494 9.61229C133.244 9.37152 132.947 9.18436 132.622 9.06227C132.297 8.94019 131.951 8.88575 131.604 8.90229C130.86 8.89682 130.142 9.18408 129.608 9.70219C129.073 10.2203 128.763 10.9278 128.744 11.6723H134.214C134.234 10.9208 133.978 10.1881 133.494 9.61229V9.61229Z" fill="#1A2A3A"/>
</svg>
