<svg width="104" height="30" viewBox="0 0 104 30" fill="none" xmlns="http://www.w3.org/2000/svg">
<path d="M22.47 5.54371C22.4597 5.48212 22.4298 5.42549 22.3848 5.38225C22.3397 5.33901 22.282 5.31147 22.22 5.30371H20.05L18.15 3.45371C18.0594 3.39011 17.9547 3.34958 17.8449 3.33564C17.7351 3.3217 17.6236 3.33477 17.52 3.37371L16.65 3.6437C16.5384 3.29915 16.3979 2.96463 16.23 2.6437C16.0184 2.1235 15.6598 1.67621 15.198 1.35654C14.7363 1.03687 14.1914 0.858664 13.63 0.843705H13.4C13.32 0.843705 13.34 0.763705 13.3 0.723705C13.0689 0.479114 12.7872 0.287952 12.4746 0.163587C12.162 0.0392216 11.8259 -0.0153441 11.49 0.00370542C10.08 0.0537054 8.68 1.06371 7.55 2.86371C6.75826 4.11288 6.2213 5.50626 5.97 6.96371L3.2 7.8237C2.39 8.0837 2.36 8.1037 2.2 8.8737C2.14 9.4537 0 25.9337 0 25.9337L17.91 28.9737L25.65 27.0337C25.65 27.0337 22.49 5.69371 22.47 5.54371ZM13.47 4.6037L10.47 5.53371C10.7359 4.45785 11.2534 3.4605 11.98 2.62371C12.2577 2.31215 12.5986 2.0633 12.98 1.8937C13.3187 2.7554 13.472 3.67879 13.43 4.6037H13.47ZM11.5 0.893705C11.7958 0.88078 12.0885 0.95746 12.34 1.11371C11.9313 1.33347 11.5627 1.62087 11.25 1.96371C10.2992 3.06564 9.6605 4.40181 9.39999 5.8337L6.95 6.5937C7.45 4.3437 9.35 0.963705 11.52 0.893705H11.5ZM8.75999 13.7637C8.85999 15.2637 12.82 15.5937 13.04 19.1137C13.21 21.8837 11.59 23.7837 9.18999 23.9537C8.39108 24.0233 7.58643 23.9259 6.8272 23.6676C6.06798 23.4094 5.3708 22.996 4.78 22.4537L5.39 19.8937C6.21039 20.5273 7.19688 20.9094 8.23 20.9937C8.52005 20.9833 8.79476 20.8608 8.99622 20.6519C9.19769 20.4429 9.31018 20.1639 9.31 19.8737C9.31485 19.8439 9.31485 19.8135 9.31 19.7837C9.19 17.7837 5.96999 17.9337 5.75999 14.7137C5.58999 12.0037 7.38 9.2437 11.31 9.0037C12.0855 8.91427 12.8712 9.01376 13.6 9.2937L12.7 12.6737C12.0015 12.3937 11.2519 12.2642 10.5 12.2937C8.76 12.3837 8.72999 13.4937 8.75999 13.7637V13.7637ZM14.36 4.3137C14.3712 3.44234 14.229 2.57581 13.94 1.75371C15.01 1.95371 15.53 3.1637 15.75 3.8837L14.36 4.3137Z" fill="#1A2A3A"/>
<path d="M22.2202 5.31348L20.0502 5.26348L18.1502 3.42348C18.0859 3.3593 18.0007 3.32028 17.9102 3.31348V28.9735L25.6502 27.0335C25.6502 27.0335 22.4902 5.68348 22.4702 5.53348C22.4575 5.47488 22.4264 5.42187 22.3814 5.38227C22.3364 5.34267 22.2799 5.31855 22.2202 5.31348V5.31348Z" fill="#1A2A3A"/>
<path d="M35.8302 16.3334C34.9402 15.8434 34.4902 15.4434 34.4902 14.8834C34.4902 14.1634 35.1202 13.7134 36.1102 13.7134C36.8676 13.7307 37.6145 13.8937 38.3102 14.1934L39.1202 11.7034C38.2037 11.2058 37.157 10.9999 36.1202 11.1134C33.1202 11.1134 30.9502 12.8734 30.9502 15.3434C31.0194 16.0435 31.2748 16.7122 31.6898 17.2802C32.1048 17.8482 32.6643 18.2947 33.3102 18.5734C34.3702 19.1834 34.7602 19.5734 34.7602 20.2534C34.7602 20.9334 34.2202 21.4434 33.2302 21.4434C32.22 21.4025 31.2307 21.1432 30.3302 20.6834L29.4902 23.1934C30.5373 23.7887 31.7261 24.0893 32.9302 24.0634C36.0802 24.0634 38.3402 22.5034 38.3402 19.7034C38.3602 18.1934 37.2202 17.1234 35.8302 16.3334Z" fill="#1A2A3A"/>
<path d="M48.4001 11.0836C47.6821 11.0915 46.9752 11.2621 46.3326 11.5825C45.69 11.9029 45.1285 12.3649 44.6901 12.9336V12.9336L46.0401 5.93359H42.5301L39.1201 23.8536H42.6501L43.8201 17.7336C44.2701 15.4136 45.4701 13.9936 46.5901 13.9936C47.3801 13.9936 47.6801 14.5236 47.6801 15.2936C47.6803 15.8139 47.63 16.333 47.5301 16.8436L46.1901 23.8436H49.7101L51.0801 16.5936C51.2395 15.8401 51.3299 15.0735 51.3501 14.3036C51.3101 12.2936 50.2401 11.0836 48.4001 11.0836Z" fill="#1A2A3A"/>
<path d="M59.2205 11.084C54.9905 11.084 52.2205 14.894 52.2205 19.144C52.1724 19.7942 52.2637 20.4472 52.4884 21.0593C52.713 21.6714 53.0657 22.2285 53.523 22.6934C53.9802 23.1582 54.5314 23.52 55.1398 23.7546C55.7481 23.9893 56.3995 24.0913 57.0505 24.054C61.2005 24.054 64.0005 20.334 64.0005 15.984C63.9705 13.494 62.5005 11.084 59.2205 11.084ZM57.4905 21.354C56.3005 21.354 55.7805 20.354 55.7805 19.064C55.7805 17.064 56.7805 13.774 58.7805 13.774C60.0305 13.774 60.4405 14.844 60.4405 15.884C60.4405 18.064 59.4405 21.374 57.5405 21.374L57.4905 21.354Z" fill="#1A2A3A"/>
<path d="M72.9497 11.084C72.2103 11.125 71.4904 11.3368 70.8467 11.7029C70.203 12.069 69.6529 12.5794 69.2397 13.194L69.4397 11.314H66.3097C66.1597 12.584 65.8797 14.524 65.5897 15.964L63.1797 28.814H66.6897L67.6897 23.624H67.7697C68.4024 23.9618 69.1128 24.1274 69.8297 24.104C73.9497 24.104 76.6497 19.884 76.6497 15.604C76.5597 13.194 75.5197 11.084 72.9497 11.084ZM69.5897 21.404C69.061 21.4121 68.5469 21.2312 68.1397 20.894L68.7097 17.624C69.1197 15.444 70.2697 13.994 71.4797 13.994C72.6897 13.994 72.8897 14.994 72.8897 15.924C72.8897 18.194 71.5497 21.424 69.5897 21.424V21.404Z" fill="#1A2A3A"/>
<path d="M81.5702 6.06339C81.0398 6.06339 80.5311 6.2741 80.156 6.64917C79.7809 7.02424 79.5702 7.53295 79.5702 8.06339C79.5341 8.49016 79.6685 8.91385 79.944 9.24179C80.2195 9.56974 80.6136 9.77525 81.0402 9.81339H81.3102C81.8173 9.81463 82.3059 9.62324 82.6771 9.27794C83.0484 8.93263 83.2747 8.45919 83.3102 7.95339V7.81339C83.332 7.37199 83.1779 6.93996 82.8818 6.61194C82.5856 6.28392 82.1715 6.08667 81.7302 6.06339C81.6771 6.057 81.6234 6.057 81.5702 6.06339V6.06339Z" fill="#1A2A3A"/>
<path d="M76.6602 23.804H80.1702L82.5602 11.374H79.0302L76.6602 23.804Z" fill="#1A2A3A"/>
<path d="M91.4898 11.3536H89.0698L89.1998 10.7636C89.4098 9.56355 90.1198 8.50355 91.2898 8.50355C91.6662 8.50464 92.0403 8.56194 92.3998 8.67355L93.0898 5.93355C92.4764 5.69192 91.818 5.58616 91.1598 5.62355C89.9131 5.58963 88.6958 6.00487 87.7298 6.79355C86.6213 7.85601 85.9147 9.26931 85.7298 10.7936L85.6298 11.3836H83.9998L83.4898 14.0136H85.1198L83.2598 23.8436H86.7698L88.6298 14.0136H91.0498L91.4898 11.3536Z" fill="#1A2A3A"/>
<path d="M99.9296 11.374C99.9296 11.374 97.7296 16.884 96.7596 19.924C96.6896 18.924 95.8896 11.374 95.8896 11.374H92.2096L94.3096 22.794C94.337 22.891 94.344 22.9926 94.3303 23.0924C94.3165 23.1922 94.2822 23.2881 94.2296 23.374C93.7698 24.2251 93.1111 24.9525 92.3096 25.494C91.6943 25.9216 91.0208 26.2583 90.3096 26.494L91.3096 29.494C92.5948 29.1527 93.7763 28.5001 94.7496 27.594C96.6814 25.5484 98.2384 23.179 99.3496 20.594L103.64 11.404L99.9296 11.374Z" fill="#1A2A3A"/>
</svg>
