<svg width="70" height="69" viewBox="0 0 70 69" fill="none" xmlns="http://www.w3.org/2000/svg">
<path d="M68.4311 25.1837C66.9715 16.9859 62.7613 10.5061 55.828 5.85487C49.4941 1.59642 42.2915 0.552964 34.9161 0.541016C31.7992 0.541016 28.6569 0.921359 25.6017 1.49785C16.1269 3.2776 9.0582 8.45654 4.61555 17.0715C1.76944 22.6064 1.14267 28.6322 0.934082 36.032C1.15562 37.9342 1.3881 41.1372 1.95265 44.2915C3.43768 52.4768 7.65979 58.9566 14.5926 63.5954C20.9151 67.817 28.0804 68.8227 35.4438 68.9093C38.8291 68.9591 42.2302 68.5658 45.5682 67.817C54.6128 65.8043 61.3624 60.7603 65.6806 52.5381C68.6253 46.9176 69.3646 40.7813 69.374 34.5718C69.3885 31.4434 68.9837 28.2762 68.4311 25.1837ZM64.2832 37.4304C63.9885 42.229 63.2034 46.939 60.7372 51.1875C56.9691 57.6553 51.3605 61.521 44.0598 63.006C40.2305 63.7911 36.3643 64.0365 32.4996 63.8025C27.5537 63.4959 22.7177 62.6615 18.3866 60.0474C12.1139 56.2673 8.33485 50.7449 6.91105 43.59C6.32262 40.6449 5.95372 37.6748 6.0279 35.7482C6.06524 29.833 6.5551 25.0448 8.5315 20.5798C11.8451 13.0695 17.6005 8.45505 25.5773 6.59067C29.652 5.63334 33.788 5.37596 37.9354 5.63334C43.2125 5.95245 48.3551 6.92173 52.8948 9.91469C58.6761 13.7435 62.1361 19.0947 63.4986 25.8812C64.2619 29.6805 64.5256 33.5632 64.2832 37.4309V37.4304Z" fill="#FF7D04"/>
<path d="M17.7593 41.9351V42.5608H17.7961C17.7719 42.3531 17.7596 42.1442 17.7593 41.9351V41.9351ZM36.2418 28.5215H36.2537V28.4717C36.2441 28.4864 36.2399 28.504 36.2418 28.5215V28.5215ZM36.2418 28.5215H36.2537V28.4717C36.2441 28.4864 36.2399 28.504 36.2418 28.5215V28.5215Z" fill="white"/>
<path d="M46.3286 26.7423H39.6044V23.0977C39.6036 22.6519 39.4262 22.2247 39.111 21.9094C38.7958 21.5942 38.3685 21.4168 37.9227 21.416H19.4283C19.2073 21.4154 18.9883 21.4584 18.784 21.5427C18.5797 21.627 18.3941 21.7508 18.2378 21.9071C18.0816 22.0634 17.9578 22.2491 17.8736 22.4534C17.7893 22.6577 17.7464 22.8767 17.7471 23.0977H17.759V41.9357C17.7594 42.1448 17.7717 42.3537 17.7959 42.5614C17.9195 43.5285 18.32 44.4392 18.9492 45.1838C19.5785 45.9285 20.4096 46.4754 21.3424 46.7587C21.579 47.5513 22.0093 48.2724 22.5945 48.857C23.0617 49.3268 23.6172 49.6996 24.229 49.954C24.8408 50.2084 25.4969 50.3393 26.1594 50.3393C26.822 50.3393 27.4781 50.2084 28.0899 49.954C28.7017 49.6996 29.2572 49.3268 29.7244 48.857C30.2586 48.3264 30.6619 47.6787 30.9023 46.9653H41.5783C41.8287 47.6769 42.2355 48.3233 42.7686 48.857C44.7326 50.8205 47.9232 50.8205 49.8991 48.857C50.4836 48.2697 50.9174 47.5498 51.1636 46.7587C52.1969 46.4415 53.102 45.8026 53.7467 44.935C54.3915 44.0674 54.7423 43.0166 54.748 41.9357V35.1612C54.7482 34.0555 54.5305 32.9606 54.1075 31.9391C53.6844 30.9175 53.0642 29.9893 52.2824 29.2075C51.5005 28.4257 50.5723 27.8056 49.5508 27.3826C48.5292 26.9596 47.4343 26.7421 46.3286 26.7423V26.7423ZM27.3443 46.4784C27.0291 46.7908 26.6032 46.9661 26.1594 46.9661C25.7157 46.9661 25.2898 46.7908 24.9746 46.4784C24.8158 46.3247 24.6896 46.1406 24.6034 45.9372C24.5171 45.7337 24.4727 45.515 24.4727 45.294C24.4727 45.0731 24.5171 44.8543 24.6034 44.6509C24.6896 44.4474 24.8158 44.2634 24.9746 44.1097C25.6133 43.4471 26.6672 43.4471 27.3323 44.0848C27.3323 44.0973 27.3443 44.0973 27.3443 44.1097C27.658 44.424 27.8341 44.85 27.8341 45.294C27.8341 45.7381 27.658 46.164 27.3443 46.4784V46.4784ZM36.2555 28.5241H36.2435V43.6084H30.9023C30.6567 42.9014 30.254 42.2594 29.7244 41.7306C29.1549 41.1607 28.457 40.7356 27.6893 40.4911C26.9216 40.2465 26.1064 40.1896 25.3122 40.325C24.518 40.4605 23.7678 40.7844 23.1245 41.2696C22.4813 41.7548 21.9637 42.3871 21.6152 43.1135C21.4596 42.9594 21.3361 42.7759 21.2518 42.5737C21.1674 42.3716 21.124 42.1547 21.1239 41.9357V24.7789H36.2415V28.5221C36.2396 28.5046 36.2438 28.487 36.2535 28.4723L36.2555 28.5241ZM47.5189 46.4784C47.3633 46.6358 47.178 46.7609 46.9737 46.8462C46.7694 46.9315 46.5503 46.9754 46.3289 46.9754C46.1075 46.9754 45.8883 46.9315 45.684 46.8462C45.4797 46.7609 45.2944 46.6358 45.1388 46.4784C44.9809 46.3232 44.856 46.1378 44.7715 45.9331C44.6871 45.7285 44.6449 45.5089 44.6474 45.2876C44.6494 44.9572 44.7486 44.6347 44.9328 44.3603C45.1169 44.086 45.3778 43.8719 45.6828 43.745C45.9879 43.618 46.3235 43.5837 46.648 43.6463C46.9724 43.709 47.2712 43.8658 47.507 44.0973C47.5086 44.0973 47.5102 44.0976 47.5117 44.0982C47.5132 44.0988 47.5145 44.0998 47.5156 44.1009C47.5167 44.1021 47.5176 44.1035 47.5182 44.105C47.5187 44.1065 47.519 44.1081 47.5189 44.1097C47.6747 44.2651 47.7982 44.4497 47.8825 44.6529C47.9668 44.8562 48.0102 45.074 48.0102 45.294C48.0102 45.5141 47.9668 45.7319 47.8825 45.9351C47.7982 46.1384 47.6747 46.323 47.5189 46.4784V46.4784ZM51.3732 41.9377C51.3729 42.1567 51.3294 42.3735 51.2451 42.5756C51.1607 42.7778 51.0373 42.9613 50.8818 43.1155C50.5342 42.3902 50.0183 41.7584 49.3772 41.2728C48.736 40.7871 47.9881 40.4617 47.1957 40.3237C46.4033 40.1856 45.5894 40.2388 44.8218 40.479C44.0542 40.7191 43.355 41.1392 42.7826 41.7042C42.7826 41.7166 42.7696 41.7166 42.7696 41.7286C42.2366 42.2547 41.8332 42.8976 41.5912 43.6064H39.6163V30.1171H46.3286C46.9911 30.117 47.6471 30.2474 48.2591 30.5008C48.8712 30.7542 49.4273 31.1258 49.8958 31.5942C50.3642 32.0626 50.7358 32.6187 50.9893 33.2307C51.2428 33.8427 51.3732 34.4987 51.3732 35.1612V41.9377Z" fill="#FF7D04"/>
</svg>
