<svg width="69" height="70" viewBox="0 0 69 70" fill="none" xmlns="http://www.w3.org/2000/svg">
<path d="M67.7775 25.2994C66.3174 17.1016 62.0953 10.6218 55.1744 5.97009C48.8415 1.71213 41.6379 0.669175 34.251 0.657227C31.1466 0.657227 28.0048 1.03757 24.9371 1.61406C15.4624 3.39381 8.39415 8.57276 3.96394 17.1877C1.11634 22.7102 0.490569 28.7479 0.269531 36.1482C0.502517 38.0504 0.735999 41.2534 1.30054 44.4072C2.78508 52.5926 7.00719 59.0723 13.941 63.7116C20.249 67.9333 27.4278 68.9389 34.7792 69.0255C38.1784 69.0753 41.5781 68.682 44.9156 67.9333C53.9483 65.9205 60.7103 60.8765 65.0181 52.6543C67.9752 47.0333 68.7115 40.8975 68.7244 34.6875C68.7349 31.5587 68.3296 28.392 67.7775 25.2994ZM60.7357 19.6177L49.7401 23.2518C48.5751 23.6399 47.307 23.5765 46.1865 23.0742C45.066 22.572 44.1749 21.6675 43.6894 20.5396C42.7819 18.4532 43.4196 16.0353 45.2974 14.6244L51.5537 9.60426C51.7867 9.73918 52.0077 9.88654 52.2283 10.0339C56.07 12.5733 58.8803 15.7774 60.7357 19.6177ZM6.25696 43.7058C5.66802 40.7606 5.28718 37.7905 5.3738 35.8639C5.41015 29.9362 5.90101 25.1605 7.8774 20.683C8.01182 20.3639 8.15917 20.0572 8.30603 19.7625H17.8545C18.5099 19.7621 19.1388 20.0215 19.6034 20.4839C20.068 20.9462 20.3304 21.5738 20.3332 22.2293V22.3891C20.3332 26.4633 23.6462 29.7769 27.721 29.7769H28.8994C29.5559 29.7797 30.1848 30.0417 30.649 30.506C31.1133 30.9702 31.3753 31.5991 31.3781 32.2556V34.1723C31.3778 34.8296 31.1166 35.46 30.6518 35.9249C30.187 36.3897 29.5567 36.6511 28.8994 36.6515C24.8251 36.6515 21.5115 39.9645 21.5115 44.0393V44.3335C21.5113 44.991 21.25 45.6214 20.7851 46.0863C20.3202 46.5512 19.6898 46.8125 19.0323 46.8127H7.06942C6.73245 45.7955 6.46107 44.7577 6.25696 43.7058V43.7058ZM32.8506 57.7347V63.9675C32.5071 63.9556 32.1761 63.9431 31.8326 63.9177C26.8991 63.6106 22.0636 62.7762 17.7195 60.1621C14.0379 57.9431 11.211 55.1293 9.23897 51.7209H19.0323C23.1071 51.7209 26.4202 48.4078 26.4202 44.333V44.0388C26.4228 43.3821 26.6848 42.753 27.1492 42.2886C27.6136 41.8243 28.2426 41.5622 28.8994 41.5596C32.9736 41.5596 36.2872 38.246 36.2872 34.1718V32.2556C36.2872 28.1814 32.9736 24.8678 28.8994 24.8678H27.721C27.0637 24.8681 26.4331 24.6073 25.968 24.1429C25.5028 23.6785 25.2411 23.0484 25.2403 22.3911V22.2313C25.2403 18.1695 21.9262 14.8559 17.8525 14.8559H11.4006C14.736 10.7324 19.2792 8.03261 24.9237 6.70738C28.9984 5.75005 33.1344 5.49217 37.2823 5.75005C40.4486 5.94619 43.5779 6.36338 46.5475 7.33315L42.2766 10.7448C40.638 11.9864 39.4298 13.7103 38.8216 15.6742C38.2135 17.638 38.2361 19.7431 38.8863 21.6934C39.5364 23.6438 40.7814 25.3413 42.4463 26.5475C44.1111 27.7537 46.1121 28.4077 48.1679 28.4178C49.2266 28.4114 50.278 28.2417 51.2849 27.9145L62.4283 24.2196C62.5881 24.7966 62.7231 25.3855 62.846 25.9869C63.5534 29.495 63.8295 33.0764 63.6679 36.6515H52.0934C47.6517 36.6515 44.0429 40.2593 44.0429 44.7019V46.5439C44.0412 47.3765 43.7097 48.1745 43.1209 48.7633C42.5322 49.352 41.7342 49.6835 40.9016 49.6852C36.4589 49.6842 32.8506 53.2925 32.8506 57.7347ZM60.0706 51.3042C56.315 57.7715 50.7069 61.6377 43.3932 63.1222C41.5352 63.5078 39.653 63.7662 37.7598 63.8953V57.7347C37.7596 57.322 37.8408 56.9134 37.9987 56.5321C38.1566 56.1509 38.3881 55.8045 38.6799 55.5128C38.9717 55.221 39.3182 54.9897 39.6995 54.8319C40.0808 54.6742 40.4894 54.5931 40.9021 54.5933C45.3442 54.5933 48.9525 50.9731 48.9525 46.5429V44.7009C48.9541 43.8682 49.2856 43.0701 49.8743 42.4812C50.4631 41.8924 51.2612 41.5608 52.0939 41.5591H63.2373C62.7579 44.9593 61.8374 48.2485 60.0706 51.3042V51.3042Z" fill="#1F1F1F"/>
</svg>
