<svg width="70" height="69" viewBox="0 0 70 69" fill="none" xmlns="http://www.w3.org/2000/svg">
<path d="M68.1479 25.1779C66.6883 16.9925 62.4781 10.5128 55.5448 5.84956C49.2109 1.60305 42.0083 0.560096 34.6329 0.548148C31.516 0.535702 28.3737 0.916046 25.3185 1.49403C15.8437 3.28622 8.775 8.46368 4.33235 17.0672C1.48624 22.6021 0.859471 28.6274 0.650879 36.0276C0.872414 37.9299 1.1049 41.1454 1.66944 44.2867C3.15448 52.4725 7.37659 58.9523 14.3094 63.6026C20.6319 67.8242 27.7972 68.8183 35.1606 68.9169C38.5459 68.9538 41.947 68.561 45.285 67.8122C54.3296 65.7995 61.0792 60.7679 65.3974 52.5457C68.3421 46.9247 69.0814 40.7765 69.0908 34.579C69.1053 31.4371 68.7005 28.2704 68.1479 25.1779ZM60.4539 51.1826C56.6859 57.6505 51.0773 61.5161 43.7766 63.0131C39.9745 63.782 36.0876 64.0461 32.2164 63.7987C27.2705 63.492 22.4345 62.6572 18.1034 60.0436C11.8307 56.2635 8.05165 50.7411 6.62785 43.5862C6.03941 40.6411 5.67052 37.6834 5.7447 35.7444C5.78203 29.8291 6.2719 25.041 8.24829 20.5759C11.5619 13.0656 17.3173 8.46368 25.2941 6.58685C29.3688 5.62952 33.5048 5.37164 37.6522 5.62952C42.9293 5.96108 48.0719 6.91791 52.6116 9.91088C58.2949 13.6785 61.7428 18.9311 63.1412 25.5458H43.0642C37.8116 25.5458 33.5556 29.8162 33.5556 35.0569V38.0389C33.5556 43.2915 37.814 47.5619 43.0642 47.5619H62.1351C61.6857 48.8173 61.123 50.0292 60.4539 51.1826V51.1826ZM64 37.438C63.8656 39.6225 63.6321 41.7821 63.1781 43.8809H43.0657C39.8502 43.8809 37.2366 41.2549 37.2366 38.0394V35.0574C37.2379 33.5117 37.8524 32.0298 38.9453 30.9368C40.0382 29.8439 41.5201 29.2292 43.0657 29.2278H63.7675C64.084 31.9525 64.1618 34.6997 64 37.438Z" fill="#FF8411"/>
<path d="M50.3783 36.5542C50.3783 37.3139 50.1531 38.0566 49.731 38.6883C49.3089 39.32 48.709 39.8123 48.0071 40.103C47.3052 40.3938 46.5328 40.4698 45.7877 40.3216C45.0425 40.1734 44.3581 39.8076 43.8209 39.2704C43.2837 38.7331 42.9178 38.0487 42.7696 37.3036C42.6214 36.5584 42.6975 35.7861 42.9882 35.0842C43.2789 34.3823 43.7713 33.7823 44.403 33.3603C45.0347 32.9382 45.7773 32.7129 46.5371 32.7129C47.5547 32.7166 48.5296 33.1224 49.2492 33.842C49.9688 34.5616 50.3747 35.5365 50.3783 36.5542V36.5542Z" fill="#FF8411"/>
</svg>
