<svg width="69" height="69" viewBox="0 0 69 69" fill="none" xmlns="http://www.w3.org/2000/svg">
<path d="M67.7775 25.1842C66.3174 16.9864 62.0953 10.5066 55.1744 5.85486C48.8415 1.5969 41.6379 0.55394 34.251 0.541992C31.1466 0.541992 28.0048 0.922336 24.9371 1.49883C15.4624 3.27858 8.39415 8.45752 3.96394 17.0725C1.11634 22.595 0.490569 28.6327 0.269531 36.0329C0.502517 37.9352 0.735999 41.1382 1.30054 44.292C2.78508 52.4773 7.00719 58.9571 13.941 63.5964C20.249 67.818 27.4278 68.8236 34.7792 68.9103C38.1784 68.96 41.5781 68.5668 44.9156 67.818C53.9483 65.8053 60.7103 60.7613 65.0181 52.5391C67.9752 46.918 68.7115 40.7823 68.7244 34.5723C68.7349 31.4434 68.3296 28.2767 67.7775 25.1842ZM60.7357 19.5024L49.7401 23.1366C48.5751 23.5246 47.307 23.4613 46.1865 22.959C45.066 22.4568 44.1749 21.5522 43.6894 20.4244C42.7819 18.338 43.4196 15.92 45.2974 14.5092L51.5537 9.48903C51.7867 9.62394 52.0077 9.7713 52.2283 9.91866C56.07 12.4581 58.8803 15.6621 60.7357 19.5024ZM6.25696 43.5905C5.66802 40.6454 5.28718 37.6753 5.3738 35.7487C5.41015 29.821 5.90101 25.0453 7.8774 20.5678C8.01182 20.2487 8.15917 19.942 8.30603 19.6473H17.8545C18.5099 19.6469 19.1388 19.9063 19.6034 20.3686C20.068 20.831 20.3304 21.4586 20.3332 22.1141V22.2739C20.3332 26.3481 23.6462 29.6617 27.721 29.6617H28.8994C29.5559 29.6644 30.1848 29.9265 30.649 30.3907C31.1133 30.855 31.3753 31.4838 31.3781 32.1404V34.057C31.3778 34.7144 31.1166 35.3448 30.6518 35.8096C30.187 36.2745 29.5567 36.5359 28.8994 36.5362C24.8251 36.5362 21.5115 39.8493 21.5115 43.9241V44.2183C21.5113 44.8757 21.25 45.5062 20.7851 45.9711C20.3202 46.4359 19.6898 46.6972 19.0323 46.6975H7.06942C6.73245 45.6803 6.46107 44.6425 6.25696 43.5905V43.5905ZM32.8506 57.6194V63.8523C32.5071 63.8403 32.1761 63.8279 31.8326 63.8025C26.8991 63.4953 22.0636 62.661 17.7195 60.0469C14.0379 57.8279 11.211 55.0141 9.23897 51.6056H19.0323C23.1071 51.6056 26.4202 48.2925 26.4202 44.2178V43.9236C26.4228 43.2669 26.6848 42.6378 27.1492 42.1734C27.6136 41.709 28.2426 41.447 28.8994 41.4444C32.9736 41.4444 36.2872 38.1308 36.2872 34.0565V32.1404C36.2872 28.0661 32.9736 24.7526 28.8994 24.7526H27.721C27.0637 24.7528 26.4331 24.4921 25.968 24.0277C25.5028 23.5633 25.2411 22.9332 25.2403 22.2758V22.116C25.2403 18.0542 21.9262 14.7407 17.8525 14.7407H11.4006C14.736 10.6171 19.2792 7.91737 24.9237 6.59215C28.9984 5.63481 33.1344 5.37694 37.2823 5.63481C40.4486 5.83096 43.5779 6.24814 46.5475 7.21792L42.2766 10.6296C40.638 11.8712 39.4298 13.5951 38.8216 15.5589C38.2135 17.5228 38.2361 19.6279 38.8863 21.5782C39.5364 23.5285 40.7814 25.2261 42.4463 26.4323C44.1111 27.6384 46.1121 28.2925 48.1679 28.3026C49.2266 28.2962 50.278 28.1264 51.2849 27.7993L62.4283 24.1044C62.5881 24.6814 62.7231 25.2703 62.846 25.8717C63.5534 29.3798 63.8295 32.9612 63.6679 36.5362H52.0934C47.6517 36.5362 44.0429 40.144 44.0429 44.5867V46.4287C44.0412 47.2613 43.7097 48.0593 43.1209 48.648C42.5322 49.2368 41.7342 49.5683 40.9016 49.57C36.4589 49.569 32.8506 53.1773 32.8506 57.6194ZM60.0706 51.1889C56.315 57.6563 50.7069 61.5224 43.3932 63.007C41.5352 63.3926 39.653 63.6509 37.7598 63.7801V57.6194C37.7596 57.2068 37.8408 56.7982 37.9987 56.4169C38.1566 56.0357 38.3881 55.6893 38.6799 55.3975C38.9717 55.1058 39.3182 54.8744 39.6995 54.7167C40.0808 54.5589 40.4894 54.4778 40.9021 54.4781C45.3442 54.4781 48.9525 50.8579 48.9525 46.4277V44.5857C48.9541 43.753 49.2856 42.9549 49.8743 42.366C50.4631 41.7772 51.2612 41.4456 52.0939 41.4439H63.2373C62.7579 44.8441 61.8374 48.1332 60.0706 51.1889V51.1889Z" fill="#FF8411"/>
</svg>
