<svg width="69" height="69" viewBox="0 0 69 69" fill="none" xmlns="http://www.w3.org/2000/svg">
<path d="M68.7154 33.0571C68.6298 30.4186 68.2614 27.7676 67.8074 25.1779C67.3897 22.8097 66.7395 20.5759 65.8439 18.502C63.6838 13.3967 60.1248 9.16313 55.2043 5.84956C48.8713 1.60305 41.6677 0.560096 34.2809 0.548148C31.1764 0.535702 28.0346 0.916046 24.9794 1.49403C15.4922 3.28622 8.42396 8.46368 3.99376 17.0672C2.36983 20.22 1.46427 23.5336 0.948518 27.1662C0.555729 29.9153 0.396422 32.836 0.297852 36.0276C0.530837 37.9299 0.76432 41.1454 1.32886 44.2867C1.54709 45.5057 1.83801 46.7106 2.20007 47.895C4.16202 54.3981 8.09091 59.6627 13.9693 63.6031C20.2773 67.8247 27.4561 68.8188 34.8076 68.9174C38.2068 68.9543 41.6065 68.5615 44.9439 67.8127C53.9766 65.8 60.7386 60.7684 65.0464 52.5462C68.0035 46.9252 68.7398 40.777 68.7527 34.5795C68.7527 34.0751 68.7398 33.5599 68.7154 33.0571ZM63.7326 35.5751C63.7207 36.2009 63.6963 36.8147 63.6589 37.4405C63.3647 42.2391 62.5791 46.9491 60.1004 51.1851C56.3448 57.653 50.7367 61.5186 43.4231 63.0156C39.6211 63.7853 35.7341 64.0495 31.8629 63.8012C26.9294 63.4945 22.0939 62.6597 17.7499 60.0461C14.2272 57.9203 11.5026 55.2569 9.53861 52.0534C10.6271 52.278 11.7496 52.2822 12.8397 52.0658C13.2679 51.9835 13.6872 51.8601 14.0918 51.6974C14.2511 51.6357 14.3984 51.5744 14.5458 51.5008C18.5781 54.0978 23.2732 55.4782 28.0694 55.4769C30.3357 55.4699 32.5917 55.1731 34.7827 54.5938H34.7951C35.1506 55.3405 36.0342 55.7104 36.8442 55.4282L45.1774 52.4705C45.5956 52.3223 45.9378 52.014 46.1287 51.6135C46.3196 51.213 46.3436 50.7531 46.1955 50.3348L45.1157 47.316C45.0436 47.1094 44.9314 46.9192 44.7856 46.7562C44.6397 46.5931 44.4631 46.4605 44.2658 46.366C44.0686 46.2714 43.8546 46.2168 43.6361 46.2052C43.4177 46.1936 43.1991 46.2253 42.9929 46.2984L34.6483 49.2685C34.2791 49.3976 33.9679 49.6538 33.7701 49.9912C33.5723 50.3286 33.5008 50.7253 33.5685 51.1105C30.9539 51.7731 27.4949 52.1559 23.6153 51.331C21.5423 50.8888 19.5481 50.1359 17.7001 49.0977C20.3266 46.0171 21.4184 41.0104 20.253 35.7703C18.8167 29.3876 14.4846 24.6014 9.77259 23.7053C8.79387 23.5032 7.78546 23.4907 6.80203 23.6685C7.09867 22.6134 7.46795 21.5801 7.90722 20.5759C11.2083 13.0656 16.9757 8.46368 24.9525 6.58685C29.0272 5.62952 33.1632 5.37164 37.3112 5.62952C42.5882 5.96108 47.7298 6.91791 52.271 9.91088C54.1727 11.175 55.8211 12.5987 57.216 14.1818C56.7457 14.4209 56.3153 14.7314 55.94 15.1023C53.5719 17.2868 52.4791 21.5696 53.4245 26.1103C54.5287 31.2768 57.9408 35.0713 61.4749 35.4497C62.0396 35.5109 62.6103 35.486 63.1676 35.376C63.359 35.3357 63.5475 35.2823 63.7316 35.2162L63.7326 35.5751Z" fill="#FF8411"/>
</svg>
