<svg width="70" height="69" viewBox="0 0 70 69" fill="none" xmlns="http://www.w3.org/2000/svg">
<path d="M68.4609 25.1837C67.0013 16.9859 62.7911 10.5061 55.8578 5.85487C49.5239 1.59642 42.3213 0.552964 34.9459 0.541016C31.829 0.541016 28.6866 0.921359 25.6314 1.49785C16.1567 3.2776 9.08799 8.45654 4.64533 17.0715C1.79923 22.6064 1.17246 28.6322 0.963867 36.032C1.1854 37.9342 1.41789 41.1372 1.98243 44.2915C3.46746 52.4768 7.68958 58.9566 14.6224 63.5954C20.9449 67.817 28.1102 68.8227 35.4736 68.9093C38.8588 68.9591 42.26 68.5658 45.598 67.817C54.6426 65.8043 61.3922 60.7603 65.7104 52.5381C68.6551 46.9176 69.3944 40.7813 69.4038 34.5718C69.4183 31.4434 69.0135 28.2762 68.4609 25.1837ZM64.313 37.4304C64.0183 42.229 63.2332 46.939 60.7669 51.1875C56.9988 57.6553 51.3903 61.521 44.0896 63.006C40.2602 63.7911 36.3941 64.0365 32.5294 63.8025C27.5834 63.4959 22.7475 62.6615 18.4164 60.0474C12.1437 56.2673 8.36464 50.7449 6.94084 43.59C6.3524 40.6449 5.98351 37.6748 6.05768 35.7482C6.09502 29.833 6.58489 25.0448 8.56128 20.5798C11.8749 13.0695 17.6303 8.45505 25.6071 6.59067C29.6818 5.63334 33.8178 5.37596 37.9652 5.63334C43.2422 5.95245 48.3849 6.92173 52.9246 9.91469C58.7059 13.7435 62.1658 19.0947 63.5284 25.8812C64.2916 29.6805 64.5554 33.5632 64.313 37.4309V37.4304Z" fill="#FF8411"/>
<path d="M36.0769 39.0602C36.0315 38.8787 35.9369 38.7133 35.8035 38.5822C35.67 38.4512 35.5029 38.3595 35.3207 38.3174C33.2126 37.8304 31.0563 37.5824 28.8927 37.5781H28.8429C26.6625 37.5786 24.4891 37.8266 22.3646 38.3174C22.1765 38.3609 22.0046 38.4572 21.8693 38.5949C21.7339 38.7327 21.6407 38.9061 21.6004 39.095C20.6937 43.3544 20.6937 47.7569 21.6004 52.0163C21.6486 52.2435 21.7732 52.4474 21.9535 52.5939C22.1338 52.7403 22.3588 52.8206 22.5911 52.8212H35.0917C35.3182 52.8212 35.5382 52.7454 35.7168 52.606C35.8953 52.4665 36.022 52.2714 36.0769 52.0516C37.14 47.7869 37.14 43.3264 36.0769 39.0617V39.0602ZM27.0661 39.668C27.6569 39.6282 28.2488 39.6085 28.8419 39.6088H28.8882C29.4647 39.6088 30.0409 39.6285 30.6167 39.668V41.4498C30.0148 41.5628 29.4035 41.6176 28.7911 41.6136C28.2124 41.6104 27.6351 41.5555 27.0661 41.4498V39.668ZM34.2847 50.7891H23.427C22.7817 47.2734 22.792 43.6688 23.4574 40.1569C24.0979 40.0241 24.7428 39.9161 25.3919 39.8328V42.1198C25.3919 42.3059 25.4538 42.4866 25.5678 42.6336C25.6818 42.7806 25.8415 42.8855 26.0217 42.9318C26.9244 43.1622 27.852 43.2813 28.7837 43.2863H28.8419C29.7934 43.2862 30.7412 43.1669 31.6631 42.9313C31.8433 42.8851 32.0031 42.7802 32.1171 42.6332C32.2311 42.4862 32.293 42.3054 32.2929 42.1193V39.8293C32.949 39.9146 33.6015 40.0243 34.2504 40.1584C35.0299 43.6568 35.0419 47.2826 34.2857 50.7861L34.2847 50.7891Z" fill="#FF8411"/>
<path d="M53.3205 39.0606C53.2752 38.8791 53.1806 38.7137 53.0471 38.5826C52.9137 38.4516 52.7466 38.3599 52.5643 38.3179C50.4569 37.8315 48.3015 37.584 46.1388 37.5801H46.089C43.9087 37.5806 41.7355 37.8286 39.6112 38.3194C39.423 38.3628 39.2511 38.4591 39.1156 38.5968C38.9802 38.7345 38.8868 38.9081 38.8465 39.097C37.9398 43.3563 37.9398 47.7588 38.8465 52.0182C38.8952 52.246 39.0207 52.4502 39.2019 52.5965C39.3832 52.7427 39.6093 52.8223 39.8422 52.8217H52.3378C52.5643 52.8218 52.7844 52.746 52.9629 52.6065C53.1415 52.4671 53.2682 52.2719 53.323 52.0521C54.3869 47.7874 54.3869 43.3268 53.323 39.0621L53.3205 39.0606ZM44.3097 39.6685C44.9012 39.6287 45.4931 39.6089 46.0855 39.6092H46.1318C46.7083 39.6092 47.2846 39.629 47.8608 39.6685V41.4502C47.2589 41.5632 46.6476 41.6181 46.0352 41.614C45.4563 41.6108 44.8789 41.556 44.3097 41.4502V39.6685ZM51.5283 50.7896H40.6711C40.0251 47.274 40.0354 43.6692 40.7015 40.1574C41.3423 40.0246 41.987 39.9166 42.6355 39.8333V42.1203C42.6357 42.3064 42.6976 42.4871 42.8117 42.6341C42.9258 42.7811 43.0856 42.886 43.2658 42.9323C44.1684 43.1627 45.0958 43.2817 46.0273 43.2867H46.0855C47.037 43.2866 47.9848 43.1674 48.9067 42.9318C49.0869 42.8856 49.2467 42.7807 49.3607 42.6337C49.4747 42.4866 49.5366 42.3059 49.5365 42.1198V39.8298C50.1933 39.9151 50.8459 40.0248 51.4945 40.1589C52.2742 43.6573 52.2861 47.2831 51.5293 50.7866L51.5283 50.7896Z" fill="#FF8411"/>
<path d="M53.3205 25.8502C53.2751 25.6687 53.1805 25.5033 53.047 25.3721C52.9136 25.241 52.7466 25.1492 52.5643 25.1069C50.4569 24.6205 48.3016 24.3726 46.1388 24.3682H46.089C43.9087 24.3688 41.7356 24.6166 39.6112 25.1069C39.4231 25.1506 39.2512 25.2469 39.1158 25.3846C38.9804 25.5223 38.887 25.6957 38.8465 25.8846C37.9398 30.1439 37.9398 34.5464 38.8465 38.8058C38.8952 39.0336 39.0207 39.2378 39.2019 39.384C39.3832 39.5303 39.6093 39.6099 39.8422 39.6093H52.3378C52.5643 39.6095 52.7843 39.5338 52.9629 39.3944C53.1414 39.2551 53.2682 39.0599 53.323 38.8401C54.3869 34.5755 54.3869 30.1148 53.323 25.8502H53.3205ZM44.3097 26.4581C44.9012 26.4182 45.4931 26.3983 46.0855 26.3983H46.1318C46.7083 26.3983 47.2846 26.4182 47.8608 26.4581V28.2378C47.2589 28.3506 46.6476 28.4053 46.0352 28.4011C45.4564 28.3981 44.8789 28.3434 44.3097 28.2378V26.4581ZM51.5283 37.5791H40.6711C40.0251 34.0634 40.0354 30.4584 40.7015 26.9464C41.3423 26.8137 41.987 26.7058 42.6355 26.6228V28.9099C42.6356 29.0959 42.6976 29.2766 42.8117 29.4236C42.9258 29.5705 43.0856 29.6753 43.2658 29.7214C44.1683 29.9522 45.0957 30.0714 46.0273 30.0763H46.0855C47.0371 30.076 47.9848 29.9566 48.9067 29.7209C49.087 29.6748 49.2467 29.5701 49.3607 29.4231C49.4748 29.2762 49.5366 29.0954 49.5365 28.9094V26.6194C50.1933 26.7047 50.8459 26.8143 51.4945 26.9484C52.2742 30.4468 52.2861 34.0727 51.5293 37.5761L51.5283 37.5791Z" fill="#FF8411"/>
</svg>
