<svg width="70" height="68" viewBox="0 0 70 68" fill="none" xmlns="http://www.w3.org/2000/svg">
<path d="M33.3054 67.448C29.3805 67.3613 24.0103 66.8506 18.9792 64.7099C9.70613 60.7666 3.90838 53.8422 1.66166 43.9822C0.914914 40.6965 0.516649 37.3555 0.560956 34.0116C0.643596 28.0177 1.31467 22.084 4.13439 16.6482C8.43467 8.35729 15.2654 3.36055 24.3464 1.34682C27.7152 0.600071 31.1408 0.198818 34.5674 0.243623C41.0362 0.328752 47.4309 1.04015 53.2545 4.20487C61.0781 8.45536 65.9704 14.9363 67.9316 23.6477C68.6116 26.6845 68.9486 29.7631 69.0014 32.878C69.0905 38.1386 68.6032 43.3385 66.682 48.2585C62.8806 57.9872 55.7103 63.9074 45.5869 66.2801C42.0443 67.107 38.4375 67.4724 33.3054 67.448ZM63.9479 33.8941C64.0759 30.934 63.705 28.0197 63.1141 25.1322C61.6634 18.0474 57.817 12.6708 51.5748 9.00248C47.281 6.48793 42.5143 5.67796 37.6609 5.37378C33.7031 5.12487 29.7513 5.36582 25.8399 6.15687C19.2227 7.49455 13.9063 10.7947 10.0656 16.3933C7.01435 20.8404 6.01919 25.9193 5.68962 31.151C5.45066 34.9425 5.66075 38.732 6.4752 42.4717C8.5412 51.9589 14.2324 58.1584 23.4886 60.9503C28.4266 62.4393 33.5448 62.6927 38.6859 62.2944C39.3829 62.2401 39.6448 61.9793 39.6876 61.2261C39.8538 58.2684 39.9365 55.2894 40.3845 52.3691C40.9053 48.963 42.6392 46.19 45.7113 44.4073C48.2558 42.9297 51.0829 42.4872 53.9505 42.3393C56.7791 42.1934 59.6163 42.1964 62.4499 42.1526C62.9662 42.1447 63.2654 42.0182 63.3261 41.4352C63.586 38.9247 64.0196 33.8991 63.9479 33.8941ZM61.5583 47.242C61.409 47.2041 61.3004 47.1499 61.1974 47.1553C57.9331 47.3221 54.6439 47.2997 51.412 47.7179C47.5787 48.2132 45.7945 50.0388 45.215 53.7317C44.8625 55.9759 44.8287 58.2699 44.6674 60.5425C44.6515 60.7666 44.7361 60.9981 44.7724 61.2171C51.0162 60.7128 60.6787 52.6663 61.5578 47.24L61.5583 47.242Z" fill="#1F1F1F"/>
<path d="M32.9851 37.046H24.7321C23.5537 37.046 22.557 36.6796 21.9815 35.5784C21.2582 34.1939 22.0841 32.4316 23.6144 32.0702C23.9872 31.9771 24.3693 31.927 24.7535 31.9208C30.2829 31.9113 35.8123 31.8964 41.3412 31.9372C42.0226 31.9525 42.6895 32.136 43.2828 32.4714C44.2287 33.014 44.5682 34.2024 44.2545 35.2259C43.9235 36.3077 42.8541 37.032 41.4851 37.0395C38.6519 37.0564 35.8183 37.0455 32.9851 37.046Z" fill="#1F1F1F"/>
<path d="M29.6007 21.3424C31.2251 21.3424 32.85 21.3165 34.4739 21.3498C36.4424 21.3902 37.6531 22.8433 37.212 24.5773C36.9387 25.6501 35.9251 26.4442 34.5954 26.4581C31.2101 26.4936 27.8237 26.4936 24.4361 26.4581C23.1109 26.4437 22.0963 25.6456 21.822 24.5728C21.5383 23.4616 21.9166 22.347 22.9222 21.8078C23.4539 21.5226 24.117 21.3847 24.7284 21.3598C26.3503 21.303 27.9762 21.3424 29.6007 21.3424Z" fill="#1F1F1F"/>
</svg>
