<svg width="70" height="70" viewBox="0 0 70 70" fill="none" xmlns="http://www.w3.org/2000/svg">
<path d="M68.4311 25.2989C66.9715 17.1011 62.7613 10.6214 55.828 5.97011C49.4941 1.71165 42.2915 0.668198 34.9161 0.65625C31.7992 0.65625 28.6569 1.03659 25.6017 1.61308C16.1269 3.39283 9.0582 8.57178 4.61555 17.1868C1.76944 22.7217 1.14267 28.7474 0.934082 36.1472C1.15562 38.0494 1.3881 41.2525 1.95265 44.4067C3.43768 52.5921 7.65979 59.0719 14.5926 63.7107C20.9151 67.9323 28.0804 68.9379 35.4438 69.0245C38.8291 69.0743 42.2302 68.681 45.5682 67.9323C54.6128 65.9195 61.3624 60.8755 65.6806 52.6533C68.6253 47.0328 69.3646 40.8965 69.374 34.6871C69.3885 31.5587 68.9837 28.3915 68.4311 25.2989ZM64.2832 37.5456C63.9885 42.3442 63.2034 47.0542 60.7372 51.3027C56.9691 57.7705 51.3605 61.6362 44.0598 63.1212C40.2305 63.9063 36.3643 64.1517 32.4996 63.9178C27.5537 63.6111 22.7177 62.7767 18.3866 60.1626C12.1139 56.3826 8.33485 50.8601 6.91105 43.7053C6.32262 40.7601 5.95372 37.79 6.0279 35.8634C6.06524 29.9482 6.5551 25.16 8.5315 20.695C11.8451 13.1847 17.6005 8.57029 25.5773 6.7059C29.652 5.74857 33.788 5.49119 37.9354 5.74857C43.2125 6.06768 48.3551 7.03696 52.8948 10.0299C58.6761 13.8588 62.1361 19.21 63.4986 25.9964C64.2619 29.7957 64.5256 33.6785 64.2832 37.5461V37.5456Z" fill="#1F1F1F"/>
<path d="M17.7593 42.0503V42.6761H17.7961C17.7719 42.4683 17.7596 42.2594 17.7593 42.0503V42.0503ZM36.2418 28.6367H36.2537V28.5869C36.2441 28.6016 36.2399 28.6192 36.2418 28.6367V28.6367ZM36.2418 28.6367H36.2537V28.5869C36.2441 28.6016 36.2399 28.6192 36.2418 28.6367V28.6367Z" fill="#1F1F1F"/>
<path d="M46.3286 26.8576H39.6044V23.2129C39.6036 22.7672 39.4262 22.3399 39.111 22.0247C38.7958 21.7095 38.3685 21.532 37.9227 21.5313H19.4283C19.2073 21.5306 18.9883 21.5737 18.784 21.6579C18.5797 21.7422 18.3941 21.8661 18.2378 22.0224C18.0816 22.1787 17.9578 22.3643 17.8736 22.5686C17.7893 22.773 17.7464 22.9919 17.7471 23.2129H17.759V42.0509C17.7594 42.26 17.7717 42.4689 17.7959 42.6767C17.9195 43.6437 18.32 44.5544 18.9492 45.2991C19.5785 46.0438 20.4096 46.5906 21.3424 46.8739C21.579 47.6665 22.0093 48.3877 22.5945 48.9723C23.0617 49.442 23.6172 49.8148 24.229 50.0692C24.8408 50.3236 25.4969 50.4545 26.1594 50.4545C26.822 50.4545 27.4781 50.3236 28.0899 50.0692C28.7017 49.8148 29.2572 49.442 29.7244 48.9723C30.2586 48.4417 30.6619 47.794 30.9023 47.0805H41.5783C41.8287 47.7921 42.2355 48.4386 42.7686 48.9723C44.7326 50.9357 47.9232 50.9357 49.8991 48.9723C50.4836 48.385 50.9174 47.6651 51.1636 46.8739C52.1969 46.5567 53.102 45.9178 53.7467 45.0502C54.3915 44.1827 54.7423 43.1318 54.748 42.0509V35.2764C54.7482 34.1707 54.5305 33.0758 54.1075 32.0543C53.6844 31.0328 53.0642 30.1046 52.2824 29.3228C51.5005 28.541 50.5723 27.9209 49.5508 27.4979C48.5292 27.0749 47.4343 26.8573 46.3286 26.8576V26.8576ZM27.3443 46.5936C27.0291 46.906 26.6032 47.0813 26.1594 47.0813C25.7157 47.0813 25.2898 46.906 24.9746 46.5936C24.8158 46.4399 24.6896 46.2559 24.6034 46.0524C24.5171 45.849 24.4727 45.6302 24.4727 45.4093C24.4727 45.1883 24.5171 44.9696 24.6034 44.7661C24.6896 44.5627 24.8158 44.3786 24.9746 44.2249C25.6133 43.5623 26.6672 43.5623 27.3323 44.2C27.3323 44.2125 27.3443 44.2125 27.3443 44.2249C27.658 44.5393 27.8341 44.9652 27.8341 45.4093C27.8341 45.8533 27.658 46.2793 27.3443 46.5936V46.5936ZM36.2555 28.6393H36.2435V43.7236H30.9023C30.6567 43.0167 30.254 42.3746 29.7244 41.8458C29.1549 41.2759 28.457 40.8509 27.6893 40.6063C26.9216 40.3618 26.1064 40.3048 25.3122 40.4403C24.518 40.5757 23.7678 40.8996 23.1245 41.3848C22.4813 41.87 21.9637 42.5023 21.6152 43.2288C21.4596 43.0746 21.3361 42.8911 21.2518 42.689C21.1674 42.4868 21.124 42.2699 21.1239 42.0509V24.8941H36.2415V28.6373C36.2396 28.6198 36.2438 28.6022 36.2535 28.5875L36.2555 28.6393ZM47.5189 46.5936C47.3633 46.7511 47.178 46.8761 46.9737 46.9614C46.7694 47.0467 46.5503 47.0907 46.3289 47.0907C46.1075 47.0907 45.8883 47.0467 45.684 46.9614C45.4797 46.8761 45.2944 46.7511 45.1388 46.5936C44.9809 46.4385 44.856 46.253 44.7715 46.0484C44.6871 45.8437 44.6449 45.6242 44.6474 45.4028C44.6494 45.0724 44.7486 44.7499 44.9328 44.4755C45.1169 44.2012 45.3778 43.9872 45.6828 43.8602C45.9879 43.7332 46.3235 43.6989 46.648 43.7616C46.9724 43.8242 47.2712 43.9811 47.507 44.2125C47.5086 44.2125 47.5102 44.2128 47.5117 44.2134C47.5132 44.2141 47.5145 44.215 47.5156 44.2162C47.5167 44.2173 47.5176 44.2187 47.5182 44.2202C47.5187 44.2217 47.519 44.2233 47.5189 44.2249C47.6747 44.3803 47.7982 44.565 47.8825 44.7682C47.9668 44.9714 48.0102 45.1893 48.0102 45.4093C48.0102 45.6293 47.9668 45.8471 47.8825 46.0504C47.7982 46.2536 47.6747 46.4382 47.5189 46.5936V46.5936ZM51.3732 42.0529C51.3729 42.2719 51.3294 42.4887 51.2451 42.6909C51.1607 42.893 51.0373 43.0765 50.8818 43.2308C50.5342 42.5054 50.0183 41.8736 49.3772 41.388C48.736 40.9024 47.9881 40.577 47.1957 40.4389C46.4033 40.3008 45.5894 40.3541 44.8218 40.5942C44.0542 40.8343 43.355 41.2544 42.7826 41.8194C42.7826 41.8319 42.7696 41.8319 42.7696 41.8438C42.2366 42.37 41.8332 43.0128 41.5912 43.7216H39.6163V30.2324H46.3286C46.9911 30.2322 47.6471 30.3626 48.2591 30.616C48.8712 30.8695 49.4273 31.241 49.8958 31.7094C50.3642 32.1778 50.7358 32.7339 50.9893 33.3459C51.2428 33.958 51.3732 34.6139 51.3732 35.2764V42.0529Z" fill="#1F1F1F"/>
</svg>
