<svg width="69" height="69" viewBox="0 0 69 69" fill="none" xmlns="http://www.w3.org/2000/svg">
<path d="M67.7473 25.1837C66.2871 16.9859 62.065 10.5061 55.1442 5.85487C48.8112 1.59642 41.6076 0.552964 34.2208 0.541016C31.1163 0.541016 27.9745 0.921359 24.9068 1.49785C15.4321 3.2776 8.36388 8.45654 3.93367 17.0715C1.08607 22.6064 0.460295 28.6322 0.239258 36.032C0.472243 37.9342 0.705726 41.1372 1.27027 44.2915C2.75331 52.4768 6.97542 58.9566 13.9092 63.5954C20.2173 67.817 27.396 68.8227 34.7475 68.9093C38.1467 68.9591 41.5464 68.5658 44.8838 67.817C53.9165 65.8043 60.6785 60.7603 64.9863 52.5381C67.9434 46.9176 68.6797 40.7813 68.6926 34.5718C68.7046 31.4434 68.2994 28.2762 67.7473 25.1837ZM37.2511 5.63384C42.5281 5.95295 47.6697 6.92223 52.198 9.91519C54.5547 11.4739 56.5187 13.278 58.1137 15.3416L48.9218 21.2319L25.8009 6.39652C29.581 5.597 33.4098 5.40085 37.2511 5.63384ZM19.8981 8.2599C20.0658 8.48451 20.2738 8.67595 20.5115 8.82444L44.381 24.1527L34.5145 30.4851L10.9023 15.3411C13.2591 12.2117 16.2779 9.85545 19.8981 8.2599ZM17.6893 60.0489C11.4201 56.2688 7.65048 50.7464 6.22668 43.5905C5.63775 40.6454 5.25691 37.6753 5.34353 35.7487C5.37987 29.8335 5.87073 25.0453 7.84713 20.5802C8.00643 20.2243 8.16574 19.8688 8.35043 19.5248L32.0597 34.7291V63.8145C31.9741 63.8145 31.8879 63.802 31.8023 63.802C26.8688 63.4974 22.0333 62.663 17.6893 60.0489ZM63.5988 37.4309C63.3046 42.2295 62.5071 46.9395 60.0403 51.188C56.2847 57.6558 50.6766 61.5215 43.363 63.0065C41.2562 63.4452 39.1186 63.72 36.9693 63.8284V34.7291L46.0995 28.8756V36.0056C46.1087 36.6505 46.3714 37.2659 46.8307 37.7187C47.29 38.1716 47.9091 38.4254 48.5541 38.4254C49.1991 38.4254 49.8182 38.1716 50.2775 37.7187C50.7368 37.2659 50.9995 36.6505 51.0087 36.0056V25.7234L60.7034 19.5005C61.6603 21.4515 62.3602 23.5872 62.8147 25.8822C63.5777 29.6812 63.8413 33.5636 63.5988 37.4309V37.4309Z" fill="#FF7D04"/>
</svg>
