<svg width="70" height="70" viewBox="0 0 70 70" fill="none" xmlns="http://www.w3.org/2000/svg">
<path d="M68.4609 25.2989C67.0013 17.1011 62.7911 10.6214 55.8578 5.97011C49.5239 1.71165 42.3213 0.668198 34.9459 0.65625C31.829 0.65625 28.6866 1.03659 25.6314 1.61308C16.1567 3.39283 9.08799 8.57178 4.64533 17.1868C1.79923 22.7217 1.17246 28.7474 0.963867 36.1472C1.1854 38.0494 1.41789 41.2525 1.98243 44.4067C3.46746 52.5921 7.68958 59.0719 14.6224 63.7107C20.9449 67.9323 28.1102 68.9379 35.4736 69.0245C38.8588 69.0743 42.26 68.681 45.598 67.9323C54.6426 65.9195 61.3922 60.8755 65.7104 52.6533C68.6551 47.0328 69.3944 40.8965 69.4038 34.6871C69.4183 31.5587 69.0135 28.3915 68.4609 25.2989ZM64.313 37.5456C64.0183 42.3442 63.2332 47.0542 60.7669 51.3027C56.9988 57.7705 51.3903 61.6362 44.0896 63.1212C40.2602 63.9063 36.3941 64.1517 32.5294 63.9178C27.5834 63.6111 22.7475 62.7767 18.4164 60.1626C12.1437 56.3826 8.36464 50.8601 6.94084 43.7053C6.3524 40.7601 5.98351 37.79 6.05768 35.8634C6.09502 29.9482 6.58489 25.16 8.56128 20.695C11.8749 13.1847 17.6303 8.57029 25.6071 6.7059C29.6818 5.74857 33.8178 5.49119 37.9652 5.74857C43.2422 6.06768 48.3849 7.03696 52.9246 10.0299C58.7059 13.8588 62.1658 19.21 63.5284 25.9964C64.2916 29.7957 64.5554 33.6785 64.313 37.5461V37.5456Z" fill="#1F1F1F"/>
<path d="M36.0769 39.1754C36.0315 38.9939 35.9369 38.8285 35.8035 38.6975C35.67 38.5664 35.5029 38.4748 35.3207 38.4326C33.2126 37.9456 31.0563 37.6976 28.8927 37.6934H28.8429C26.6625 37.6939 24.4891 37.9419 22.3646 38.4326C22.1765 38.4761 22.0046 38.5724 21.8693 38.7101C21.7339 38.8479 21.6407 39.0214 21.6004 39.2103C20.6937 43.4696 20.6937 47.8721 21.6004 52.1315C21.6486 52.3587 21.7732 52.5626 21.9535 52.7091C22.1338 52.8556 22.3588 52.9358 22.5911 52.9365H35.0917C35.3182 52.9365 35.5382 52.8607 35.7168 52.7212C35.8953 52.5818 36.022 52.3866 36.0769 52.1668C37.14 47.9021 37.14 43.4416 36.0769 39.1769V39.1754ZM27.0661 39.7833C27.6569 39.7434 28.2488 39.7237 28.8419 39.724H28.8882C29.4647 39.724 30.0409 39.7438 30.6167 39.7833V41.565C30.0148 41.678 29.4035 41.7329 28.7911 41.7288C28.2124 41.7256 27.6351 41.6708 27.0661 41.565V39.7833ZM34.2847 50.9043H23.427C22.7817 47.3887 22.792 43.784 23.4574 40.2721C24.0979 40.1394 24.7428 40.0313 25.3919 39.948V42.2351C25.3919 42.4211 25.4538 42.6019 25.5678 42.7489C25.6818 42.8959 25.8415 43.0008 26.0217 43.047C26.9244 43.2775 27.852 43.3965 28.7837 43.4015H28.8419C29.7934 43.4014 30.7412 43.2821 31.6631 43.0465C31.8433 43.0003 32.0031 42.8955 32.1171 42.7484C32.2311 42.6014 32.293 42.4206 32.2929 42.2346V39.9446C32.949 40.0298 33.6015 40.1395 34.2504 40.2736C35.0299 43.772 35.0419 47.3978 34.2857 50.9013L34.2847 50.9043Z" fill="#1F1F1F"/>
<path d="M53.3205 39.1759C53.2752 38.9944 53.1806 38.829 53.0471 38.6979C52.9137 38.5668 52.7466 38.4752 52.5643 38.4331C50.4569 37.9467 48.3015 37.6992 46.1388 37.6953H46.089C43.9087 37.6958 41.7355 37.9438 39.6112 38.4346C39.423 38.4781 39.2511 38.5743 39.1156 38.712C38.9802 38.8498 38.8868 39.0233 38.8465 39.2122C37.9398 43.4716 37.9398 47.8741 38.8465 52.1334C38.8952 52.3612 39.0207 52.5654 39.2019 52.7117C39.3832 52.858 39.6093 52.9375 39.8422 52.9369H52.3378C52.5643 52.937 52.7844 52.8613 52.9629 52.7218C53.1415 52.5823 53.2682 52.3871 53.323 52.1673C54.3869 47.9027 54.3869 43.442 53.323 39.1774L53.3205 39.1759ZM44.3097 39.7837C44.9012 39.7439 45.4931 39.7241 46.0855 39.7245H46.1318C46.7083 39.7245 47.2846 39.7442 47.8608 39.7837V41.5655C47.2589 41.6784 46.6476 41.7333 46.0352 41.7292C45.4563 41.726 44.8789 41.6712 44.3097 41.5655V39.7837ZM51.5283 50.9048H40.6711C40.0251 47.3892 40.0354 43.7844 40.7015 40.2726C41.3423 40.1398 41.987 40.0318 42.6355 39.9485V42.2355C42.6357 42.4216 42.6976 42.6024 42.8117 42.7494C42.9258 42.8964 43.0856 43.0012 43.2658 43.0475C44.1684 43.2779 45.0958 43.397 46.0273 43.402H46.0855C47.037 43.4018 47.9848 43.2826 48.9067 43.047C49.0869 43.0008 49.2467 42.8959 49.3607 42.7489C49.4747 42.6019 49.5366 42.4211 49.5365 42.235V39.945C50.1933 40.0303 50.8459 40.14 51.4945 40.2741C52.2742 43.7725 52.2861 47.3984 51.5293 50.9018L51.5283 50.9048Z" fill="#1F1F1F"/>
<path d="M53.3205 25.9654C53.2751 25.7839 53.1805 25.6185 53.047 25.4873C52.9136 25.3562 52.7466 25.2644 52.5643 25.2222C50.4569 24.7357 48.3016 24.4879 46.1388 24.4834H46.089C43.9087 24.484 41.7356 24.7318 39.6112 25.2222C39.4231 25.2658 39.2512 25.3621 39.1158 25.4998C38.9804 25.6375 38.887 25.811 38.8465 25.9998C37.9398 30.2592 37.9398 34.6617 38.8465 38.921C38.8952 39.1488 39.0207 39.353 39.2019 39.4993C39.3832 39.6456 39.6093 39.7251 39.8422 39.7245H52.3378C52.5643 39.7247 52.7843 39.6491 52.9629 39.5097C53.1414 39.3703 53.2682 39.1752 53.323 38.9554C54.3869 34.6907 54.3869 30.2301 53.323 25.9654H53.3205ZM44.3097 26.5733C44.9012 26.5335 45.4931 26.5136 46.0855 26.5136H46.1318C46.7083 26.5136 47.2846 26.5335 47.8608 26.5733V28.353C47.2589 28.4659 46.6476 28.5205 46.0352 28.5163C45.4564 28.5133 44.8789 28.4587 44.3097 28.353V26.5733ZM51.5283 37.6944H40.6711C40.0251 34.1786 40.0354 30.5737 40.7015 27.0617C41.3423 26.9289 41.987 26.8211 42.6355 26.7381V29.0251C42.6356 29.2112 42.6976 29.3919 42.8117 29.5388C42.9258 29.6857 43.0856 29.7905 43.2658 29.8366C44.1683 30.0674 45.0957 30.1866 46.0273 30.1915H46.0855C47.0371 30.1913 47.9848 30.0718 48.9067 29.8361C49.087 29.7901 49.2467 29.6853 49.3607 29.5383C49.4748 29.3914 49.5366 29.2106 49.5365 29.0246V26.7346C50.1933 26.8199 50.8459 26.9296 51.4945 27.0637C52.2742 30.5621 52.2861 34.1879 51.5293 37.6914L51.5283 37.6944Z" fill="#1F1F1F"/>
</svg>
