<svg width="70" height="70" viewBox="0 0 70 70" fill="none" xmlns="http://www.w3.org/2000/svg">
<path d="M68.1479 25.2931C66.6883 17.1078 62.4781 10.628 55.5448 5.9648C49.2109 1.71829 42.0083 0.67533 34.6329 0.663382C31.516 0.650937 28.3737 1.03128 25.3185 1.60926C15.8437 3.40146 8.775 8.57891 4.33235 17.1824C1.48624 22.7173 0.859471 28.7426 0.650879 36.1429C0.872414 38.0451 1.1049 41.2606 1.66944 44.4019C3.15448 52.5878 7.37659 59.0675 14.3094 63.7178C20.6319 67.9394 27.7972 68.9336 35.1606 69.0322C38.5459 69.069 41.947 68.6762 45.285 67.9275C54.3296 65.9147 61.0792 60.8831 65.3974 52.6609C68.3421 47.0399 69.0814 40.8917 69.0908 34.6942C69.1053 31.5524 68.7005 28.3857 68.1479 25.2931ZM60.4539 51.2979C56.6859 57.7657 51.0773 61.6314 43.7766 63.1284C39.9745 63.8972 36.0876 64.1614 32.2164 63.9139C27.2705 63.6073 22.4345 62.7724 18.1034 60.1588C11.8307 56.3788 8.05165 50.8563 6.62785 43.7015C6.03941 40.7563 5.67052 37.7987 5.7447 35.8596C5.78203 29.9444 6.2719 25.1562 8.24829 20.6912C11.5619 13.1809 17.3173 8.57891 25.2941 6.70209C29.3688 5.74475 33.5048 5.48688 37.6522 5.74475C42.9293 6.07631 48.0719 7.03314 52.6116 10.0261C58.2949 13.7937 61.7428 19.0463 63.1412 25.661H43.0642C37.8116 25.661 33.5556 29.9314 33.5556 35.1721V38.1541C33.5556 43.4067 37.814 47.6772 43.0642 47.6772H62.1351C61.6857 48.9326 61.123 50.1445 60.4539 51.2979V51.2979ZM64 37.5532C63.8656 39.7377 63.6321 41.8973 63.1781 43.9962H43.0657C39.8502 43.9962 37.2366 41.3701 37.2366 38.1546V35.1726C37.2379 33.627 37.8524 32.145 38.9453 31.0521C40.0382 29.9591 41.5201 29.3444 43.0657 29.343H63.7675C64.084 32.0677 64.1618 34.8149 64 37.5532Z" fill="#1F1F1F"/>
<path d="M50.3783 36.6694C50.3783 37.4291 50.1531 38.1718 49.731 38.8035C49.3089 39.4352 48.709 39.9275 48.0071 40.2183C47.3052 40.509 46.5328 40.5851 45.7877 40.4369C45.0425 40.2886 44.3581 39.9228 43.8209 39.3856C43.2837 38.8484 42.9178 38.1639 42.7696 37.4188C42.6214 36.6737 42.6975 35.9013 42.9882 35.1994C43.2789 34.4975 43.7713 33.8976 44.403 33.4755C45.0347 33.0534 45.7773 32.8281 46.5371 32.8281C47.5547 32.8318 48.5296 33.2377 49.2492 33.9573C49.9688 34.6768 50.3747 35.6518 50.3783 36.6694V36.6694Z" fill="#1F1F1F"/>
</svg>
