<svg width="69" height="70" viewBox="0 0 69 70" fill="none" xmlns="http://www.w3.org/2000/svg">
<path d="M68.7154 33.1723C68.6298 30.5338 68.2614 27.8828 67.8074 25.2931C67.3897 22.9249 66.7395 20.6912 65.8439 18.6172C63.6838 13.5119 60.1248 9.27837 55.2043 5.9648C48.8713 1.71829 41.6677 0.67533 34.2809 0.663382C31.1764 0.650937 28.0346 1.03128 24.9794 1.60926C15.4922 3.40146 8.42396 8.57891 3.99376 17.1824C2.36983 20.3352 1.46427 23.6488 0.948518 27.2815C0.555729 30.0305 0.396422 32.9513 0.297852 36.1429C0.530837 38.0451 0.76432 41.2606 1.32886 44.4019C1.54709 45.621 1.83801 46.8259 2.20007 48.0102C4.16202 54.5134 8.09091 59.778 13.9693 63.7183C20.2773 67.9399 27.4561 68.9341 34.8076 69.0327C38.2068 69.0695 41.6065 68.6767 44.9439 67.928C53.9766 65.9152 60.7386 60.8836 65.0464 52.6614C68.0035 47.0404 68.7398 40.8922 68.7527 34.6947C68.7527 34.1904 68.7398 33.6751 68.7154 33.1723ZM63.7326 35.6903C63.7207 36.3161 63.6963 36.9299 63.6589 37.5557C63.3647 42.3543 62.5791 47.0643 60.1004 51.3004C56.3448 57.7682 50.7367 61.6339 43.4231 63.1309C39.6211 63.9006 35.7341 64.1647 31.8629 63.9164C26.9294 63.6098 22.0939 62.7749 17.7499 60.1613C14.2272 58.0355 11.5026 55.3721 9.53861 52.1686C10.6271 52.3932 11.7496 52.3975 12.8397 52.181C13.2679 52.0987 13.6872 51.9754 14.0918 51.8126C14.2511 51.7509 14.3984 51.6897 14.5458 51.616C18.5781 54.213 23.2732 55.5935 28.0694 55.5922C30.3357 55.5851 32.5917 55.2884 34.7827 54.709H34.7951C35.1506 55.4558 36.0342 55.8257 36.8442 55.5434L45.1774 52.5858C45.5956 52.4375 45.9378 52.1292 46.1287 51.7287C46.3196 51.3282 46.3436 50.8683 46.1955 50.4501L45.1157 47.4312C45.0436 47.2247 44.9314 47.0344 44.7856 46.8714C44.6397 46.7084 44.4631 46.5757 44.2658 46.4812C44.0686 46.3866 43.8546 46.332 43.6361 46.3204C43.4177 46.3088 43.1991 46.3405 42.9929 46.4137L34.6483 49.3837C34.2791 49.5129 33.9679 49.769 33.7701 50.1064C33.5723 50.4438 33.5008 50.8405 33.5685 51.2257C30.9539 51.8883 27.4949 52.2711 23.6153 51.4462C21.5423 51.004 19.5481 50.2511 17.7001 49.213C20.3266 46.1324 21.4184 41.1257 20.253 35.8855C18.8167 29.5028 14.4846 24.7166 9.77259 23.8205C8.79387 23.6185 7.78546 23.606 6.80203 23.7837C7.09867 22.7286 7.46795 21.6953 7.90722 20.6912C11.2083 13.1809 16.9757 8.57891 24.9525 6.70209C29.0272 5.74475 33.1632 5.48688 37.3112 5.74475C42.5882 6.07631 47.7298 7.03314 52.271 10.0261C54.1727 11.2903 55.8211 12.7139 57.216 14.297C56.7457 14.5362 56.3153 14.8467 55.94 15.2175C53.5719 17.402 52.4791 21.6848 53.4245 26.2256C54.5287 31.3921 57.9408 35.1865 61.4749 35.5649C62.0396 35.6261 62.6103 35.6013 63.1676 35.4912C63.359 35.4509 63.5475 35.3975 63.7316 35.3314L63.7326 35.6903Z" fill="#1F1F1F"/>
</svg>
