<svg xmlns="http://www.w3.org/2000/svg" viewBox="0 0 1739.57 153.2"><defs><style>.cls-1{fill:#1a1a1a;}.cls-1,.cls-2{fill-rule:evenodd;}.cls-2{fill:#f99a1a;}</style></defs><title>Asset 1</title><g id="Layer_2" data-name="Layer 2"><g id="Layer_1-2" data-name="Layer 1"><path class="cls-1" d="M571.21,148.19h54.14l17-80.21h.41l43.11,80.21h62L778.35,5H724.21L707.36,84.42h-.6L666.26,5H601.69L571.21,148.19ZM828.7,79.8C834.32,66,845.54,60.56,863,60.56c17.24,0,27.07,7.42,25.46,19.24Zm48.92,35.5c-6.81,6.82-15,9.62-28.07,9.62-22,0-27.87-12-26.06-19.85H933.77c12.43-54.74-19.85-71-68.38-71-49.33,0-82.81,21.26-90.83,59.15-8.42,40.1,17.44,59.35,70.18,59.35,23.06,0,41.11-3.61,55.34-10S924.75,126.73,931,115.3ZM945,69.78h23.26l-9.62,45.12c-6.22,29.87,4,35.69,34.49,35.69a278.77,278.77,0,0,0,37.09-2.4l6.22-29.28c-4.82.2-9.42.4-13.43.4-10.83,0-15-.6-12.84-10.83l8.23-38.7h27.06l6.62-31.28H1025l7.62-35.29H982.52L974.9,38.5H951.64L945,69.78Zm121.74,78.41h58.35l33.49-57.35,9,57.35H1226L1286.53,38.5H1233l-33.48,64.77h-.4l-8.23-64.77h-42.51l-37.49,64.77h-.4l-4.21-64.77h-53.54l14,109.69Zm261.9-54.95c3.81-17.24,14.44-26.67,34.49-26.67,20.25,0,26.67,9.43,22.86,26.67-3.61,17.65-14,26.87-34.29,26.87-20,0-26.67-9.22-23.06-26.87Zm-52.53,0c-8.62,40.51,12,59.35,68.57,59.35s85.22-18.84,93.85-59.35c8.62-40.3-12-59.15-68.58-59.15s-85.22,18.85-93.84,59.15Zm164,55h50.12l8.83-41.11c5-23.67,25.27-29.48,43.11-29.48,8.82,0,15.84,1.81,24.26,4l9.43-44.91a109.06,109.06,0,0,0-16.25-1.21c-17.24,0-35.09,7-51.73,24.07h-.4L1512,38.5h-48.52l-23.26,109.69Zm121.53,0h50.13l5.22-24.07,18.24-12.83,18.25,36.9h67.78L1681,79.41l58.55-40.91H1673L1627.69,74l15.64-74h-50.14l-31.48,148.19Z"/><path class="cls-2" d="M127.23,92.44c-8.23,17.24-20.46,24.66-38.3,24.66-20.66,0-32.49-11.43-26.27-40.5S85.92,36.09,109,36.09c21.86,0,25.47,14.84,24.86,25.07h58.43A122.21,122.21,0,0,0,188,76.6,117.84,117.84,0,0,0,186,88.52l16.9,3.92H127.23ZM383.56,5H512.23c48.53,0,70.19,18.86,59,71.59-10.63,50.33-40.71,71.59-88.23,71.59H371.67L394.3,41.92l54.09,11.71-12.55,58.46h32.48c25.87,0,39.1-12.83,43.91-35.49s-2.8-35.49-28.67-35.49H384.75c2.07,9.48,2,21.14-1.1,35.49-15.84,74.19-79.81,76.6-114.09,76.6-29.39,0-80-1.78-83.87-49-6.82,13.48-15.48,24.59-28.19,32.74-16,10.43-38.9,16.25-73.39,16.25-34.29,0-97.45-2.41-81.61-76.6S82.31,0,116.6,0C148,0,194.12,3.74,197.67,48.59,221.77,1.77,272.74,0,302,0c22,0,55.79,1,73.09,21.2L383.56,5ZM248.1,76.6c3.47-16.2,10.29-26.92,19.64-33.24l-33.55-7.27h67.6v.45C320,38.89,329,50.8,323.5,76.6c-6.22,29.07-23.27,40.5-46.32,40.5s-35.3-11.43-29.08-40.5Z"/></g></g></svg>