<?xml version="1.0" encoding="utf-8"?>
<!-- Generator: Adobe Illustrator 24.3.0, SVG Export Plug-In . SVG Version: 6.00 Build 0)  -->
<svg version="1.0" id="Layer_1" xmlns="http://www.w3.org/2000/svg" xmlns:xlink="http://www.w3.org/1999/xlink" x="0px" y="0px"
	 viewBox="0 0 1739.6 153.2" style="enable-background:new 0 0 1739.6 153.2;" xml:space="preserve">
<style type="text/css">
	.st0{fill-rule:evenodd;clip-rule:evenodd;fill:#FFFFFF;}
</style>
<g id="Layer_2_1_">
	<g id="Layer_1-2">
		<path class="st0" d="M571.2,148.2h54.1l17-80.2h0.4l43.1,80.2h62L778.3,5h-54.1l-16.9,79.4h-0.6L666.3,5h-64.6L571.2,148.2z
			 M828.7,79.8c5.6-13.8,16.8-19.2,34.3-19.2c17.2,0,27.1,7.4,25.5,19.2H828.7z M877.6,115.3c-6.8,6.8-15,9.6-28.1,9.6
			c-22,0-27.9-12-26.1-19.8h110.3c12.4-54.7-19.8-71-68.4-71c-49.3,0-82.8,21.3-90.8,59.2c-8.4,40.1,17.4,59.3,70.2,59.3
			c23.1,0,41.1-3.6,55.3-10s24.7-15.8,30.9-27.3H877.6z M945,69.8h23.3l-9.6,45.1c-6.2,29.9,4,35.7,34.5,35.7
			c12.4,0,24.8-0.8,37.1-2.4l6.2-29.3c-4.8,0.2-9.4,0.4-13.4,0.4c-10.8,0-15-0.6-12.8-10.8l8.2-38.7h27.1l6.6-31.3H1025l7.6-35.3
			h-50.1l-7.6,35.3h-23.3L945,69.8z M1066.7,148.2h58.3l33.5-57.3l9,57.3h58.4l60.5-109.7H1233l-33.5,64.8h-0.4l-8.2-64.8h-42.5
			l-37.5,64.8h-0.4l-4.2-64.8h-53.5L1066.7,148.2z M1328.6,93.2c3.8-17.2,14.4-26.7,34.5-26.7c20.2,0,26.7,9.4,22.9,26.7
			c-3.6,17.7-14,26.9-34.3,26.9C1331.7,120.1,1325,110.9,1328.6,93.2L1328.6,93.2z M1276.1,93.2c-8.6,40.5,12,59.3,68.6,59.3
			s85.2-18.8,93.8-59.3c8.6-40.3-12-59.2-68.6-59.2S1284.7,52.9,1276.1,93.2z M1440.1,148.2h50.1l8.8-41.1
			c5-23.7,25.3-29.5,43.1-29.5c8.8,0,15.8,1.8,24.3,4l9.4-44.9c-5.4-0.8-10.8-1.2-16.2-1.2c-17.2,0-35.1,7-51.7,24.1h-0.4l4.5-21.1
			h-48.5l-23.3,109.7L1440.1,148.2z M1561.6,148.2h50.1l5.2-24.1l18.2-12.8l18.2,36.9h67.8L1681,79.4l58.6-40.9H1673L1627.7,74
			l15.6-74h-50.1L1561.6,148.2L1561.6,148.2z"/>
		<path class="st0" d="M127.2,92.4c-8.2,17.2-20.5,24.7-38.3,24.7c-20.7,0-32.5-11.4-26.3-40.5S85.9,36.1,109,36.1
			c21.9,0,25.5,14.8,24.9,25.1h58.4c-1.8,5-3.2,10.2-4.3,15.4c-0.9,3.9-1.5,7.9-2,11.9l16.9,3.9C202.9,92.4,127.2,92.4,127.2,92.4z
			 M383.6,5h128.7c48.5,0,70.2,18.9,59,71.6c-10.6,50.3-40.7,71.6-88.2,71.6H371.7l22.6-106.3l54.1,11.7l-12.5,58.5h32.5
			c25.9,0,39.1-12.8,43.9-35.5c4.8-22.7-2.8-35.5-28.7-35.5h-98.8c2.1,9.5,2,21.1-1.1,35.5c-15.8,74.2-79.8,76.6-114.1,76.6
			c-29.4,0-80-1.8-83.9-49c-6.8,13.5-15.5,24.6-28.2,32.7c-16,10.4-38.9,16.2-73.4,16.2c-34.3,0-97.4-2.4-81.6-76.6S82.3,0,116.6,0
			c31.4,0,77.5,3.7,81.1,48.6C221.8,1.8,272.7,0,302,0c22,0,55.8,1,73.1,21.2L383.6,5z M248.1,76.6c3.5-16.2,10.3-26.9,19.6-33.2
			l-33.6-7.3h67.6v0.5c18.2,2.4,27.2,14.3,21.7,40.1c-6.2,29.1-23.3,40.5-46.3,40.5S241.9,105.7,248.1,76.6L248.1,76.6z"/>
	</g>
</g>
</svg>
