<svg width="1419" height="879" viewBox="0 0 1419 879" fill="none" xmlns="http://www.w3.org/2000/svg">
<path d="M360.48 751.922C361.01 746.093 359.597 741.53 356.24 738.232C352.884 734.876 347.232 733.198 339.283 733.198C334.219 733.198 329.98 733.787 326.565 734.964C323.208 736.142 320.588 737.761 318.704 739.822C316.879 741.883 315.731 744.268 315.26 746.976C314.73 749.096 314.759 751.039 315.348 752.805C315.996 754.513 317.203 756.073 318.969 757.486C320.794 758.899 323.179 760.165 326.123 761.284C329.126 762.403 332.688 763.404 336.81 764.287L350.941 767.466C360.597 769.586 368.694 772.383 375.229 775.857C381.824 779.272 387.005 783.335 390.774 788.045C394.542 792.756 397.015 798.025 398.193 803.855C399.429 809.684 399.459 816.043 398.281 822.932C396.279 834.826 391.657 844.894 384.415 853.138C377.172 861.381 367.722 867.652 356.064 871.95C344.405 876.248 330.922 878.397 315.613 878.397C299.951 878.397 286.644 876.072 275.692 871.42C264.799 866.71 256.909 859.526 252.022 849.87C247.194 840.154 246.016 827.76 248.489 812.687H295.122C294.416 818.221 295.005 822.873 296.889 826.641C298.773 830.41 301.805 833.265 305.986 835.208C310.166 837.152 315.377 838.123 321.619 838.123C326.918 838.123 331.452 837.475 335.22 836.18C338.988 834.885 341.962 833.089 344.14 830.792C346.319 828.496 347.644 825.876 348.115 822.932C348.586 820.223 348.115 817.809 346.702 815.69C345.289 813.57 342.727 811.656 339.018 809.949C335.308 808.241 330.215 806.681 323.738 805.268L306.427 801.382C291.06 797.849 279.46 792.02 271.629 783.894C263.798 775.769 261.031 764.64 263.327 750.509C265.211 738.968 269.951 728.9 277.547 720.303C285.201 711.648 294.916 704.935 306.692 700.166C318.527 695.338 331.628 692.924 345.995 692.924C360.597 692.924 372.815 695.367 382.648 700.254C392.54 705.142 399.635 712.001 403.934 720.833C408.291 729.665 409.468 740.028 407.466 751.922H360.48Z" fill="#B6B6B6"/>
<path d="M408.129 876.278L438.158 695.397H568.519L561.807 734.964H480.552L475.606 766.053H550.148L543.436 805.621H468.893L463.947 836.71H544.849L538.137 876.278H408.129Z" fill="#B6B6B6"/>
<path d="M562.845 876.278L592.874 695.397H641.98L618.663 836.71H691.793L685.08 876.278H562.845Z" fill="#B6B6B6"/>
<path d="M704.93 876.278L734.959 695.397H784.066L760.749 836.71H833.879L827.166 876.278H704.93Z" fill="#B6B6B6"/>
<path d="M847.016 876.278L877.045 695.397H1007.41L1000.69 734.964H919.439L914.493 766.053H989.036L982.324 805.621H907.781L902.835 836.71H983.737L977.024 876.278H847.016Z" fill="#B6B6B6"/>
<path d="M1001.73 876.278L1031.76 695.397H1109.84C1123.26 695.397 1134.6 697.84 1143.84 702.727C1153.08 707.615 1159.74 714.651 1163.8 723.836C1167.86 733.021 1168.83 744.032 1166.72 756.868C1164.6 769.822 1159.91 780.744 1152.67 789.635C1145.49 798.467 1136.33 805.179 1125.2 809.772C1114.13 814.306 1101.71 816.573 1087.93 816.573H1041.3L1047.66 778.418H1084.4C1090.17 778.418 1095.23 777.712 1099.59 776.299C1103.95 774.827 1107.48 772.53 1110.19 769.41C1112.9 766.23 1114.66 762.049 1115.49 756.868C1116.31 751.687 1115.9 747.477 1114.25 744.238C1112.6 740.941 1109.87 738.527 1106.04 736.996C1102.21 735.406 1097.47 734.611 1091.82 734.611H1074.51L1050.84 876.278H1001.73ZM1121.49 793.256L1152.94 876.278H1099.59L1069.21 793.256H1121.49Z" fill="#B6B6B6"/>
<path fill-rule="evenodd" clip-rule="evenodd" d="M314.316 228.413C294 270.986 263.765 289.321 219.716 289.321C168.686 289.321 139.461 261.081 154.832 189.283C170.203 117.486 212.284 89.2175 269.298 89.2175C323.293 89.2175 332.147 125.875 330.698 151.137H475.03C470.662 163.605 467.118 176.348 464.429 189.283C462.28 199.006 460.633 208.834 459.498 218.726L501.237 228.413H314.316ZM947.461 12.3511H1265.31C1385.19 12.3511 1438.69 58.941 1411.05 189.187C1384.79 313.518 1310.49 366.025 1193.12 366.025H918.113L974.022 103.55L1107.63 132.474L1076.63 276.875H1156.85C1220.76 276.875 1253.44 245.191 1265.31 189.215C1277.18 133.239 1258.4 101.555 1194.49 101.555H950.425C955.535 124.959 955.37 153.76 947.694 189.215C908.576 372.473 750.568 378.415 665.899 378.415C593.297 378.415 468.282 374.03 458.731 257.392C441.885 290.688 420.477 318.124 389.053 338.261C349.525 364.015 292.962 378.404 207.775 378.404C123.066 378.404 -32.9345 372.445 6.18176 189.187C45.2981 5.92961 203.362 0 288.07 0C365.634 0 479.553 9.23598 488.312 120.027C547.853 4.34474 673.743 0 746.017 0C800.366 0 883.833 2.47295 926.571 52.3693L947.461 12.3511ZM612.888 189.215C621.454 149.197 638.3 122.718 661.404 107.102L578.566 89.1493H745.499V90.2558C790.49 96.0624 812.72 125.478 799.124 189.215C783.767 261.012 741.646 289.253 684.712 289.253C627.781 289.253 597.518 261.012 612.888 189.215Z" fill="url(#paint0_linear_53_27)"/>
<path fill-rule="evenodd" clip-rule="evenodd" d="M0.0478516 597.141H65.7654L86.3962 499.782H86.8879L139.216 597.141H214.471L251.469 423.338H185.751L165.257 519.73H164.588L115.402 423.338H37.0464L0.0478516 597.141ZM312.582 514.128C319.412 497.378 333.076 490.777 354.227 490.777C375.143 490.777 387.086 499.782 385.13 514.128H312.582ZM371.973 557.219C363.693 565.499 353.763 568.888 337.9 568.888C311.189 568.888 304.07 554.324 306.269 544.801H440.165C455.193 478.359 416.064 458.617 357.163 458.617C297.279 458.617 256.647 484.425 246.919 530.413C236.686 579.092 268.083 602.457 332.094 602.457C360.087 602.457 382.002 598.072 399.272 590.325C416.542 582.577 429.221 571.087 436.805 557.219H371.973ZM453.758 501.967H481.986L470.303 556.727C462.762 592.988 475.169 600.051 512.181 600.051C527.235 600.079 542.274 599.108 557.2 597.141L564.741 561.618C558.893 561.85 553.305 562.097 548.442 562.097C535.299 562.097 530.229 561.372 532.854 548.954L542.854 501.981H575.645L583.679 464.013H550.86L560.11 421.181H499.324L490.076 464.013H461.82L453.758 501.967ZM601.521 597.141H672.348L712.994 527.531L723.926 597.141H794.836L868.313 463.999H803.334L762.687 542.655H762.209L752.222 464.041H700.616L655.078 542.655H654.6L649.49 464.041H584.525L601.521 597.141ZM919.424 530.441C924.044 509.511 936.94 498.075 961.287 498.075C985.88 498.075 993.654 509.511 989.037 530.441C984.652 551.864 972.055 563.054 947.462 563.054C923.183 563.054 915.093 551.864 919.48 530.441H919.424ZM855.662 530.441C845.197 579.627 870.226 602.485 938.893 602.485C1007.56 602.485 1042.34 579.613 1052.8 530.441C1063.27 481.529 1038.24 458.643 969.567 458.643C900.9 458.643 866.127 481.529 855.662 530.441ZM1054.73 597.198H1115.51L1126.24 547.301C1132.3 518.609 1156.91 511.518 1178.57 511.518C1189.26 511.518 1197.79 513.717 1208.01 516.369L1219.46 461.853C1212.93 460.882 1206.33 460.395 1199.73 460.392C1178.81 460.392 1157.14 468.89 1136.95 489.602H1136.46L1141.92 463.999H1083.09L1054.86 597.141L1054.73 597.198ZM1202.29 597.198H1263.07L1269.41 567.985L1291.54 552.41L1313.7 597.198H1395.97L1347.11 513.649L1418.16 463.999H1337.41L1282.42 507.133L1301.39 417.3H1240.54L1202.29 597.183V597.198Z" fill="#1A1A1A"/>
<path fill-rule="evenodd" clip-rule="evenodd" d="M314.316 228.413C294 270.986 263.765 289.321 219.716 289.321C168.686 289.321 139.461 261.081 154.832 189.283C170.203 117.486 212.284 89.2175 269.298 89.2175C323.293 89.2175 332.147 125.875 330.698 151.137H475.03C470.662 163.605 467.118 176.348 464.429 189.283C462.28 199.006 460.633 208.834 459.498 218.726L501.237 228.413H314.316ZM947.461 12.3511H1265.31C1385.19 12.3511 1438.69 58.941 1411.05 189.187C1384.79 313.518 1310.49 366.025 1193.12 366.025H918.113L974.022 103.55L1107.63 132.474L1076.63 276.875H1156.85C1220.76 276.875 1253.44 245.191 1265.31 189.215C1277.18 133.239 1258.4 101.555 1194.49 101.555H950.425C955.535 124.959 955.37 153.76 947.694 189.215C908.576 372.473 750.568 378.415 665.899 378.415C593.297 378.415 468.282 374.03 458.731 257.392C441.885 290.688 420.477 318.124 389.053 338.261C349.525 364.015 292.962 378.404 207.775 378.404C123.066 378.404 -32.9345 372.445 6.18176 189.187C45.2981 5.92961 203.362 0 288.07 0C365.634 0 479.553 9.23598 488.312 120.027C547.853 4.34474 673.743 0 746.017 0C800.366 0 883.833 2.47295 926.571 52.3693L947.461 12.3511ZM612.888 189.215C621.454 149.197 638.3 122.718 661.404 107.102L578.566 89.1493H745.499V90.2558C790.49 96.0624 812.72 125.478 799.124 189.215C783.767 261.012 741.646 289.253 684.712 289.253C627.781 289.253 597.518 261.012 612.888 189.215Z" fill="#F99A1A"/>
<path fill-rule="evenodd" clip-rule="evenodd" d="M0.0478516 597.141H65.7654L86.3962 499.782H86.8879L139.216 597.141H214.471L251.469 423.338H185.751L165.257 519.73H164.588L115.402 423.338H37.0464L0.0478516 597.141ZM312.582 514.128C319.412 497.378 333.076 490.777 354.227 490.777C375.143 490.777 387.086 499.782 385.13 514.128H312.582ZM371.973 557.219C363.693 565.499 353.763 568.888 337.9 568.888C311.189 568.888 304.07 554.324 306.269 544.801H440.165C455.193 478.359 416.064 458.617 357.163 458.617C297.279 458.617 256.647 484.425 246.919 530.413C236.686 579.092 268.083 602.457 332.094 602.457C360.087 602.457 382.002 598.072 399.272 590.325C416.542 582.577 429.221 571.087 436.805 557.219H371.973ZM453.758 501.967H481.986L470.303 556.727C462.762 592.988 475.169 600.051 512.181 600.051C527.235 600.079 542.274 599.108 557.2 597.141L564.741 561.618C558.893 561.85 553.305 562.097 548.442 562.097C535.299 562.097 530.229 561.372 532.854 548.954L542.854 501.981H575.645L583.679 464.013H550.86L560.11 421.181H499.324L490.076 464.013H461.82L453.758 501.967ZM601.521 597.141H672.348L712.994 527.531L723.926 597.141H794.836L868.313 463.999H803.334L762.687 542.655H762.209L752.222 464.041H700.616L655.078 542.655H654.6L649.49 464.041H584.525L601.521 597.141ZM919.424 530.441C924.044 509.511 936.94 498.075 961.287 498.075C985.88 498.075 993.654 509.511 989.037 530.441C984.652 551.864 972.055 563.054 947.462 563.054C923.183 563.054 915.093 551.864 919.48 530.441H919.424ZM855.662 530.441C845.197 579.627 870.226 602.485 938.893 602.485C1007.56 602.485 1042.34 579.613 1052.8 530.441C1063.27 481.529 1038.24 458.643 969.567 458.643C900.9 458.643 866.127 481.529 855.662 530.441ZM1054.73 597.198H1115.51L1126.24 547.301C1132.3 518.609 1156.91 511.518 1178.57 511.518C1189.26 511.518 1197.79 513.717 1208.01 516.369L1219.46 461.853C1212.93 460.882 1206.33 460.395 1199.73 460.392C1178.81 460.392 1157.14 468.89 1136.95 489.602H1136.46L1141.92 463.999H1083.09L1054.86 597.141L1054.73 597.198ZM1202.29 597.198H1263.07L1269.41 567.985L1291.54 552.41L1313.7 597.198H1395.97L1347.11 513.649L1418.16 463.999H1337.41L1282.42 507.133L1301.39 417.3H1240.54L1202.29 597.183V597.198Z" fill="#1A1A1A"/>
<defs>
<linearGradient id="paint0_linear_53_27" x1="1334.77" y1="413.077" x2="0.853282" y2="-61.0724" gradientUnits="userSpaceOnUse">
<stop stop-color="#FF7B00"/>
<stop offset="1" stop-color="#FFC685"/>
</linearGradient>
</defs>
</svg>
