<svg width="1419" height="878" viewBox="0 0 1419 878" fill="none" xmlns="http://www.w3.org/2000/svg">
<path d="M206.556 877.405H161.388L237.873 723.982H295.085L320.379 877.405H275.211L260.155 766.233H258.951L206.556 877.405ZM208.363 816.875H293.278L287.858 848.039H202.943L208.363 816.875Z" fill="#C4C4C4"/>
<path d="M335.228 877.405L360.823 723.982H469.226L463.505 757.543H396.958L392.742 783.913H452.665L446.943 817.474H387.021L377.084 877.405H335.228Z" fill="#C4C4C4"/>
<path d="M459.026 877.405L484.621 723.982H593.024L587.303 757.543H520.755L516.54 783.913H576.462L570.741 817.474H510.818L500.881 877.405H459.026Z" fill="#C4C4C4"/>
<path d="M650.274 723.982L624.679 877.405H582.824L608.419 723.982H650.274Z" fill="#C4C4C4"/>
<path d="M644.515 877.405L670.111 723.982H711.966L692.092 843.844H754.424L748.703 877.405H644.515Z" fill="#C4C4C4"/>
<path d="M833.073 723.982L807.478 877.405H765.622L791.217 723.982H833.073Z" fill="#C4C4C4"/>
<path d="M867.363 877.405H822.195L898.679 723.982H955.892L981.186 877.405H936.018L920.962 766.233H919.757L867.363 877.405ZM869.169 816.875H954.085L948.665 848.039H863.749L869.169 816.875Z" fill="#C4C4C4"/>
<path d="M992.233 757.543L997.954 723.982H1131.95L1126.23 757.543H1079.86L1059.98 877.405H1018.73L1038.61 757.543H992.233Z" fill="#C4C4C4"/>
<path d="M1122.11 877.405L1147.7 723.982H1258.82L1253.1 757.543H1183.84L1179.62 783.913H1243.16L1237.44 817.474H1173.9L1169.69 843.844H1238.64L1232.92 877.405H1122.11Z" fill="#C4C4C4"/>
<path fill-rule="evenodd" clip-rule="evenodd" d="M315.062 228.597C294.746 271.17 264.51 289.505 220.462 289.505C169.432 289.505 140.207 261.264 155.578 189.467C170.948 117.669 213.029 89.4013 270.044 89.4013C324.038 89.4013 332.893 126.058 331.443 151.321H475.776C471.408 163.789 467.864 176.532 465.175 189.467C463.026 199.19 461.379 209.017 460.243 218.91L501.982 228.597H315.062ZM948.207 12.5349H1266.06C1385.93 12.5349 1439.43 59.1249 1411.8 189.371C1385.53 313.702 1311.24 366.209 1193.86 366.209H918.858L974.768 103.733L1108.37 132.657L1077.37 277.059H1157.6C1221.5 277.059 1254.18 245.375 1266.06 189.399C1277.93 133.423 1259.14 101.739 1195.24 101.739H951.171C956.28 125.143 956.116 153.944 948.439 189.399C909.322 372.657 751.314 378.599 666.645 378.599C594.043 378.599 469.027 374.214 459.476 257.575C442.631 290.872 421.222 318.308 389.798 338.445C350.27 364.199 293.707 378.587 208.521 378.587C123.812 378.587 -32.1889 372.629 6.92737 189.371C46.0437 6.11344 204.107 0.183838 288.816 0.183838C366.38 0.183838 480.299 9.41982 489.057 120.211C548.598 4.52858 674.489 0.183838 746.762 0.183838C801.112 0.183838 884.578 2.65679 927.316 52.5531L948.207 12.5349ZM613.634 189.399C622.2 149.381 639.045 122.902 662.15 107.286L579.312 89.3331H746.244V90.4396C791.236 96.2463 813.465 125.662 799.869 189.399C784.513 261.196 742.392 289.437 685.458 289.437C628.526 289.437 598.263 261.196 613.634 189.399Z" fill="url(#paint0_linear_6_67)"/>
<path fill-rule="evenodd" clip-rule="evenodd" d="M0.793457 597.325H66.511L87.1418 499.965H87.6335L139.962 597.325H215.216L252.215 423.522H186.497L166.003 519.913H165.333L116.148 423.522H37.792L0.793457 597.325ZM313.327 514.311C320.158 497.562 333.822 490.961 354.973 490.961C375.889 490.961 387.832 499.965 385.876 514.311H313.327ZM372.719 557.403C364.439 565.683 354.509 569.071 338.645 569.071C311.935 569.071 304.815 554.507 307.015 544.985H440.91C455.939 478.543 416.81 458.801 357.908 458.801C298.025 458.801 257.393 484.609 247.665 530.596C237.432 579.276 268.828 602.641 332.84 602.641C360.832 602.641 382.748 598.256 400.018 590.508C417.288 582.761 429.967 571.271 437.55 557.403H372.719ZM454.503 502.151H482.731L471.049 556.911C463.508 593.172 475.915 600.235 512.926 600.235C527.98 600.263 543.02 599.292 557.946 597.325L565.487 561.802C559.639 562.034 554.051 562.281 549.188 562.281C536.045 562.281 530.975 561.556 533.599 549.138L543.6 502.165H576.391L584.425 464.197H551.605L560.856 421.365H500.069L490.821 464.197H462.565L454.503 502.151ZM602.267 597.325H673.094L713.74 527.715L724.672 597.325H795.581L869.058 464.182H804.079L763.433 542.839H762.955L752.968 464.225H701.361L655.824 542.839H655.345L650.236 464.225H585.271L602.267 597.325ZM920.169 530.625C924.789 509.695 937.686 498.258 962.033 498.258C986.626 498.258 994.399 509.695 989.782 530.625C985.397 552.048 972.801 563.237 948.208 563.237C923.929 563.237 915.838 552.048 920.226 530.625H920.169ZM856.408 530.625C845.943 579.811 870.972 602.669 939.639 602.669C1008.31 602.669 1043.08 579.797 1053.55 530.625C1064.01 481.713 1038.98 458.827 970.313 458.827C901.645 458.827 866.873 481.713 856.408 530.625ZM1055.47 597.381H1116.26L1126.98 547.484C1133.05 518.792 1157.65 511.701 1179.31 511.701C1190.01 511.701 1198.54 513.901 1208.75 516.553L1220.2 462.037C1213.67 461.066 1207.08 460.579 1200.47 460.576C1179.56 460.576 1157.89 469.074 1137.7 489.786H1137.2L1142.67 464.182H1083.84L1055.61 597.325L1055.47 597.381ZM1203.03 597.381H1263.81L1270.16 568.168L1292.29 552.594L1314.45 597.381H1396.71L1347.86 513.833L1418.9 464.182H1338.15L1283.16 507.317L1302.14 417.484H1241.29L1203.03 597.367V597.381Z" fill="#1A1A1A"/>
<path fill-rule="evenodd" clip-rule="evenodd" d="M315.062 228.597C294.746 271.17 264.51 289.505 220.462 289.505C169.432 289.505 140.207 261.264 155.578 189.467C170.948 117.669 213.029 89.4013 270.044 89.4013C324.038 89.4013 332.893 126.058 331.443 151.321H475.776C471.408 163.789 467.864 176.532 465.175 189.467C463.026 199.19 461.379 209.017 460.243 218.91L501.982 228.597H315.062ZM948.207 12.5349H1266.06C1385.93 12.5349 1439.43 59.1249 1411.8 189.371C1385.53 313.702 1311.24 366.209 1193.86 366.209H918.858L974.768 103.733L1108.37 132.657L1077.37 277.059H1157.6C1221.5 277.059 1254.18 245.375 1266.06 189.399C1277.93 133.423 1259.14 101.739 1195.24 101.739H951.171C956.28 125.143 956.116 153.944 948.439 189.399C909.322 372.657 751.314 378.599 666.645 378.599C594.043 378.599 469.027 374.214 459.476 257.575C442.631 290.872 421.222 318.308 389.798 338.445C350.27 364.199 293.707 378.587 208.521 378.587C123.812 378.587 -32.1889 372.629 6.92737 189.371C46.0437 6.11344 204.107 0.183838 288.816 0.183838C366.38 0.183838 480.299 9.41982 489.057 120.211C548.598 4.52858 674.489 0.183838 746.762 0.183838C801.112 0.183838 884.578 2.65679 927.316 52.5531L948.207 12.5349ZM613.634 189.399C622.2 149.381 639.045 122.902 662.15 107.286L579.312 89.3331H746.244V90.4396C791.236 96.2463 813.465 125.662 799.869 189.399C784.513 261.196 742.392 289.437 685.458 289.437C628.526 289.437 598.263 261.196 613.634 189.399Z" fill="#F99A1A"/>
<path fill-rule="evenodd" clip-rule="evenodd" d="M0.793457 597.325H66.511L87.1418 499.965H87.6335L139.962 597.325H215.216L252.215 423.522H186.497L166.003 519.913H165.333L116.148 423.522H37.792L0.793457 597.325ZM313.327 514.311C320.158 497.562 333.822 490.961 354.973 490.961C375.889 490.961 387.832 499.965 385.876 514.311H313.327ZM372.719 557.403C364.439 565.683 354.509 569.071 338.645 569.071C311.935 569.071 304.815 554.507 307.015 544.985H440.91C455.939 478.543 416.81 458.801 357.908 458.801C298.025 458.801 257.393 484.609 247.665 530.596C237.432 579.276 268.828 602.641 332.84 602.641C360.832 602.641 382.748 598.256 400.018 590.508C417.288 582.761 429.967 571.271 437.55 557.403H372.719ZM454.503 502.151H482.731L471.049 556.911C463.508 593.172 475.915 600.235 512.926 600.235C527.98 600.263 543.02 599.292 557.946 597.325L565.487 561.802C559.639 562.034 554.051 562.281 549.188 562.281C536.045 562.281 530.975 561.556 533.599 549.138L543.6 502.165H576.391L584.425 464.197H551.605L560.856 421.365H500.069L490.821 464.197H462.565L454.503 502.151ZM602.267 597.325H673.094L713.74 527.715L724.672 597.325H795.581L869.058 464.182H804.079L763.433 542.839H762.955L752.968 464.225H701.361L655.824 542.839H655.345L650.236 464.225H585.271L602.267 597.325ZM920.169 530.625C924.789 509.695 937.686 498.258 962.033 498.258C986.626 498.258 994.399 509.695 989.782 530.625C985.397 552.048 972.801 563.237 948.208 563.237C923.929 563.237 915.838 552.048 920.226 530.625H920.169ZM856.408 530.625C845.943 579.811 870.972 602.669 939.639 602.669C1008.31 602.669 1043.08 579.797 1053.55 530.625C1064.01 481.713 1038.98 458.827 970.313 458.827C901.645 458.827 866.873 481.713 856.408 530.625ZM1055.47 597.381H1116.26L1126.98 547.484C1133.05 518.792 1157.65 511.701 1179.31 511.701C1190.01 511.701 1198.54 513.901 1208.75 516.553L1220.2 462.037C1213.67 461.066 1207.08 460.579 1200.47 460.576C1179.56 460.576 1157.89 469.074 1137.7 489.786H1137.2L1142.67 464.182H1083.84L1055.61 597.325L1055.47 597.381ZM1203.03 597.381H1263.81L1270.16 568.168L1292.29 552.594L1314.45 597.381H1396.71L1347.86 513.833L1418.9 464.182H1338.15L1283.16 507.317L1302.14 417.484H1241.29L1203.03 597.367V597.381Z" fill="#1A1A1A"/>
<defs>
<linearGradient id="paint0_linear_6_67" x1="1335.52" y1="413.261" x2="1.59889" y2="-60.8885" gradientUnits="userSpaceOnUse">
<stop stop-color="#FF7B00"/>
<stop offset="1" stop-color="#FFC685"/>
</linearGradient>
</defs>
</svg>
