<svg id="Composant_13_1" data-name="Composant 13 – 1" xmlns="http://www.w3.org/2000/svg" width="91.132" height="46.992" viewBox="0 0 91.132 46.992">
  <g id="Groupe_17" data-name="Groupe 17">
    <path id="Tracé_92" data-name="Tracé 92" d="M1450.861,3001.751c1.819,1.16,2.938,2.651,2.713,4.857-.3,2.96-1.811,4.446-5.3,4.642-3.512.2-7.044.031-10.566.091-1.046.018-1.231-.446-1.227-1.348.026-5.472.046-10.944-.013-16.416-.013-1.205.377-1.549,1.539-1.5,3.512.139,7.032-.167,10.541.287,2.02.261,3.854.708,4.585,2.927a4.829,4.829,0,0,1-1.6,5.828C1451.316,3001.287,1451.127,3001.5,1450.861,3001.751Zm-6.592-1.712c.824,0,1.652.045,2.473-.01,1.436-.1,2.426-.654,2.352-2.34-.069-1.589-1.082-2.018-2.4-2.052-1.648-.042-3.3-.023-4.946,0-.472.006-.973-.167-1.2.617-.732,2.569.136,3.792,2.82,3.792C1443.67,3000.045,1443.969,3000.045,1444.269,3000.039Zm.048,7.831v-.007c.824,0,1.648.021,2.471-.005,1.341-.043,2.293-.475,2.353-2.073a2.056,2.056,0,0,0-2.12-2.355c-1.787-.143-3.591-.079-5.387-.094-.449,0-.829.025-1.045.588-.883,2.3.18,3.946,2.605,3.948Z" transform="translate(-1401.954 -2964.524)" fill="#353c42"/>
    <path id="Tracé_93" data-name="Tracé 93" d="M2025.8,3011.381a34.743,34.743,0,0,0-4.366.034c-1.995.27-2.4-.584-2.259-2.366.087-1.063.518-1.206,1.392-1.2,2.845.036,5.692.065,8.536.008,1.439-.029,3.238.261,3.293-2.017.057-2.395-1.8-2.167-3.333-2.256-2.165-.127-4.351-.034-6.5-.285-2.505-.293-3.7-1.725-4.036-4.337-.359-2.826.552-5.184,2.562-5.906a15.292,15.292,0,0,1,4.357-.812c2.764-.14,5.539-.044,8.308-.111,1.256-.03,2.053.017,2.064,1.728.012,1.8-.814,1.859-2.17,1.82-2.619-.076-5.241-.025-7.862-.023-1.652,0-3.053.375-3.032,2.419s1.509,2.07,3,2.1c2.315.053,4.644-.265,6.944.2,2.781.557,3.9,2.008,3.972,5.089s-1.17,4.836-3.826,5.528C2030.407,3011.635,2027.928,3011.267,2025.8,3011.381Z" transform="translate(-1945.543 -2964.583)" fill="#353c42"/>
    <path id="Tracé_94" data-name="Tracé 94" d="M1366.245,2666.858c-3.22.993-5.235,0-6.262-3a13.55,13.55,0,0,0-1.2-2.148,4.482,4.482,0,0,0-5.229-2.008c-.793.287-.668.891-.673,1.468a36.841,36.841,0,0,0,.026,4.264c.187,1.74-.8,1.744-2.031,1.706-1.148-.036-2.15.178-2.1-1.657.131-5.238.076-10.48.024-15.72-.012-1.209.256-1.752,1.6-1.712,3.291.1,6.588.008,9.88.093a4.9,4.9,0,0,1,5.026,3.667c.77,2.925-.032,5.655-2.382,6.849-1.288.654-.93,1.131-.424,1.955C1363.743,2662.639,1364.949,2664.691,1366.245,2666.858Zm-9.7-10.61v-.012a22.79,22.79,0,0,0,2.451-.017c1.243-.135,2.3-.488,2.38-2.088.081-1.569-.56-2.43-2.093-2.531-1.775-.117-3.557-.143-5.337-.191a.914.914,0,0,0-1.043.6c-.951,2.4.221,4.241,2.749,4.243Z" transform="translate(-1320.042 -2643.192)" fill="#339f6b"/>
    <path id="Tracé_95" data-name="Tracé 95" d="M913.26,2657.461c0-2.549.059-5.1-.025-7.645-.044-1.325.312-1.882,1.745-1.825,2.919.115,5.848-.02,8.765.117a6.971,6.971,0,0,1,6.755,5.273,14.75,14.75,0,0,1,.145,8.2,7.046,7.046,0,0,1-6.852,5.436c-3,.088-6,0-8.993.07-1.16.028-1.59-.346-1.561-1.533C913.306,2662.858,913.26,2660.159,913.26,2657.461Zm4.03-.174q0,2.584,0,5.169c0,.705.016,1.382,1.025,1.356a48.33,48.33,0,0,0,5.157-.121c2.2-.3,3.131-2.065,3.153-5.431.03-4.7-.685-6.441-3.119-6.811-1.971-.3-4.295-.841-5.885.216-1.05.7-.214,2.948-.33,4.5C917.264,2656.536,917.288,2656.912,917.29,2657.287Z" transform="translate(-913.232 -2643.139)" fill="#339f6b"/>
    <path id="Tracé_96" data-name="Tracé 96" d="M1126.257,3010.6a9.3,9.3,0,0,0-1.557.012c-2.213.442-3.546-.387-3.936-2.64-.28-1.612-1.231-2.187-2.829-1.963a8.422,8.422,0,0,1-2.466,0c-2.74-.438-4.375.41-5.09,3.329-.622,2.539-2.895.7-4.708,1.456,2.464-5.868,4.943-11.275,6.979-16.844.918-2.51,2.407-2.8,4.565-2.6a1.262,1.262,0,0,1,1.2.8C1121.008,2998.232,1123.59,3004.321,1126.257,3010.6Zm-10.463-15.324-2.688,7.146h5.531Z" transform="translate(-1092.978 -2963.804)" fill="#353c42"/>
    <path id="Tracé_97" data-name="Tracé 97" d="M1728.308,3010.548a24.857,24.857,0,0,0-2.695.017c-1.318.158-2.169-.237-2.4-1.63-.426-2.542-1.94-3.461-4.419-2.968a3.117,3.117,0,0,1-1.121,0c-2.794-.489-4.669.263-5.258,3.372-.256,1.349-.506,1.3-4.207,1.131-.331-.514,0-.95.2-1.4,2.294-5.426,4.6-10.846,6.866-16.283.367-.88.691-1.719,1.857-1.455,1.13.256,2.64-.786,3.36.887C1723.067,2998.23,1725.625,3004.255,1728.308,3010.548ZM1717.84,2995.2l-2.709,7.172h5.552Z" transform="translate(-1655.635 -2963.749)" fill="#353c42"/>
    <path id="Tracé_98" data-name="Tracé 98" d="M1750.659,2617.644a3.13,3.13,0,0,0,1.974.045,22.087,22.087,0,0,0,12.1-9.459l-.029.05c.71-.582.839-1.066-.227-1.35l.063.032c-.344-.236-.169-.879-.738-.938l.029.045c-.03-.324.4-.643.01-.97l-.026.023c.605.406.753-.071.935-.484l-.048.031c2.348-1.3,4.011-3.489,6.525-5.117v9.564c-1.6-.938-2.527-.094-3.444,1.3-1.89,2.88-4.615,5-7.082,7.353l.032-.053c-.419.061-.511.347-.491.711l-5.846,2.889c-.646-.59-1.269.015-1.834.132-6.092,1.258-9.948-1.8-9.937-7.97,0-.741.063-1.482.123-2.82.935,3.446,1.135,6.861,5.317,6.988C1748.932,2618.046,1749.795,2617.566,1750.659,2617.644Z" transform="translate(-1687.916 -2597.899)" fill="#339f6b"/>
    <path id="Tracé_99" data-name="Tracé 99" d="M1912.034,2680.13l5.847-2.889c.292-.149.764-.173.491-.711l-.032.053q2.647.051,5.294.1a2.544,2.544,0,0,0,2.4-1.36c.411-.709.875-1.39,1.243-2.12,1.314-2.606,3.828-4.789,2.361-8.312-.678-1.627.238-2.649,2.178-2.315a11.058,11.058,0,0,0,1.567.015c2.717.072,3.718,1.439,2.56,3.945s-2.914,4.713-3.943,7.243c-2.368,5.826-6.473,8.16-12.672,7.336a59.627,59.627,0,0,0-7.168-.069c-.273,0-.815.24-.758-.36C1911.42,2680.483,1911.812,2680.315,1912.034,2680.13Z" transform="translate(-1845.552 -2656.707)" fill="#353c42"/>
    <path id="Tracé_100" data-name="Tracé 100" d="M1625.115,2594.231c-.865-.078-1.727.4-2.593.008-2.538-4.383-5.12-8.741-7.588-13.162a3.657,3.657,0,0,0-3.723-2.254c-1.569.113-3.035-.295-2.994-2.16.04-1.8,1.472-2.127,3.055-2.172a7.3,7.3,0,0,1,7.179,3.991c2.8,5,5.728,9.932,8.587,14.864C1626.625,2594.316,1625.523,2593.478,1625.115,2594.231Z" transform="translate(-1562.371 -2574.486)" fill="#353c42"/>
    <path id="Tracé_101" data-name="Tracé 101" d="M927.154,3007.944c-.312,2.292-1.144,3.577-3.624,3.213-1.46-.214-2.973-.073-4.45-.384a5.585,5.585,0,0,1-4.546-4.863c-.468-4.247-.1-8.515-.234-12.771-.053-1.677,1.128-1.238,2-1.238s2.029-.46,1.978,1.236c-.08,2.689-.022,5.382-.021,8.073,0,6.337.474,6.81,6.689,6.734C925.67,3007.936,926.392,3007.944,927.154,3007.944Z" transform="translate(-914.217 -2964.314)" fill="#353c42"/>
    <path id="Tracé_102" data-name="Tracé 102" d="M1225.168,2656.722c0-2.691.095-5.387-.034-8.072-.084-1.757,1.026-1.523,2.022-1.439.944.08,2.374-.671,2.353,1.349-.057,5.457-.032,10.914-.014,16.371.007,2.191-1.635,1.133-2.6,1.32-1.072.209-1.825.009-1.763-1.458C1225.25,2662.107,1225.168,2659.413,1225.168,2656.722Z" transform="translate(-1204.556 -2642.346)" fill="#339f6b"/>
    <path id="Tracé_103" data-name="Tracé 103" d="M1912.15,2666.7l-.064-.033a1,1,0,0,0,.227,1.35l.029-.049q-4.35-.023-8.7-.047c-1.533-.007-3-.279-2.982-2.186.022-1.84,1.414-2.229,2.985-2.219,2.463.015,4.927,0,7.39,0,.628,0,1.385-.177,1.276.887l.049-.031c-.575-.347-.7.176-.935.484l.026-.023c-.407.22-1,.365-.772.989.135.361.515.418.762-.019l-.029-.045a.944.944,0,0,0,.415,1.276C1912.075,2667.225,1912.079,2666.862,1912.15,2666.7Z" transform="translate(-1835.524 -2657.641)" fill="#353c42"/>
  </g>
  <g id="Groupe_21" data-name="Groupe 21" opacity="0" style="mix-blend-mode: saturation;isolation: isolate">
    <path id="Tracé_92-2" data-name="Tracé 92" d="M1450.861,3001.751c1.819,1.16,2.938,2.651,2.713,4.857-.3,2.96-1.811,4.446-5.3,4.642-3.512.2-7.044.031-10.566.091-1.046.018-1.231-.446-1.227-1.348.026-5.472.046-10.944-.013-16.416-.013-1.205.377-1.549,1.539-1.5,3.512.139,7.032-.167,10.541.287,2.02.261,3.854.708,4.585,2.927a4.829,4.829,0,0,1-1.6,5.828C1451.316,3001.287,1451.127,3001.5,1450.861,3001.751Zm-6.592-1.712c.824,0,1.652.045,2.473-.01,1.436-.1,2.426-.654,2.352-2.34-.069-1.589-1.082-2.018-2.4-2.052-1.648-.042-3.3-.023-4.946,0-.472.006-.973-.167-1.2.617-.732,2.569.136,3.792,2.82,3.792C1443.67,3000.045,1443.969,3000.045,1444.269,3000.039Zm.048,7.831v-.007c.824,0,1.648.021,2.471-.005,1.341-.043,2.293-.475,2.353-2.073a2.056,2.056,0,0,0-2.12-2.355c-1.787-.143-3.591-.079-5.387-.094-.449,0-.829.025-1.045.588-.883,2.3.18,3.946,2.605,3.948Z" transform="translate(-1401.954 -2964.524)" fill="#353c42"/>
    <path id="Tracé_93-2" data-name="Tracé 93" d="M2025.8,3011.381a34.743,34.743,0,0,0-4.366.034c-1.995.27-2.4-.584-2.259-2.366.087-1.063.518-1.206,1.392-1.2,2.845.036,5.692.065,8.536.008,1.439-.029,3.238.261,3.293-2.017.057-2.395-1.8-2.167-3.333-2.256-2.165-.127-4.351-.034-6.5-.285-2.505-.293-3.7-1.725-4.036-4.337-.359-2.826.552-5.184,2.562-5.906a15.292,15.292,0,0,1,4.357-.812c2.764-.14,5.539-.044,8.308-.111,1.256-.03,2.053.017,2.064,1.728.012,1.8-.814,1.859-2.17,1.82-2.619-.076-5.241-.025-7.862-.023-1.652,0-3.053.375-3.032,2.419s1.509,2.07,3,2.1c2.315.053,4.644-.265,6.944.2,2.781.557,3.9,2.008,3.972,5.089s-1.17,4.836-3.826,5.528C2030.407,3011.635,2027.928,3011.267,2025.8,3011.381Z" transform="translate(-1945.543 -2964.583)" fill="#353c42"/>
    <path id="Tracé_94-2" data-name="Tracé 94" d="M1366.245,2666.858c-3.22.993-5.235,0-6.262-3a13.55,13.55,0,0,0-1.2-2.148,4.482,4.482,0,0,0-5.229-2.008c-.793.287-.668.891-.673,1.468a36.841,36.841,0,0,0,.026,4.264c.187,1.74-.8,1.744-2.031,1.706-1.148-.036-2.15.178-2.1-1.657.131-5.238.076-10.48.024-15.72-.012-1.209.256-1.752,1.6-1.712,3.291.1,6.588.008,9.88.093a4.9,4.9,0,0,1,5.026,3.667c.77,2.925-.032,5.655-2.382,6.849-1.288.654-.93,1.131-.424,1.955C1363.743,2662.639,1364.949,2664.691,1366.245,2666.858Zm-9.7-10.61v-.012a22.79,22.79,0,0,0,2.451-.017c1.243-.135,2.3-.488,2.38-2.088.081-1.569-.56-2.43-2.093-2.531-1.775-.117-3.557-.143-5.337-.191a.914.914,0,0,0-1.043.6c-.951,2.4.221,4.241,2.749,4.243Z" transform="translate(-1320.042 -2643.192)"/>
    <path id="Tracé_95-2" data-name="Tracé 95" d="M913.26,2657.461c0-2.549.059-5.1-.025-7.645-.044-1.325.312-1.882,1.745-1.825,2.919.115,5.848-.02,8.765.117a6.971,6.971,0,0,1,6.755,5.273,14.75,14.75,0,0,1,.145,8.2,7.046,7.046,0,0,1-6.852,5.436c-3,.088-6,0-8.993.07-1.16.028-1.59-.346-1.561-1.533C913.306,2662.858,913.26,2660.159,913.26,2657.461Zm4.03-.174q0,2.584,0,5.169c0,.705.016,1.382,1.025,1.356a48.33,48.33,0,0,0,5.157-.121c2.2-.3,3.131-2.065,3.153-5.431.03-4.7-.685-6.441-3.119-6.811-1.971-.3-4.295-.841-5.885.216-1.05.7-.214,2.948-.33,4.5C917.264,2656.536,917.288,2656.912,917.29,2657.287Z" transform="translate(-913.232 -2643.139)"/>
    <path id="Tracé_96-2" data-name="Tracé 96" d="M1126.257,3010.6a9.3,9.3,0,0,0-1.557.012c-2.213.442-3.546-.387-3.936-2.64-.28-1.612-1.231-2.187-2.829-1.963a8.422,8.422,0,0,1-2.466,0c-2.74-.438-4.375.41-5.09,3.329-.622,2.539-2.895.7-4.708,1.456,2.464-5.868,4.943-11.275,6.979-16.844.918-2.51,2.407-2.8,4.565-2.6a1.262,1.262,0,0,1,1.2.8C1121.008,2998.232,1123.59,3004.321,1126.257,3010.6Zm-10.463-15.324-2.688,7.146h5.531Z" transform="translate(-1092.978 -2963.804)" fill="#353c42"/>
    <path id="Tracé_97-2" data-name="Tracé 97" d="M1728.308,3010.548a24.857,24.857,0,0,0-2.695.017c-1.318.158-2.169-.237-2.4-1.63-.426-2.542-1.94-3.461-4.419-2.968a3.117,3.117,0,0,1-1.121,0c-2.794-.489-4.669.263-5.258,3.372-.256,1.349-.506,1.3-4.207,1.131-.331-.514,0-.95.2-1.4,2.294-5.426,4.6-10.846,6.866-16.283.367-.88.691-1.719,1.857-1.455,1.13.256,2.64-.786,3.36.887C1723.067,2998.23,1725.625,3004.255,1728.308,3010.548ZM1717.84,2995.2l-2.709,7.172h5.552Z" transform="translate(-1655.635 -2963.749)" fill="#353c42"/>
    <path id="Tracé_98-2" data-name="Tracé 98" d="M1750.659,2617.644a3.13,3.13,0,0,0,1.974.045,22.087,22.087,0,0,0,12.1-9.459l-.029.05c.71-.582.839-1.066-.227-1.35l.063.032c-.344-.236-.169-.879-.738-.938l.029.045c-.03-.324.4-.643.01-.97l-.026.023c.605.406.753-.071.935-.484l-.048.031c2.348-1.3,4.011-3.489,6.525-5.117v9.564c-1.6-.938-2.527-.094-3.444,1.3-1.89,2.88-4.615,5-7.082,7.353l.032-.053c-.419.061-.511.347-.491.711l-5.846,2.889c-.646-.59-1.269.015-1.834.132-6.092,1.258-9.948-1.8-9.937-7.97,0-.741.063-1.482.123-2.82.935,3.446,1.135,6.861,5.317,6.988C1748.932,2618.046,1749.795,2617.566,1750.659,2617.644Z" transform="translate(-1687.916 -2597.899)"/>
    <path id="Tracé_99-2" data-name="Tracé 99" d="M1912.034,2680.13l5.847-2.889c.292-.149.764-.173.491-.711l-.032.053q2.647.051,5.294.1a2.544,2.544,0,0,0,2.4-1.36c.411-.709.875-1.39,1.243-2.12,1.314-2.606,3.828-4.789,2.361-8.312-.678-1.627.238-2.649,2.178-2.315a11.058,11.058,0,0,0,1.567.015c2.717.072,3.718,1.439,2.56,3.945s-2.914,4.713-3.943,7.243c-2.368,5.826-6.473,8.16-12.672,7.336a59.627,59.627,0,0,0-7.168-.069c-.273,0-.815.24-.758-.36C1911.42,2680.483,1911.812,2680.315,1912.034,2680.13Z" transform="translate(-1845.552 -2656.707)" fill="#353c42"/>
    <path id="Tracé_100-2" data-name="Tracé 100" d="M1625.115,2594.231c-.865-.078-1.727.4-2.593.008-2.538-4.383-5.12-8.741-7.588-13.162a3.657,3.657,0,0,0-3.723-2.254c-1.569.113-3.035-.295-2.994-2.16.04-1.8,1.472-2.127,3.055-2.172a7.3,7.3,0,0,1,7.179,3.991c2.8,5,5.728,9.932,8.587,14.864C1626.625,2594.316,1625.523,2593.478,1625.115,2594.231Z" transform="translate(-1562.371 -2574.486)" fill="#353c42"/>
    <path id="Tracé_101-2" data-name="Tracé 101" d="M927.154,3007.944c-.312,2.292-1.144,3.577-3.624,3.213-1.46-.214-2.973-.073-4.45-.384a5.585,5.585,0,0,1-4.546-4.863c-.468-4.247-.1-8.515-.234-12.771-.053-1.677,1.128-1.238,2-1.238s2.029-.46,1.978,1.236c-.08,2.689-.022,5.382-.021,8.073,0,6.337.474,6.81,6.689,6.734C925.67,3007.936,926.392,3007.944,927.154,3007.944Z" transform="translate(-914.217 -2964.314)" fill="#353c42"/>
    <path id="Tracé_102-2" data-name="Tracé 102" d="M1225.168,2656.722c0-2.691.095-5.387-.034-8.072-.084-1.757,1.026-1.523,2.022-1.439.944.08,2.374-.671,2.353,1.349-.057,5.457-.032,10.914-.014,16.371.007,2.191-1.635,1.133-2.6,1.32-1.072.209-1.825.009-1.763-1.458C1225.25,2662.107,1225.168,2659.413,1225.168,2656.722Z" transform="translate(-1204.556 -2642.346)"/>
    <path id="Tracé_103-2" data-name="Tracé 103" d="M1912.15,2666.7l-.064-.033a1,1,0,0,0,.227,1.35l.029-.049q-4.35-.023-8.7-.047c-1.533-.007-3-.279-2.982-2.186.022-1.84,1.414-2.229,2.985-2.219,2.463.015,4.927,0,7.39,0,.628,0,1.385-.177,1.276.887l.049-.031c-.575-.347-.7.176-.935.484l.026-.023c-.407.22-1,.365-.772.989.135.361.515.418.762-.019l-.029-.045a.944.944,0,0,0,.415,1.276C1912.075,2667.225,1912.079,2666.862,1912.15,2666.7Z" transform="translate(-1835.524 -2657.641)" fill="#353c42"/>
  </g>
</svg>
