<svg xmlns="http://www.w3.org/2000/svg" width="172" height="28" viewBox="0 0 172 28">
    <g fill="none">
        <path fill="#FFF" d="M171.5 25.66c0 1.055-.857 1.913-1.914 1.913H1.914C.858 27.573 0 26.715 0 25.659V1.913C0 .857.858 0 1.914 0h167.672c1.057 0 1.914.857 1.914 1.913V25.66z"/>
        <g>
            <path fill="#CB0000" d="M0.021 0H66.388V27.573H0.021z" transform="translate(46.648)"/>
            <path fill="#AC0000" d="M.02 14.333v13.195h66.368V11.676c-21.474.672-44.61 1.543-66.367 2.657z" transform="translate(46.648)"/>
        </g>
        <path fill="#FFF" d="M122.01 5.974h1.396c.736 0 .892-.152.892-.893V3.69c0-.74-.156-.89-.892-.89h-1.396c-.739 0-.89.15-.89.89v1.392c-.002.74.15.893.89.893z"/>
        <g>
            <path fill="#333" d="M11.353 13.83c0 2.176-1.421 3.762-4.306 4.074-2.092.225-5.118-.04-6.557-.206-.044-.233-.084-.524-.084-.76 0-1.89 1.02-2.332 1.983-2.332.998 0 2.576.178 3.742.178 1.292 0 1.683-.439 1.683-.855 0-.544-.517-.768-1.52-.962l-2.74-.525C1.278 12.003.063 10.43.063 8.76c0-2.031 1.44-3.73 4.268-4.042 2.137-.235 4.747.027 6.174.204.048.241.077.476.077.728 0 1.893-1.003 2.303-1.963 2.303-.738 0-1.887-.136-3.199-.136-1.334 0-1.886.369-1.886.816 0 .477.524.67 1.358.814l2.617.487c2.684.496 3.843 2.021 3.843 3.897m4.69 2.331c0 1.168-.455 1.838-2.731 1.838-.302 0-.563-.019-.815-.058V2.492c0-1.175.4-2.401 2.696-2.401.29 0 .583.029.853.089v15.982h-.002zm9.3 5.978c.301.154.91.338 1.682.357 1.32.029 2.04-.475 2.574-1.66l7.085-15.799c-.29-.156-.942-.33-1.468-.34-.91-.02-2.137.165-2.917 2.03l-2.295 5.413-4.499-7.326c-.291-.089-1.003-.214-1.517-.214-1.597 0-2.48.583-3.406 1.584l-4.374 4.78 3.518 5.533c.652 1.015 1.51 1.528 2.898 1.528.916 0 1.672-.213 2.022-.38l-4.237-6.383 3.002-3.185 4.93 7.733-2.998 6.329z" transform="translate(5.145 2.4)"/>
            <g fill="#000">
                <path d="M25.963.439l2.041 3.202-3.003 6.328c.302.154.91.337 1.683.356 1.32.03 2.039-.475 2.574-1.66l3.866-8.62c-2.41.128-4.8.26-7.16.394zM19.39 4.329c.651 1.014 1.509 1.527 2.898 1.527.916 0 1.672-.213 2.022-.379L21.151.72c-1.312.079-2.614.158-3.905.238l2.144 3.37zM6.704 5.733c2.885-.312 4.306-1.896 4.306-4.074 0-.1-.003-.2-.01-.3-1.194.08-2.375.16-3.547.242.01.05.018.101.018.156 0 .417-.391.856-1.683.856-1.166 0-2.744-.179-3.742-.179-.964 0-1.983.443-1.983 2.333 0 .235.04.527.084.76 1.44.166 4.465.428 6.557.206zM15.7 3.99V1.055c-1.191.076-2.374.151-3.548.228V5.77c.254.04.515.058.815.058 2.278.002 2.734-.669 2.734-1.836z" transform="translate(5.145 2.4) translate(.343 12.171)"/>
            </g>
        </g>
        <g>
            <g fill="#333">
                <path d="M13.027 18.662h-1.392c-.74 0-.892.154-.892.89v1.393c0 .739.15.893.892.893h1.392c.741 0 .894-.152.894-.893v-1.394c0-.735-.153-.89-.894-.89zM17.402 18.662h-1.39c-.742 0-.89.154-.89.89v1.393c0 .739.148.893.89.893h1.39c.738 0 .897-.152.897-.893v-1.394c-.002-.735-.161-.89-.897-.89zM23.571 18.662h-1.394c-.738 0-.892.154-.892.89v1.393c0 .739.153.893.892.893h1.394c.74 0 .89-.152.89-.893v-1.394c0-.735-.15-.89-.89-.89zM13.422 13.214c-.63 0-.834-.115-.882-.597v-5.14c0-2.617-2.507-2.506-2.507-2.506h-4.57S.556 4.637.112 10.205c-.497 6.221 5.908 6.316 5.908 6.316h12.721c1.454 0 1.447-.923 1.447-1.01 0 1.126 1.228 1.01 1.228 1.01h3.977c2.231 0 2.45-2.082 2.45-2.082V4.971c-3.398 0-3.34 2.507-3.34 2.507v5.74l-3.423-.003c-.691 0-.866-.133-.892-.744v-7.5c-2.883 0-3.286 1.689-3.334 2.294v5.952l-3.433-.003zm-4.514 2.185c0-.745-.115-.954-.302-1.345-.684-1.39-2.343-.842-3.255-.952-.518-.061-1.823-.545-1.895-2.228C3.346 8.31 5.796 8.2 5.796 8.2h3.125L8.908 15.4zM32.146 16.435c-.304 2.064-2.144 2.095-2.144 2.095-3.605.084-2.905 3.231-2.905 3.231 2.008.225 4.814 0 6.488-1.224 1.675-1.227 1.898-4.022 1.898-4.022l10.066.006h2.54c0-3.511-2.515-3.345-2.515-3.345l-1.823.003c-2.315 0-2.23-2.56-2.23-2.56 0-3.373 3.573-1.785 5.249-2.452 1.679-.669 1.34-3.233 1.34-3.233h-5.47c-3.02 0-5.068 2.703-4.805 5.684.168 1.92.668 2.561.668 2.561h-2.59c-.342-.082-.428-.306-.428-.85V4.934c-3.492 0-3.337 2.51-3.337 2.51v8.99h-.002zM3.847 3.231h1.396c.735 0 .892-.152.892-.893V.946c0-.74-.157-.89-.892-.89H3.847c-.74 0-.89.15-.89.89v1.392c-.002.74.149.893.89.893zM8.22 3.231h1.394c.738 0 .89-.152.89-.893V.946c0-.74-.152-.89-.89-.89H8.22c-.74 0-.89.15-.89.89v1.392c.002.74.153.893.89.893z" transform="translate(118.164 2.743)"/>
            </g>
            <g fill="#000">
                <path d="M13.027 11.119h-1.392c-.74 0-.892.154-.892.89v1.393c0 .74.15.893.892.893h1.392c.741 0 .894-.152.894-.893V12.01c0-.736-.153-.89-.894-.89zM17.402 11.119h-1.39c-.742 0-.89.154-.89.89v1.393c0 .74.148.893.89.893h1.39c.738 0 .897-.152.897-.893V12.01c-.002-.736-.161-.89-.897-.89zM23.571 11.119h-1.394c-.738 0-.892.154-.892.89v1.393c0 .74.153.893.892.893h1.394c.74 0 .89-.152.89-.893V12.01c0-.736-.15-.89-.89-.89zM24.502.531v5.143l-3.423-.001c-.691 0-.866-.134-.892-.744V.639l-3.334.086v4.95l-3.431-.002c-.63 0-.834-.115-.882-.597V.84L8.92.938l-.012 6.919c0-.746-.115-.955-.302-1.346-.684-1.39-2.343-.842-3.255-.952-.518-.061-1.823-.545-1.895-2.228-.053-1.252.502-1.917 1.087-2.272l-4.176.12c-.122.441-.21.933-.254 1.483-.497 6.221 5.908 6.316 5.908 6.316h12.721c1.454 0 1.447-.923 1.447-1.01 0 1.126 1.228 1.01 1.228 1.01h3.977c2.231 0 2.45-2.081 2.45-2.081V.45l-3.342.08zM46.768.624c.345-.137.604-.357.8-.615-2.937.06-6.024.126-9.246.198-.4.86-.58 1.848-.49 2.868.167 1.92.668 2.562.668 2.562h-2.591c-.342-.083-.427-.307-.427-.85V.27l-3.338.077v8.544C31.841 10.956 30 10.987 30 10.987c-3.604.084-2.905 3.231-2.905 3.231 2.009.225 4.814 0 6.488-1.224 1.676-1.227 1.899-4.021 1.899-4.021l10.065.005h2.54c0-3.511-2.514-3.345-2.514-3.345l-1.823.004c-2.316 0-2.23-2.562-2.23-2.562 0-3.372 3.572-1.784 5.248-2.451z" transform="translate(118.164 2.743) translate(0 7.543)"/>
            </g>
        </g>
        <g fill="#FFF">
            <path d="M.122.38C.319.328.508.279.686.234c.178-.044.376-.067.592-.067.52 0 .886.14 1.102.417.215.278.323.65.323 1.114v.484h.053C3.204 1.553 3.79 1.039 4.517.636 5.243.233 6.071.031 7.004.031c1.506 0 2.67.48 3.495 1.436.823.959 1.237 2.306 1.237 4.044v6.744c0 .306-.095.564-.283.779-.189.214-.542.322-1.062.322-.555 0-.995-.045-1.317-.134V5.808c0-1.236-.264-2.13-.792-2.686s-1.276-.833-2.245-.833c-.609 0-1.223.174-1.842.524-.62.35-1.09.811-1.412 1.384v8.06c0 .305-.094.564-.283.778-.188.215-.541.323-1.061.323-.556 0-.995-.045-1.317-.134V.381zM16.6 7.689c.108 1.128.533 1.997 1.275 2.605.745.609 1.707.914 2.89.914.501 0 .937-.04 1.304-.12.367-.08.694-.166.98-.255.287-.09.548-.175.78-.256.234-.08.467-.122.7-.122.36 0 .637.184.834.55.197.368.242.839.134 1.412-.52.25-1.183.492-1.99.725-.806.233-1.72.35-2.742.35-1.075 0-2.039-.17-2.89-.511-.85-.34-1.567-.815-2.15-1.425-.583-.609-1.03-1.325-1.345-2.15-.314-.823-.47-1.72-.47-2.686 0-.967.162-1.858.484-2.673.322-.814.767-1.517 1.33-2.108.565-.592 1.229-1.056 1.99-1.397.762-.34 1.59-.511 2.487-.511 1.003 0 1.881.188 2.634.564.753.375 1.384.864 1.895 1.464.511.6.892 1.275 1.142 2.028.25.752.376 1.514.376 2.283 0 .25-.014.484-.041.698-.028.214-.058.422-.094.617h-9.514v.004zm7.15-1.908c-.073-1.04-.412-1.912-1.023-2.62-.609-.708-1.45-1.061-2.526-1.061-1.075 0-1.923.345-2.54 1.034-.619.689-.972 1.572-1.062 2.647h7.15zM42.323 12.283c-.108.43-.336.722-.686.872-.35.153-.748.228-1.196.228-.233 0-.506-.018-.82-.053-.313-.036-.55-.08-.711-.133l-2.662-9.834-2.473 8.867c-.125.466-.353.775-.686.927-.33.153-.73.228-1.195.228-.215 0-.489-.019-.82-.053-.33-.036-.578-.09-.74-.161L27.19.49c.178-.073.385-.143.619-.215.233-.072.5-.108.806-.108.394 0 .712.077.953.228.242.153.408.425.498.82l1.128 5.158.887 4.433h.053c.09-.484.228-1.061.417-1.733.188-.672.353-1.276.497-1.814l1.72-6.017c.065-.178.172-.658.232-.818.115-.161 1.126-.608 2.226-.291.274.079.278.16.367.267.089.11.212.51.212.51l1.827 6.457c.178.645.336 1.263.47 1.853.134.592.255 1.12.363 1.586h.054l.283-1.492c.097-.528.22-1.105.363-1.733l1.451-6.447c.09-.358.242-.609.456-.753.215-.142.501-.214.861-.214.27 0 .515.03.74.094.224.064.416.12.577.175l-2.927 11.846zM50.145 7.392c-1.417-.375-2.411-.864-2.984-1.464-.575-.6-.861-1.33-.861-2.19 0-.483.094-.944.283-1.383.188-.438.492-.828.914-1.169.42-.34.959-.613 1.612-.82.653-.205 1.456-.308 2.406-.308 1.542 0 3.154.287 4.838.86.053.572-.005 1.033-.175 1.383-.17.35-.461.524-.873.524-.197 0-.411-.03-.645-.094-.233-.062-.505-.13-.82-.202-.313-.072-.658-.14-1.033-.203-.376-.063-.806-.094-1.29-.094-.967 0-1.636.125-2.003.375-.367.25-.55.583-.55.995 0 .18.022.336.066.47.045.133.134.263.27.389.133.125.336.241.605.35.269.107.617.224 1.048.349l2.07.564c1.47.411 2.5.914 3.09 1.505.59.592.887 1.353.887 2.284 0 .466-.08.927-.242 1.383-.161.456-.444.87-.847 1.236-.403.367-.954.667-1.654.9-.7.233-1.586.35-2.661.35-.861 0-1.743-.086-2.648-.256-.906-.17-1.787-.406-2.648-.711-.09-.556-.045-1.017.134-1.384.178-.366.466-.55.86-.55.215 0 .467.04.753.12.287.08.61.166.968.256.358.089.753.174 1.183.255.43.08.895.122 1.398.122.591 0 1.067-.05 1.425-.148.358-.097.636-.224.833-.375.198-.153.326-.322.39-.511.061-.189.094-.38.094-.578 0-.43-.166-.756-.497-.98-.333-.225-.9-.453-1.707-.686l-1.99-.564z" transform="translate(51.279 7.029)"/>
        </g>
    </g>
</svg>
