<svg id="Groupe_16" data-name="Groupe 16" xmlns="http://www.w3.org/2000/svg" width="79.917" height="40.643" viewBox="0 0 79.917 40.643">
  <path id="Tracé_70" data-name="Tracé 70" d="M3572.442,2690.748c.151-.272.314-.539.45-.818q5.845-11.966,11.685-23.933l3.674-7.525c.024-.048.053-.094.108-.191l16.415,32.594h-.3c-1.922,0-3.845,0-5.767.005a.4.4,0,0,1-.427-.259q-4.733-9.55-9.477-19.093c-.047-.1-.1-.188-.17-.316l-7.258,14.648c.153.006.266.016.38.016,2.571,0,5.141,0,7.712,0a.458.458,0,0,1,.478.289c.768,1.477,1.552,2.946,2.33,4.418.044.084.079.174.135.3h-19.6c-.121,0-.241,0-.362.006Z" transform="translate(-3572.442 -2658.272)"/>
  <path id="Tracé_71" data-name="Tracé 71" d="M4565.763,3225.761v-3.427a2.221,2.221,0,0,1,.407.265c.426.47.84.952,1.279,1.455.434-.49.855-.974,1.286-1.451a2.13,2.13,0,0,1,.3-.235l.085.054v3.338h-.66v-1.826l-.079-.025-.934,1.015-.965-1.041v1.876Z" transform="translate(-4500.239 -3185.119)"/>
  <path id="Tracé_72" data-name="Tracé 72" d="M4183.024,3227.279v-3.306c.641,0,1.254-.039,1.859.012a.783.783,0,0,1,.759.738.958.958,0,0,1-.466,1.035c-.036.022-.068.049-.117.083l.8,1.438h-.791c-.189-.341-.375-.684-.568-1.022-.241-.422-.3-.442-.816-.309v1.331Zm.667-2.031c.354,0,.68.006,1,0,.207-.005.354-.128.309-.329-.028-.127-.169-.31-.277-.323a8.45,8.45,0,0,0-1.036-.015Z" transform="translate(-4142.747 -3186.636)"/>
  <path id="Tracé_73" data-name="Tracé 73" d="M4342.915,3226.448v-3.378c.614.03,1.211.05,1.807.093a.873.873,0,0,1,.392.157,1.744,1.744,0,0,1,.617,1.824,1.292,1.292,0,0,1-.967,1.233.732.732,0,0,0-.135.071Zm.68-2.68v2c.477-.034.978.136,1.313-.34a1.37,1.37,0,0,0,0-1.316C4344.574,3223.647,4344.074,3223.8,4343.595,3223.769Z" transform="translate(-4292.091 -3185.806)"/>
  <path id="Tracé_74" data-name="Tracé 74" d="M4286.953,3225.878v-3.418a2.43,2.43,0,0,1,.4.253c.618.606,1.226,1.222,1.9,1.893v-2.064h.666v3.336h-.264l-2.041-1.937c.018-.034,0-.016,0,0q0,.968,0,1.936Z" transform="translate(-4239.82 -3185.236)"/>
  <path id="Tracé_75" data-name="Tracé 75" d="M4060.108,3227.107q.006-1.627.015-3.253c0-.02.016-.039.034-.079h2.409v.624h-1.729v.678h1.288v.645h-1.292v.744h1.323c.5,0,.438-.028.44.445,0,.065.011.13.017.2Z" transform="translate(-4027.939 -3186.465)"/>
  <path id="Tracé_76" data-name="Tracé 76" d="M4130.055,3226.795c-.1-.046-.191-.091-.286-.137a1.618,1.618,0,0,1-.984-1.541,1.642,1.642,0,0,1,.987-1.541,1.772,1.772,0,0,1,1.882.331c-.065.081-.137.16-.2.247a.3.3,0,0,1-.456.1,1.066,1.066,0,0,0-1.231.112,1.051,1.051,0,0,0-.233,1.153.991.991,0,0,0,1.315.515c.131-.08.138-.365.214-.594l-.479-.054v-.6h1.111c0,.49.014.96-.011,1.428a.466.466,0,0,1-.227.286,5.979,5.979,0,0,1-.612.287Z" transform="translate(-4092.086 -3186.153)"/>
  <path id="Tracé_77" data-name="Tracé 77" d="M3725.336,3226.686c.415-1.019.839-2.034,1.239-3.059a.407.407,0,0,1,.456-.3c.232,0,.372.041.464.286.388,1.03.8,2.052,1.2,3.076h-.725c-.152-.508-.152-.508-.645-.508h-.653c-.453,0-.473.019-.548.508Zm1.754-2.34-.08.008c-.146.369-.292.738-.445,1.127h.967C3727.378,3225.082,3727.234,3224.713,3727.09,3224.345Z" transform="translate(-3715.25 -3186.044)"/>
  <path id="Tracé_78" data-name="Tracé 78" d="M3953.18,3226.711c.415-1.024.838-2.046,1.237-3.076a.383.383,0,0,1,.435-.284c.224,0,.372.02.469.277.39,1.034.811,2.056,1.22,3.083h-.725c-.181-.508-.181-.508-.723-.508a2.392,2.392,0,0,1-.393,0c-.426-.072-.71.062-.8.511Zm1.7-2.434-.489,1.239h.975Z" transform="translate(-3928.065 -3186.069)"/>
  <path id="Tracé_79" data-name="Tracé 79" d="M4228.993,3226.645q.479-1.236.958-2.47a5.577,5.577,0,0,0,.218-.548.419.419,0,0,1,.491-.346.413.413,0,0,1,.449.312c.353.917.729,1.827,1.092,2.741a2.8,2.8,0,0,1,.088.311h-.725c-.11-.508-.11-.508-.592-.508h-.652c-.482,0-.482,0-.6.508Zm1.669-2.439c-.182.456-.334.84-.493,1.241h.972C4230.984,3225.04,4230.838,3224.661,4230.662,3224.206Z" transform="translate(-4185.684 -3186.002)"/>
  <path id="Tracé_80" data-name="Tracé 80" d="M4507.8,3226.747c.413-1.037.84-2.069,1.231-3.115.1-.266.265-.231.458-.241a.355.355,0,0,1,.426.249c.4,1.041.829,2.072,1.247,3.107h-.725c-.085-.45-.37-.583-.8-.511a2.413,2.413,0,0,1-.392,0c-.542,0-.542,0-.724.507Zm1.688-2.44c-.182.46-.332.841-.489,1.241h.974Z" transform="translate(-4446.101 -3186.104)"/>
  <path id="Tracé_81" data-name="Tracé 81" d="M4417.16,3226.762l-.967-.456.44-.383a6.749,6.749,0,0,0,1.046.166c.13,0,.262-.2.393-.314-.113-.13-.2-.317-.344-.378-.257-.112-.558-.12-.82-.223a.831.831,0,0,1-.259-1.38,1.517,1.517,0,0,1,2.089.062l-.39.353a4.21,4.21,0,0,0-.818-.134c-.13,0-.255.182-.383.281.1.11.18.26.3.319a4.943,4.943,0,0,0,.6.158.9.9,0,0,1,.752.877.981.981,0,0,1-.687.942c-.079.033-.154.073-.232.11Z" transform="translate(-4360.535 -3186.119)"/>
  <path id="Tracé_82" data-name="Tracé 82" d="M3784.3,3227.083v-3.333h2.3v.614h-1.623v.685h1.206v.642h-1.224v1.393Z" transform="translate(-3770.322 -3186.441)"/>
  <path id="Tracé_83" data-name="Tracé 83" d="M3827.268,3227.083v-3.333h2.3v.614h-1.623v.685h1.206v.642h-1.224v1.393Z" transform="translate(-3810.458 -3186.441)"/>
  <path id="Tracé_84" data-name="Tracé 84" d="M4010.634,3227.06v-2.689h-1.095v-.646h2.846v.614h-1.092v2.721Z" transform="translate(-3980.706 -3186.418)"/>
  <path id="Tracé_85" data-name="Tracé 85" d="M4464.832,3227.077v-3.334h.661v2.681h1.809c-.012.247-.021.45-.031.653Z" transform="translate(-4405.965 -3186.434)"/>
  <path id="Tracé_86" data-name="Tracé 86" d="M3890.224,3227.108v-3.332h.676v2.688h1.763v.644Z" transform="translate(-3869.261 -3186.466)"/>
  <path id="Tracé_87" data-name="Tracé 87" d="M3935.674,3227.09c-.012-.5-.028-1-.033-1.508-.006-.6,0-1.2,0-1.825h.694v3.333Z" transform="translate(-3911.68 -3186.448)"/>
  <path id="Tracé_88" data-name="Tracé 88" d="M3870.237,3227.093v-3.333h.659v3.333Z" transform="translate(-3850.593 -3186.45)"/>
  <path id="Tracé_89" data-name="Tracé 89" d="M4371.231,2663.1c-1.108,0-2.184-.008-3.259,0a13.371,13.371,0,0,0-4.25.594,3.669,3.669,0,0,0-2.206,1.711,2.442,2.442,0,0,0-.28,1,11.094,11.094,0,0,0,.033,2.332,3.151,3.151,0,0,0,2.169,2.324,11.345,11.345,0,0,0,4.16.694c1.778.039,3.56.022,5.334.131a16.066,16.066,0,0,1,6.773,1.692,6.81,6.81,0,0,1,3.8,6.137c.036,1.085.047,2.174,0,3.258a6.734,6.734,0,0,1-3.5,5.812,13.7,13.7,0,0,1-4.7,1.584,29.612,29.612,0,0,1-5.08.393q-7.267.012-14.534,0h-.315V2685.9h.374c5.086,0,10.172.011,15.259-.008a12.778,12.778,0,0,0,3.8-.517,3.882,3.882,0,0,0,2.378-1.745,2.975,2.975,0,0,0,.329-1.181c.053-.643-.015-1.3.021-1.941a2.861,2.861,0,0,0-1.391-2.629,5.709,5.709,0,0,0-2.675-.93c-1.022-.115-2.054-.177-3.082-.217-1.568-.062-3.143-.026-4.707-.139a16.13,16.13,0,0,1-6.576-1.673,6.842,6.842,0,0,1-3.45-3.966,8.2,8.2,0,0,1-.377-2.592,16.455,16.455,0,0,1,.186-3.737,6.779,6.779,0,0,1,3.243-4.435,13.873,13.873,0,0,1,4.981-1.68,43.691,43.691,0,0,1,7.426-.337,1.089,1.089,0,0,1,.121.015Z" transform="translate(-4303.62 -2658.166)"/>
  <path id="Tracé_90" data-name="Tracé 90" d="M4036.824,2928.832l-2.51-5.017a11.356,11.356,0,0,0,5.188-3.373c.477-.549.886-1.158,1.326-1.739l-.059-.094h-.376q-4.168,0-8.336,0a.424.424,0,0,1-.449-.276c-.821-1.659-1.657-3.311-2.487-4.966-.047-.094-.085-.193-.148-.337h12.846c1.878,0,3.756.005,5.633-.006.281,0,.377.052.361.361a16.665,16.665,0,0,1-9.229,14.639C4038.029,2928.332,4037.433,2928.557,4036.824,2928.832Z" transform="translate(-3998.858 -2896.218)"/>
  <path id="Tracé_91" data-name="Tracé 91" d="M3946.751,2670.015h-.358c-1.834,0-3.669-.006-5.5.006a.563.563,0,0,1-.533-.281,11.29,11.29,0,0,0-15.663-2.988l-.274.184-2.482-4.958A16.765,16.765,0,0,1,3946.751,2670.015Z" transform="translate(-3898.885 -2659.161)"/>
</svg>
