<svg id="Composant_12_1" data-name="Composant 12 – 1" xmlns="http://www.w3.org/2000/svg" width="132.768" height="43.063" viewBox="0 0 132.768 43.063">
  <g id="Groupe_15" data-name="Groupe 15" transform="translate(0 0)">
    <g id="Groupe_14" data-name="Groupe 14" transform="translate(0 0)">
      <path id="Tracé_52" data-name="Tracé 52" d="M-998.654,3045.511a59.44,59.44,0,0,1-5.364-3.7c-3.166-2.708-2.123-9.977,1.845-12.246,4.621-2.643,11.105-1.664,13.363,3.73a8,8,0,0,1-4.142,10.811,43.361,43.361,0,0,1-4.213,1.4Zm1.566-13.5c-2.532,0-4.478,1.634-4.493,3.784-.024,3.432,1.8,5.643,4.679,5.658a4.888,4.888,0,0,0,4.5-4.523A4.661,4.661,0,0,0-997.089,3032.009Z" transform="translate(1069.91 -3002.448)" fill="#79b347"/>
      <path id="Tracé_53" data-name="Tracé 53" d="M-708.2,3044.649c-1.314-.877-2.712-1.653-3.925-2.652-3.391-2.791-3.253-8.014-1.461-10.826a9.071,9.071,0,0,1,10.476-3.448c.409.138.932.211,1.18.5.572.673,2.509.59,1.54,2.121-1.152,1.82-1.639,2.388-3.508,1.394-2.374-1.262-4.652-.744-5.955,1.317a5.6,5.6,0,0,0,.579,5.986c1.618,1.789,3.285,2.02,5.607.776,1.7-.91,1.991-.777,3.72,1.708a6.808,6.808,0,0,1-5.178,2.7,19.9,19.9,0,0,0-2.332.427Z" transform="translate(798.058 -3001.586)" fill="#79b347"/>
      <path id="Tracé_54" data-name="Tracé 54" d="M-1878.451,3042.141a27.756,27.756,0,0,1-3.732-.066c-.331-.045-.782-.9-.788-1.381q-.086-6.695.006-13.391c.005-.453.442-1.291.659-1.285a23.278,23.278,0,0,1,3.651.474c.207.04.342.463.473.656a18.51,18.51,0,0,1,4.325-1.562,5.51,5.51,0,0,1,3.568,1c1.382,1.04,2.332.845,3.63-.025,2.969-1.989,6.862-1.288,8.336,1.7a12.131,12.131,0,0,1,.69,4.869c.068,2.4-.114,4.8-.121,7.2,0,1.136.128,2.062-1.6,1.919-2.587-.214-3.053-.411-2.992-2.092.09-2.466.213-4.932.238-7.4a3.243,3.243,0,0,0-2.959-3.4c-1.733.033-2.943,1.74-2.867,3.786.09,2.414.035,4.834.038,7.252,0,2.345-1.738,1.686-3.064,1.8-1.4.117-1.608-.568-1.563-1.805.09-2.474,0-4.954-.028-7.432-.021-1.876-.987-3.255-2.4-3.458a2.763,2.763,0,0,0-3.434,2.737C-1878.662,3035.407-1878.451,3038.619-1878.451,3042.141Z" transform="translate(1889.182 -2999.906)" fill="#79b347"/>
      <path id="Tracé_55" data-name="Tracé 55" d="M-1466.058,3035.681c-.319-4.733,3.313-8.467,8.6-8.842a8.59,8.59,0,0,1,9.1,7.836,8.7,8.7,0,0,1-8.115,9.214C-1461.214,3044.387-1466.437,3040.321-1466.058,3035.681Zm9.193-5.038c-3.548.2-4.89,1.742-4.787,5.495a4.484,4.484,0,0,0,4.706,4.007,4.628,4.628,0,0,0,4.315-5.02C-1452.749,3032.784-1454.879,3030.53-1456.865,3030.643Z" transform="translate(1499.752 -3001.198)" fill="#79b347"/>
      <path id="Tracé_56" data-name="Tracé 56" d="M-555.457,2748.085c-2.466,3.089-7.952,3.715-11.4,1.28-4.043-2.853-4.279-7.137-2.52-11.728,1.237-3.227,6.595-4.7,10.435-3.208,3.068,1.2,5.289,5.338,4.435,8.531a2.016,2.016,0,0,1-1.58.97c-2.772.043-5.546-.114-8.319-.109-1.18,0-1.542.92-.851,1.892a4.324,4.324,0,0,0,4.989,1.287C-558.349,2746-556.8,2746.02-555.457,2748.085Zm-10.915-6.96c2.3,0,4.313.038,6.321-.014,1.181-.03,1.347-.95.906-1.7-.584-.991-1.188-2.031-2.72-2.046C-564.125,2737.343-564.894,2737.8-566.371,2741.125Z" transform="translate(663.177 -2727.547)" fill="#79b347"/>
      <path id="Tracé_57" data-name="Tracé 57" d="M-1974.609,2736.89a56.642,56.642,0,0,1,6.424-1.362c3.279-.322,6.3,1.4,6.638,5.323.287,3.307.188,6.648.281,9.972.026.945-.315,1.438-1.313,1.232-1.1-.228-2.191-.564-3.3-.7a3.735,3.735,0,0,0-1.883.288c-3.557,1.592-7.2.46-8.463-2.687a4.689,4.689,0,0,1,3.328-6.341,44.8,44.8,0,0,1,5.127-.279,6.34,6.34,0,0,0,1.815-.8c-.383-.618-.669-1.661-1.167-1.775a13.264,13.264,0,0,0-4.548-.36C-1974.418,2739.757-1974.429,2739.869-1974.609,2736.89Zm5.906,7.69c-1.647-.044-3.46,1.1-3.446,2.169a2.446,2.446,0,0,0,2.715,2.612c1.942-.026,4.015-1.438,3.819-2.778C-1965.863,2744.9-1967.247,2744.6-1968.7,2744.58Z" transform="translate(1976.569 -2729.086)" fill="#79b347"/>
      <path id="Tracé_58" data-name="Tracé 58" d="M-995.061,2735.853a13.688,13.688,0,0,1,8.961-.82,5.451,5.451,0,0,1,4.254,5.422c.091,3.034-.018,6.074.06,9.108.034,1.333-.505,1.834-1.75,1.645-.956-.146-1.895-.409-2.851-.546a6.308,6.308,0,0,0-1.4.078,30.173,30.173,0,0,1-5.251.4,4.675,4.675,0,0,1-3.893-4.935c.07-1.961,2.405-4.568,4.37-4.7,1.465-.1,2.949.081,4.419.022a10.724,10.724,0,0,0,2.092-.5c-.511-.742-.895-1.949-1.558-2.13a12.59,12.59,0,0,0-4.558-.3C-994.627,2738.855-994.917,2738.714-995.061,2735.853Zm4.756,12.633c1.021-.107,1.575-.145,2.122-.227a2.661,2.661,0,0,0,2.29-2.73c.061-1.4-1.28-1.676-2.405-1.725a4.375,4.375,0,0,0-2.484.376,3.481,3.481,0,0,0-1.586,2.271A1.845,1.845,0,0,0-990.305,2748.486Z" transform="translate(1061.552 -2728.262)" fill="#79b347"/>
      <path id="Tracé_59" data-name="Tracé 59" d="M-217.152,3035.1a14,14,0,0,1-.624,3.22,3.082,3.082,0,0,1-1.752,1.657c-3.864.75-7.762,1.332-11.657,1.914-1.115.167-3.036-2.13-3.536-3.894-1.343-4.739,1.764-9.361,5.147-10.454,4.878-1.576,9.1-.42,11.547,4.126A13.473,13.473,0,0,1-217.152,3035.1Zm-8.84-4.291c-3.172.022-4.6,1.687-4.514,5.39.053,2.255,2.115,3.7,4.65,3.8a4.881,4.881,0,0,0,4.374-4.065C-221.43,3032.982-223.356,3030.793-225.992,3030.812Z" transform="translate(349.92 -3001.254)" fill="#79b347"/>
      <path id="Tracé_60" data-name="Tracé 60" d="M-1536.547,2654.548c0-1.236-.017-2.473.005-3.708.019-1.038.315-2.072-1.3-2.343-.873-.146-.687-2.327-.025-3.223a9.319,9.319,0,0,0,1.565-3.108,4.524,4.524,0,0,1,2.925-3.3,4.68,4.68,0,0,1,4.732.387c.53.4.5,1.685.484,2.563,0,.2-.993.4-1.539.557-.165.049-.43-.108-.541-.026-.568.425-1.471.832-1.564,1.365-.162.925.359,1.544,1.6,1.323,1.338-.24,1.961.4,2,1.9s-.541,1.9-1.839,1.727c-1.55-.207-1.912.589-1.88,1.966.069,2.972-.006,5.947.068,8.918.031,1.245-.331,1.923-1.664,1.784-1.154-.12-2.813.65-2.774-1.594.03-1.731.006-3.464.006-5.2Z" transform="translate(1567.337 -2638.415)" fill="#79b347"/>
      <path id="Tracé_61" data-name="Tracé 61" d="M-743.4,2671.4a11.945,11.945,0,0,0,1.844-.015c1.753-.3,2.358.553,2.29,2.149-.063,1.469.491,2.114,2.093,2.025a1.685,1.685,0,0,1,1.973,2.03c-.145,1.18-.331,2.175-2.032,1.78-1.263-.294-2.146.258-2.034,1.821.093,1.292.034,2.6.039,3.9.012,3.276.261,3.526,3.423,3.414.938,3.154.029,3.744-2.9,3.823-3.627.1-4.493-.7-4.9-4.282a51.856,51.856,0,0,1-.146-6.661c.016-1.012.077-1.792-1.229-2.042a1.653,1.653,0,0,1-.944-1.329c.139-.873.47-2.212,1.048-2.412,1.077-.37,1.36-.712,1.2-1.793A10.091,10.091,0,0,1-743.4,2671.4Z" transform="translate(827.1 -2669.151)" fill="#79b347"/>
      <path id="Tracé_62" data-name="Tracé 62" d="M-466.5,3019.735c1.609.657,3.262,1.228,4.8,2.024.443.23.928,1.38.741,1.642-.609.852-1.054,2.257-2.656,1.637a9.6,9.6,0,0,0-2.739-.868,4.33,4.33,0,0,0-4.617,5.064c.434,3.761,3.8,5.491,6.957,3.414,1.778-1.171,2.332.283,3.036,1.178.21.267-.251,1.47-.718,1.8-3.2,2.233-9.511,1.35-11.912-1.684a7.808,7.808,0,0,1-1.152-8.295A9.494,9.494,0,0,1-466.5,3019.735Z" transform="translate(574.485 -2994.581)" fill="#79b347"/>
      <path id="Tracé_63" data-name="Tracé 63" d="M-1718.543,2692.9c0-1.421-.014-2.843,0-4.264.014-1.023-.011-1.874-1.262-2.349-1.018-.387-.862-2.535,0-3.317a15.159,15.159,0,0,0,1.313-1.781c.36-.44.745-1.034,1.227-1.168a48.421,48.421,0,0,1,5.423-1.175c.435-.068.957.421,1.439.654-.408.234-.8.5-1.228.69-.275.125-.641.077-.886.232a14.69,14.69,0,0,0-1.3,1.027,5.254,5.254,0,0,0,1.245,1.1c.882.376,2.146.011,2.167,1.672.02,1.56-.233,2.5-2.11,2.288-1.677-.192-1.656,1.186-1.679,2.26-.059,2.782.013,5.567-.021,8.349-.024,2.045-.271,2.141-2.886,2.049-1.649-.058-1.5-1.091-1.389-2.184.025-.245.034-.493.035-.74,0-1.114,0-2.227,0-3.341Z" transform="translate(1737.397 -2676.174)" fill="#79b347"/>
      <path id="Tracé_64" data-name="Tracé 64" d="M-1211.879,2652.71c0,3.156-.083,6.314.032,9.466.066,1.809-.959,1.766-2.228,1.788s-2.109-.124-2.1-1.759c.047-6.183-.033-12.368-.026-18.552a2.456,2.456,0,0,1,3.808-2.041c.373.248.5,1.07.506,1.631.046,3.155.022,6.311.022,9.467Z" transform="translate(1266.356 -2641.017)" fill="#79b347"/>
      <path id="Tracé_65" data-name="Tracé 65" d="M-1159.705,3030.508a34.813,34.813,0,0,1,2.98-2.139c1.174-.662,2.034-.465,2.05,1.14s.247,3.126-2.08,3.53c-2.058.357-3.048,2.015-3.162,4.055-.11,1.971-.079,3.95-.1,5.925-.029,2.359-1.811,1.438-2.982,1.553-1.391.136-1.569-.783-1.548-1.917.081-4.253.195-8.51.112-12.761-.023-1.2.308-1.559,1.369-1.576C-1161.565,3028.293-1159.826,3027.8-1159.705,3030.508Z" transform="translate(1218.116 -3002.314)" fill="#79b347"/>
      <path id="Tracé_66" data-name="Tracé 66" d="M-1335.946,2744.167c0-2.165.085-4.334-.025-6.493-.1-1.994,1.356-1.834,2.483-1.823,1.158.011,2.139.226,2.026,2.061a111.983,111.983,0,0,0-.094,12.6c.147,2.846-1.93,1.613-3.025,1.92-1.373.384-1.338-.806-1.331-1.772.015-2.165,0-4.33,0-6.495Z" transform="translate(1378.232 -2729.417)" fill="#79b347"/>
      <path id="Tracé_67" data-name="Tracé 67" d="M-1090.383,2742.739c0,2.038-.038,4.078.016,6.115.028,1.078-.152,1.979-1.449,1.755-1.094-.189-2.981,1.017-2.971-1.483.014-3.581,0-7.161-.01-10.742,0-.495.011-.99-.016-1.483-.138-2.516,1.161-3.5,3.453-2.45a2.4,2.4,0,0,1,.864,1.8c.105,2.157.04,4.323.04,6.485Z" transform="translate(1152.987 -2727.726)" fill="#79b347"/>
      <path id="Tracé_68" data-name="Tracé 68" d="M-1096.513,2648.243c-1.4.154-2.323.044-2.361-1.85-.041-2.013.974-2.034,2.407-1.989,1.3.042,2.377-.073,2.374,1.888S-1095.044,2648.443-1096.513,2648.243Z" transform="translate(1156.772 -2644)" fill="#79b347"/>
      <path id="Tracé_69" data-name="Tracé 69" d="M-1335.822,2644.409c.905.2,2.425-.534,2.459,1.434.027,1.547-.135,2.689-2.266,2.491-2.419-.224-2.349-.06-2.5-2.469C-1338.25,2643.9-1336.911,2644.511-1335.822,2644.409Z" transform="translate(1380.25 -2644.001)" fill="#79b347"/>
    </g>
  </g>
  <g id="Groupe_20" data-name="Groupe 20" transform="translate(0 0)" opacity="0" style="mix-blend-mode: saturation;isolation: isolate">
    <g id="Groupe_14-2" data-name="Groupe 14" transform="translate(0 0)">
      <path id="Tracé_52-2" data-name="Tracé 52" d="M-998.654,3045.511a59.44,59.44,0,0,1-5.364-3.7c-3.166-2.708-2.123-9.977,1.845-12.246,4.621-2.643,11.105-1.664,13.363,3.73a8,8,0,0,1-4.142,10.811,43.361,43.361,0,0,1-4.213,1.4Zm1.566-13.5c-2.532,0-4.478,1.634-4.493,3.784-.024,3.432,1.8,5.643,4.679,5.658a4.888,4.888,0,0,0,4.5-4.523A4.661,4.661,0,0,0-997.089,3032.009Z" transform="translate(1069.91 -3002.448)"/>
      <path id="Tracé_53-2" data-name="Tracé 53" d="M-708.2,3044.649c-1.314-.877-2.712-1.653-3.925-2.652-3.391-2.791-3.253-8.014-1.461-10.826a9.071,9.071,0,0,1,10.476-3.448c.409.138.932.211,1.18.5.572.673,2.509.59,1.54,2.121-1.152,1.82-1.639,2.388-3.508,1.394-2.374-1.262-4.652-.744-5.955,1.317a5.6,5.6,0,0,0,.579,5.986c1.618,1.789,3.285,2.02,5.607.776,1.7-.91,1.991-.777,3.72,1.708a6.808,6.808,0,0,1-5.178,2.7,19.9,19.9,0,0,0-2.332.427Z" transform="translate(798.058 -3001.586)"/>
      <path id="Tracé_54-2" data-name="Tracé 54" d="M-1878.451,3042.141a27.756,27.756,0,0,1-3.732-.066c-.331-.045-.782-.9-.788-1.381q-.086-6.695.006-13.391c.005-.453.442-1.291.659-1.285a23.278,23.278,0,0,1,3.651.474c.207.04.342.463.473.656a18.51,18.51,0,0,1,4.325-1.562,5.51,5.51,0,0,1,3.568,1c1.382,1.04,2.332.845,3.63-.025,2.969-1.989,6.862-1.288,8.336,1.7a12.131,12.131,0,0,1,.69,4.869c.068,2.4-.114,4.8-.121,7.2,0,1.136.128,2.062-1.6,1.919-2.587-.214-3.053-.411-2.992-2.092.09-2.466.213-4.932.238-7.4a3.243,3.243,0,0,0-2.959-3.4c-1.733.033-2.943,1.74-2.867,3.786.09,2.414.035,4.834.038,7.252,0,2.345-1.738,1.686-3.064,1.8-1.4.117-1.608-.568-1.563-1.805.09-2.474,0-4.954-.028-7.432-.021-1.876-.987-3.255-2.4-3.458a2.763,2.763,0,0,0-3.434,2.737C-1878.662,3035.407-1878.451,3038.619-1878.451,3042.141Z" transform="translate(1889.182 -2999.906)"/>
      <path id="Tracé_55-2" data-name="Tracé 55" d="M-1466.058,3035.681c-.319-4.733,3.313-8.467,8.6-8.842a8.59,8.59,0,0,1,9.1,7.836,8.7,8.7,0,0,1-8.115,9.214C-1461.214,3044.387-1466.437,3040.321-1466.058,3035.681Zm9.193-5.038c-3.548.2-4.89,1.742-4.787,5.495a4.484,4.484,0,0,0,4.706,4.007,4.628,4.628,0,0,0,4.315-5.02C-1452.749,3032.784-1454.879,3030.53-1456.865,3030.643Z" transform="translate(1499.752 -3001.198)"/>
      <path id="Tracé_56-2" data-name="Tracé 56" d="M-555.457,2748.085c-2.466,3.089-7.952,3.715-11.4,1.28-4.043-2.853-4.279-7.137-2.52-11.728,1.237-3.227,6.595-4.7,10.435-3.208,3.068,1.2,5.289,5.338,4.435,8.531a2.016,2.016,0,0,1-1.58.97c-2.772.043-5.546-.114-8.319-.109-1.18,0-1.542.92-.851,1.892a4.324,4.324,0,0,0,4.989,1.287C-558.349,2746-556.8,2746.02-555.457,2748.085Zm-10.915-6.96c2.3,0,4.313.038,6.321-.014,1.181-.03,1.347-.95.906-1.7-.584-.991-1.188-2.031-2.72-2.046C-564.125,2737.343-564.894,2737.8-566.371,2741.125Z" transform="translate(663.177 -2727.547)"/>
      <path id="Tracé_57-2" data-name="Tracé 57" d="M-1974.609,2736.89a56.642,56.642,0,0,1,6.424-1.362c3.279-.322,6.3,1.4,6.638,5.323.287,3.307.188,6.648.281,9.972.026.945-.315,1.438-1.313,1.232-1.1-.228-2.191-.564-3.3-.7a3.735,3.735,0,0,0-1.883.288c-3.557,1.592-7.2.46-8.463-2.687a4.689,4.689,0,0,1,3.328-6.341,44.8,44.8,0,0,1,5.127-.279,6.34,6.34,0,0,0,1.815-.8c-.383-.618-.669-1.661-1.167-1.775a13.264,13.264,0,0,0-4.548-.36C-1974.418,2739.757-1974.429,2739.869-1974.609,2736.89Zm5.906,7.69c-1.647-.044-3.46,1.1-3.446,2.169a2.446,2.446,0,0,0,2.715,2.612c1.942-.026,4.015-1.438,3.819-2.778C-1965.863,2744.9-1967.247,2744.6-1968.7,2744.58Z" transform="translate(1976.569 -2729.086)"/>
      <path id="Tracé_58-2" data-name="Tracé 58" d="M-995.061,2735.853a13.688,13.688,0,0,1,8.961-.82,5.451,5.451,0,0,1,4.254,5.422c.091,3.034-.018,6.074.06,9.108.034,1.333-.505,1.834-1.75,1.645-.956-.146-1.895-.409-2.851-.546a6.308,6.308,0,0,0-1.4.078,30.173,30.173,0,0,1-5.251.4,4.675,4.675,0,0,1-3.893-4.935c.07-1.961,2.405-4.568,4.37-4.7,1.465-.1,2.949.081,4.419.022a10.724,10.724,0,0,0,2.092-.5c-.511-.742-.895-1.949-1.558-2.13a12.59,12.59,0,0,0-4.558-.3C-994.627,2738.855-994.917,2738.714-995.061,2735.853Zm4.756,12.633c1.021-.107,1.575-.145,2.122-.227a2.661,2.661,0,0,0,2.29-2.73c.061-1.4-1.28-1.676-2.405-1.725a4.375,4.375,0,0,0-2.484.376,3.481,3.481,0,0,0-1.586,2.271A1.845,1.845,0,0,0-990.305,2748.486Z" transform="translate(1061.552 -2728.262)"/>
      <path id="Tracé_59-2" data-name="Tracé 59" d="M-217.152,3035.1a14,14,0,0,1-.624,3.22,3.082,3.082,0,0,1-1.752,1.657c-3.864.75-7.762,1.332-11.657,1.914-1.115.167-3.036-2.13-3.536-3.894-1.343-4.739,1.764-9.361,5.147-10.454,4.878-1.576,9.1-.42,11.547,4.126A13.473,13.473,0,0,1-217.152,3035.1Zm-8.84-4.291c-3.172.022-4.6,1.687-4.514,5.39.053,2.255,2.115,3.7,4.65,3.8a4.881,4.881,0,0,0,4.374-4.065C-221.43,3032.982-223.356,3030.793-225.992,3030.812Z" transform="translate(349.92 -3001.254)"/>
      <path id="Tracé_60-2" data-name="Tracé 60" d="M-1536.547,2654.548c0-1.236-.017-2.473.005-3.708.019-1.038.315-2.072-1.3-2.343-.873-.146-.687-2.327-.025-3.223a9.319,9.319,0,0,0,1.565-3.108,4.524,4.524,0,0,1,2.925-3.3,4.68,4.68,0,0,1,4.732.387c.53.4.5,1.685.484,2.563,0,.2-.993.4-1.539.557-.165.049-.43-.108-.541-.026-.568.425-1.471.832-1.564,1.365-.162.925.359,1.544,1.6,1.323,1.338-.24,1.961.4,2,1.9s-.541,1.9-1.839,1.727c-1.55-.207-1.912.589-1.88,1.966.069,2.972-.006,5.947.068,8.918.031,1.245-.331,1.923-1.664,1.784-1.154-.12-2.813.65-2.774-1.594.03-1.731.006-3.464.006-5.2Z" transform="translate(1567.337 -2638.415)"/>
      <path id="Tracé_61-2" data-name="Tracé 61" d="M-743.4,2671.4a11.945,11.945,0,0,0,1.844-.015c1.753-.3,2.358.553,2.29,2.149-.063,1.469.491,2.114,2.093,2.025a1.685,1.685,0,0,1,1.973,2.03c-.145,1.18-.331,2.175-2.032,1.78-1.263-.294-2.146.258-2.034,1.821.093,1.292.034,2.6.039,3.9.012,3.276.261,3.526,3.423,3.414.938,3.154.029,3.744-2.9,3.823-3.627.1-4.493-.7-4.9-4.282a51.856,51.856,0,0,1-.146-6.661c.016-1.012.077-1.792-1.229-2.042a1.653,1.653,0,0,1-.944-1.329c.139-.873.47-2.212,1.048-2.412,1.077-.37,1.36-.712,1.2-1.793A10.091,10.091,0,0,1-743.4,2671.4Z" transform="translate(827.1 -2669.151)"/>
      <path id="Tracé_62-2" data-name="Tracé 62" d="M-466.5,3019.735c1.609.657,3.262,1.228,4.8,2.024.443.23.928,1.38.741,1.642-.609.852-1.054,2.257-2.656,1.637a9.6,9.6,0,0,0-2.739-.868,4.33,4.33,0,0,0-4.617,5.064c.434,3.761,3.8,5.491,6.957,3.414,1.778-1.171,2.332.283,3.036,1.178.21.267-.251,1.47-.718,1.8-3.2,2.233-9.511,1.35-11.912-1.684a7.808,7.808,0,0,1-1.152-8.295A9.494,9.494,0,0,1-466.5,3019.735Z" transform="translate(574.485 -2994.581)"/>
      <path id="Tracé_63-2" data-name="Tracé 63" d="M-1718.543,2692.9c0-1.421-.014-2.843,0-4.264.014-1.023-.011-1.874-1.262-2.349-1.018-.387-.862-2.535,0-3.317a15.159,15.159,0,0,0,1.313-1.781c.36-.44.745-1.034,1.227-1.168a48.421,48.421,0,0,1,5.423-1.175c.435-.068.957.421,1.439.654-.408.234-.8.5-1.228.69-.275.125-.641.077-.886.232a14.69,14.69,0,0,0-1.3,1.027,5.254,5.254,0,0,0,1.245,1.1c.882.376,2.146.011,2.167,1.672.02,1.56-.233,2.5-2.11,2.288-1.677-.192-1.656,1.186-1.679,2.26-.059,2.782.013,5.567-.021,8.349-.024,2.045-.271,2.141-2.886,2.049-1.649-.058-1.5-1.091-1.389-2.184.025-.245.034-.493.035-.74,0-1.114,0-2.227,0-3.341Z" transform="translate(1737.397 -2676.174)"/>
      <path id="Tracé_64-2" data-name="Tracé 64" d="M-1211.879,2652.71c0,3.156-.083,6.314.032,9.466.066,1.809-.959,1.766-2.228,1.788s-2.109-.124-2.1-1.759c.047-6.183-.033-12.368-.026-18.552a2.456,2.456,0,0,1,3.808-2.041c.373.248.5,1.07.506,1.631.046,3.155.022,6.311.022,9.467Z" transform="translate(1266.356 -2641.017)"/>
      <path id="Tracé_65-2" data-name="Tracé 65" d="M-1159.705,3030.508a34.813,34.813,0,0,1,2.98-2.139c1.174-.662,2.034-.465,2.05,1.14s.247,3.126-2.08,3.53c-2.058.357-3.048,2.015-3.162,4.055-.11,1.971-.079,3.95-.1,5.925-.029,2.359-1.811,1.438-2.982,1.553-1.391.136-1.569-.783-1.548-1.917.081-4.253.195-8.51.112-12.761-.023-1.2.308-1.559,1.369-1.576C-1161.565,3028.293-1159.826,3027.8-1159.705,3030.508Z" transform="translate(1218.116 -3002.314)"/>
      <path id="Tracé_66-2" data-name="Tracé 66" d="M-1335.946,2744.167c0-2.165.085-4.334-.025-6.493-.1-1.994,1.356-1.834,2.483-1.823,1.158.011,2.139.226,2.026,2.061a111.983,111.983,0,0,0-.094,12.6c.147,2.846-1.93,1.613-3.025,1.92-1.373.384-1.338-.806-1.331-1.772.015-2.165,0-4.33,0-6.495Z" transform="translate(1378.232 -2729.417)"/>
      <path id="Tracé_67-2" data-name="Tracé 67" d="M-1090.383,2742.739c0,2.038-.038,4.078.016,6.115.028,1.078-.152,1.979-1.449,1.755-1.094-.189-2.981,1.017-2.971-1.483.014-3.581,0-7.161-.01-10.742,0-.495.011-.99-.016-1.483-.138-2.516,1.161-3.5,3.453-2.45a2.4,2.4,0,0,1,.864,1.8c.105,2.157.04,4.323.04,6.485Z" transform="translate(1152.987 -2727.726)"/>
      <path id="Tracé_68-2" data-name="Tracé 68" d="M-1096.513,2648.243c-1.4.154-2.323.044-2.361-1.85-.041-2.013.974-2.034,2.407-1.989,1.3.042,2.377-.073,2.374,1.888S-1095.044,2648.443-1096.513,2648.243Z" transform="translate(1156.772 -2644)"/>
      <path id="Tracé_69-2" data-name="Tracé 69" d="M-1335.822,2644.409c.905.2,2.425-.534,2.459,1.434.027,1.547-.135,2.689-2.266,2.491-2.419-.224-2.349-.06-2.5-2.469C-1338.25,2643.9-1336.911,2644.511-1335.822,2644.409Z" transform="translate(1380.25 -2644.001)"/>
    </g>
  </g>
</svg>
